{
.appVersion = "1056";
DisplayStrings = (
/euro
);
customParameters = (
{
name = Axes;
value = (
{
Name = Weight;
Tag = wght;
}
);
}
);
date = "2018-10-04 12:50:48 +0000";
designer = "Alexandre Texier x Mael Sinic";
familyName = "Phototype-D";
featurePrefixes = (
{
automatic = 1;
code = "languagesystem DFLT dflt;\012";
name = Languagesystems;
}
);
fontMaster = (
{
ascender = 500;
capHeight = 500;
descender = -200;
guideLines = (
{
angle = 270;
locked = 1;
position = "{50, 600}";
},
{
angle = 270;
locked = 1;
position = "{950, 600}";
},
{
angle = 270;
locked = 1;
position = "{500, 600}";
},
{
locked = 1;
position = "{-200, 650}";
},
{
locked = 1;
position = "{-200, -150}";
},
{
locked = 1;
position = "{-180, 500}";
},
{
locked = 1;
position = "{-180, 250}";
},
{
locked = 1;
position = "{-180, 0}";
}
);
id = "BA964981-AC0A-4481-A535-297F9E9B05B4";
userData = {
GSOffsetHorizontal = 45;
GSOffsetVertical = 10;
};
visible = 1;
weight = Bold;
weightValue = 700;
width = Extended;
xHeight = 500;
},
{
ascender = 500;
capHeight = 500;
descender = -200;
guideLines = (
{
angle = 270;
locked = 1;
position = "{50, 600}";
},
{
angle = 270;
locked = 1;
position = "{950, 600}";
},
{
angle = 270;
locked = 1;
position = "{500, 600}";
},
{
locked = 1;
position = "{-200, 650}";
},
{
locked = 1;
position = "{-200, -150}";
},
{
locked = 1;
position = "{-180, 500}";
},
{
locked = 1;
position = "{-180, 250}";
},
{
locked = 1;
position = "{-180, 0}";
},
{
angle = 90;
position = "{280, 250}";
}
);
id = "ADA7F6FF-5955-4EF3-8FA7-BADC10F8EE4C";
userData = {
GSOffsetHorizontal = 45;
GSOffsetVertical = 10;
};
visible = 1;
weightValue = 400;
width = Extended;
xHeight = 500;
},
{
ascender = 500;
capHeight = 500;
descender = -200;
guideLines = (
{
angle = 270;
locked = 1;
position = "{50, 600}";
},
{
angle = 270;
locked = 1;
position = "{950, 600}";
},
{
angle = 270;
locked = 1;
position = "{500, 600}";
},
{
locked = 1;
position = "{-200, 650}";
},
{
locked = 1;
position = "{-200, -150}";
},
{

glyphs = (
{
color = 10;
glyphname = A;
lastChange = "2019-01-22 14:04:59 +0000";
layers = (
{
layerId = "ADA7F6FF-5955-4EF3-8FA7-BADC10F8EE4C";
paths = (
{
closed = 1;
nodes = (
"30 -25 OFFCURVE",
"50 -45 OFFCURVE",
"75 -45 CURVE SMOOTH",
"90 -45 OFFCURVE",
"103 -38 OFFCURVE",
"111 -27 CURVE SMOOTH",
"175 55 LINE",
"875 55 LINE",
"939 -27 LINE SMOOTH",
"947 -38 OFFCURVE",
"960 -45 OFFCURVE",
"975 -45 CURVE SMOOTH",
"1000 -45 OFFCURVE",
"1020 -25 OFFCURVE",
"1020 0 CURVE SMOOTH",
"1020 11 OFFCURVE",
"1016 20 OFFCURVE",
"1010 28 CURVE",
"621 527 LINE SMOOTH",
"613 538 OFFCURVE",
"600 545 OFFCURVE",
"585 545 CURVE SMOOTH",
"465 545 LINE SMOOTH",
"450 545 OFFCURVE",
"437 538 OFFCURVE",
"429 527 CURVE SMOOTH",
"40 28 LINE",
"34 20 OFFCURVE",
"30 11 OFFCURVE",
"30 0 CURVE SMOOTH"
);
},
{
closed = 1;
nodes = (
"487 455 LINE",
"563 455 LINE",
"805 145 LINE",
"245 145 LINE"
);
}
);
width = 1050;
},
{
associatedMasterId = "ADA7F6FF-5955-4EF3-8FA7-BADC10F8EE4C";
layerId = "932B730E-A3F4-4668-B809-FC65140D5B08";
name = path;
paths = (
{
closed = 0;
nodes = (
"75 0 LINE",
"465 500 LINE",
"585 500 LINE",
"975 0 LINE"
);
},
{
closed = 0;
nodes = (
"153 100 LINE",
"897 100 LINE"
);
}
);
visible = 1;
width = 1050;
},
{
guideLines = (
{
position = "{960, 5}";
}
);
layerId = "89EE149F-7564-47C9-BE54-DE0A35C75344";
paths = (
{
closed = 1;
nodes = (
"30 -8 OFFCURVE",
"37 -15 OFFCURVE",
"45 -15 CURVE SMOOTH",
"50 -15 OFFCURVE",
"54 -13 OFFCURVE",
"57 -9 CURVE SMOOTH",
"130 85 LINE",
"860 85 LINE",
"933 -9 LINE SMOOTH",
"936 -13 OFFCURVE",
"940 -15 OFFCURVE",
"945 -15 CURVE SMOOTH",
"953 -15 OFFCURVE",
"960 -8 OFFCURVE",
"960 0 CURVE SMOOTH",
"960 2 OFFCURVE",
"960 5 OFFCURVE",
"957 9 CURVE",
"567 509 LINE SMOOTH",
"564 513 OFFCURVE",
"560 515 OFFCURVE",
"555 515 CURVE SMOOTH",
"435 515 LINE SMOOTH",
"430 515 OFFCURVE",
"426 513 OFFCURVE",
"423 509 CURVE SMOOTH",
"33 9 LINE",
"30 5 OFFCURVE",
"30 2 OFFCURVE",
"30 0 CURVE SMOOTH"
);
},
{
closed = 1;
nodes = (
"442 485 LINE",
"548 485 LINE",
"836 115 LINE",
"154 115 LINE"
);
}
);
width = 990;
},
{
layerId = "BA964981-AC0A-4481-A535-297F9E9B05B4";
paths = (
{
closed = 1;
nodes = (
"30 -41 OFFCURVE",
"64 -75 OFFCURVE",
"105 -75 CURVE SMOOTH",
"129 -75 OFFCURVE",
"151 -63 OFFCURVE",
"165 -46 CURVE SMOOTH",
"220 25 LINE",
"890 25 LINE",
"945 -46 LINE SMOOTH",
"959 -63 OFFCURVE",
"981 -75 OFFCURVE",
"1005 -75 CURVE SMOOTH",
"1046 -75 OFFCURVE",
"1080 -41 OFFCURVE",
"1080 0 CURVE SMOOTH",
"1080 18 OFFCURVE",
"1074 34 OFFCURVE",
"1064 47 CURVE",
"675 546 LINE SMOOTH",
"661 563 OFFCURVE",
"639 575 OFFCURVE",
"615 575 CURVE SMOOTH",
"495 575 LINE SMOOTH",
"471 575 OFFCURVE",
"449 563 OFFCURVE",
"435 546 CURVE SMOOTH",
"46 47 LINE",
"36 34 OFFCURVE",
"30 18 OFFCURVE",
"30 0 CURVE SMOOTH"
);
},
{
closed = 1;
nodes = (
"532 425 LINE",
"578 425 LINE",
"773 175 LINE",
"337 175 LINE"
);
}
);
width = 1110;
}
);
unicode = 0041;
},
{
color = 10;
glyphname = AE;
lastChange = "2019-01-22 14:04:59 +0000";
layers = (
{
layerId = "ADA7F6FF-5955-4EF3-8FA7-BADC10F8EE4C";
paths = (
{
closed = 1;
nodes = (
"30 -25 OFFCURVE",
"50 -45 OFFCURVE",
"75 -45 CURVE SMOOTH",
"90 -45 OFFCURVE",
"103 -38 OFFCURVE",
"111 -26 CURVE",
"171 55 LINE",
"480 55 LINE",
"480 0 LINE SMOOTH",
"480 -25 OFFCURVE",
"500 -45 OFFCURVE",
"525 -45 CURVE SMOOTH",
"975 -45 LINE SMOOTH",
"1000 -45 OFFCURVE",
"1020 -25 OFFCURVE",
"1020 0 CURVE SMOOTH",
"1020 25 OFFCURVE",
"1000 45 OFFCURVE",
"975 45 CURVE SMOOTH",
"570 45 LINE",
"570 205 LINE",
"975 205 LINE SMOOTH",
"1000 205 OFFCURVE",
"1020 225 OFFCURVE",
"1020 250 CURVE SMOOTH",
"1020 275 OFFCURVE",
"1000 295 OFFCURVE",
"975 295 CURVE SMOOTH",
"570 295 LINE",
"570 455 LINE",
"975 455 LINE SMOOTH",
"1000 455 OFFCURVE",
"1020 475 OFFCURVE",
"1020 500 CURVE SMOOTH",
"1020 525 OFFCURVE",
"1000 545 OFFCURVE",
"975 545 CURVE SMOOTH",
"445 545 LINE SMOOTH",
"430 545 OFFCURVE",
"417 538 OFFCURVE",
"409 526 CURVE",
"39 27 LINE",
"33 20 OFFCURVE",
"30 10 OFFCURVE",
"30 0 CURVE SMOOTH"
);
},
{
closed = 1;
nodes = (
"468 455 LINE",
"480 455 LINE",
"480 145 LINE",
"238 145 LINE"
);
}
);
width = 1050;
},
{
layerId = "89EE149F-7564-47C9-BE54-DE0A35C75344";
paths = (
{
closed = 1;
nodes = (
"30 -8 OFFCURVE",
"37 -15 OFFCURVE",
"45 -15 CURVE SMOOTH",
"50 -15 OFFCURVE",
"54 -13 OFFCURVE",
"57 -9 CURVE SMOOTH",
"127 85 LINE",
"480 85 LINE",
"480 0 LINE SMOOTH",
"480 -8 OFFCURVE",
"487 -15 OFFCURVE",
"495 -15 CURVE SMOOTH",
"945 -15 LINE SMOOTH",
"953 -15 OFFCURVE",
"960 -8 OFFCURVE",
"960 0 CURVE SMOOTH",
"960 8 OFFCURVE",
"953 15 OFFCURVE",
"945 15 CURVE SMOOTH",
"510 15 LINE",
"510 235 LINE",
"945 235 LINE SMOOTH",
"953 235 OFFCURVE",
"960 242 OFFCURVE",
"960 250 CURVE SMOOTH",
"960 258 OFFCURVE",
"953 265 OFFCURVE",
"945 265 CURVE SMOOTH",
"510 265 LINE",
"510 485 LINE",
"945 485 LINE SMOOTH",
"953 485 OFFCURVE",
"960 492 OFFCURVE",
"960 500 CURVE SMOOTH",
"960 508 OFFCURVE",
"953 515 OFFCURVE",
"945 515 CURVE SMOOTH",
"415 515 LINE SMOOTH",
"410 515 OFFCURVE",
"406 513 OFFCURVE",
"403 509 CURVE SMOOTH",
"33 9 LINE",
"31 6 OFFCURVE",
"30 3 OFFCURVE",
"30 0 CURVE SMOOTH"
);
},
{
closed = 1;
nodes = (
"423 485 LINE",
"480 485 LINE",
"480 115 LINE",
"149 115 LINE"
);
}
);
width = 990;
},
{
layerId = "BA964981-AC0A-4481-A535-297F9E9B05B4";
paths = (
{
closed = 1;
nodes = (
"30 -41 OFFCURVE",
"64 -75 OFFCURVE",
"105 -75 CURVE SMOOTH",
"130 -75 OFFCURVE",
"152 -63 OFFCURVE",
"166 -44 CURVE SMOOTH",
"217 25 LINE",
"480 25 LINE",
"480 0 LINE SMOOTH",
"480 -41 OFFCURVE",
"514 -75 OFFCURVE",
"555 -75 CURVE SMOOTH",
"1005 -75 LINE SMOOTH",
"1046 -75 OFFCURVE",
"1080 -41 OFFCURVE",
"1080 0 CURVE SMOOTH",
"1080 41 OFFCURVE",
"1046 75 OFFCURVE",
"1005 75 CURVE SMOOTH",
"630 75 LINE",
"630 175 LINE",
"1005 175 LINE SMOOTH",
"1061 175 OFFCURVE",
"1080 214 OFFCURVE",
"1080 250 CURVE SMOOTH",
"1080 291 OFFCURVE",
"1046 325 OFFCURVE",
"1005 325 CURVE SMOOTH",
"630 325 LINE",
"630 425 LINE",
"1005 425 LINE SMOOTH",
"1046 425 OFFCURVE",
"1080 459 OFFCURVE",
"1080 500 CURVE SMOOTH",
"1080 541 OFFCURVE",
"1046 575 OFFCURVE",
"1005 575 CURVE SMOOTH",
"475 575 LINE SMOOTH",
"450 575 OFFCURVE",
"428 563 OFFCURVE",
"414 544 CURVE SMOOTH",
"45 45 LINE SMOOTH",
"36 33 OFFCURVE",
"30 17 OFFCURVE",
"30 0 CURVE SMOOTH"
);
},
{
closed = 1;
nodes = (
"480 380 LINE",
"480 379 LINE",
"480 175 LINE",
"328 175 LINE"
);
}
);
width = 1110;
},
{
associatedMasterId = "ADA7F6FF-5955-4EF3-8FA7-BADC10F8EE4C";
layerId = "EAB11028-FE95-4805-B850-AB707480930A";
name = path;
paths = (
{
closed = 0;
nodes = (
"75 0 LINE",
"445 500 LINE",
"525 500 LINE"
);
},
{
closed = 0;
nodes = (
"149 100 LINE",
"525 100 LINE"
);
},
{
closed = 0;
nodes = (
"975 0 LINE",
"525 0 LINE",
"525 500 LINE",
"975 500 LINE"
);
},
{
closed = 0;
nodes = (
"525 250 LINE",
"975 250 LINE"
);
}
);
visible = 1;
width = 1050;
}
);
unicode = 00C6;
},
{
color = 10;
glyphname = B;
lastChange = "2019-01-22 14:04:59 +0000";
layers = (
{
layerId = "ADA7F6FF-5955-4EF3-8FA7-BADC10F8EE4C";
paths = (
{
closed = 1;
nodes = (
"120 205 LINE",
"850 205 LINE SMOOTH",
"896.905 205 OFFCURVE",
"930 170.213 OFFCURVE",
"930 124 CURVE SMOOTH",
"930 45 LINE",
"120 45 LINE"
);
},
{
closed = 1;
nodes = (
"120 455 LINE",
"725 455 LINE SMOOTH",
"776.962 455 OFFCURVE",
"805 426.962 OFFCURVE",
"805 375 CURVE SMOOTH",
"805 295 LINE",
"120 295 LINE"
);
},
{
closed = 1;
nodes = (
"50 545 OFFCURVE",
"30 525 OFFCURVE",
"30 500 CURVE SMOOTH",
"30 0 LINE SMOOTH",
"30 -25 OFFCURVE",
"50 -45 OFFCURVE",
"75 -45 CURVE SMOOTH",
"975 -45 LINE SMOOTH",
"1000 -45 OFFCURVE",
"1020 -25 OFFCURVE",
"1020 0 CURVE SMOOTH",
"1020 124 LINE SMOOTH",
"1020 204 OFFCURVE",
"968 270 OFFCURVE",
"895 289 CURVE",
"895 375 LINE SMOOTH",
"895 477 OFFCURVE",
"827 545 OFFCURVE",
"725 545 CURVE SMOOTH",
"75 545 LINE SMOOTH"
);
}
);
width = 1050;
},
{
associatedMasterId = "ADA7F6FF-5955-4EF3-8FA7-BADC10F8EE4C";
layerId = "6A636452-B9E3-4AE7-BF5A-33C540C4DD90";
name = path;
paths = (
{
closed = 1;
nodes = (
"940 250 OFFCURVE",
"975 174 OFFCURVE",
"975 124 CURVE",
"975 0 LINE",
"75 0 LINE",
"75 500 LINE",
"725 500 LINE",
"805 500 OFFCURVE",
"850 449 OFFCURVE",
"850 375 CURVE SMOOTH",
"850 250 LINE"
);
},
{
closed = 0;
nodes = (
"75 250 LINE",
"850 250 LINE"
);
}
);
visible = 1;
width = 1050;
},
{
layerId = "89EE149F-7564-47C9-BE54-DE0A35C75344";
paths = (
{
closed = 1;
nodes = (
"60 235 LINE",
"820 235 LINE SMOOTH",
"883 235 OFFCURVE",
"930 187 OFFCURVE",
"930 124 CURVE SMOOTH",
"930 15 LINE",
"60 15 LINE"
);
},
{
closed = 1;
nodes = (
"60 485 LINE",
"695 485 LINE SMOOTH",
"764 485 OFFCURVE",
"805 444 OFFCURVE",
"805 375 CURVE SMOOTH",
"805 265 LINE",
"60 265 LINE"
);
},
{
closed = 1;
nodes = (
"37 515 OFFCURVE",
"30 508 OFFCURVE",
"30 500 CURVE SMOOTH",
"30 0 LINE SMOOTH",
"30 -8 OFFCURVE",
"37 -15 OFFCURVE",
"45 -15 CURVE SMOOTH",
"945 -15 LINE SMOOTH",
"953 -15 OFFCURVE",
"960 -8 OFFCURVE",
"960 0 CURVE SMOOTH",
"960 124 LINE SMOOTH",
"960 198 OFFCURVE",
"907 257 OFFCURVE",
"835 264 CURVE",
"835 375 LINE SMOOTH",
"835 460 OFFCURVE",
"780 515 OFFCURVE",
"695 515 CURVE SMOOTH",
"45 515 LINE SMOOTH"
);
}
);
width = 990;
},
{
layerId = "BA964981-AC0A-4481-A535-297F9E9B05B4";
paths = (
{
closed = 1;
nodes = (
"180 175 LINE",
"880 175 LINE SMOOTH",
"910 175 OFFCURVE",
"930 153 OFFCURVE",
"930 124 CURVE SMOOTH",
"930 75 LINE",
"180 75 LINE"
);
},
{
closed = 1;
nodes = (
"180 425 LINE",
"755 425 LINE SMOOTH",
"790 425 OFFCURVE",
"805 410 OFFCURVE",
"805 375 CURVE SMOOTH",
"805 325 LINE",
"180 325 LINE"
);
},
{
closed = 1;
nodes = (
"64 575 OFFCURVE",
"30 541 OFFCURVE",
"30 500 CURVE SMOOTH",
"30 0 LINE SMOOTH",
"30 -41 OFFCURVE",
"64 -75 OFFCURVE",
"105 -75 CURVE SMOOTH",
"1005 -75 LINE SMOOTH",
"1046 -75 OFFCURVE",
"1080 -41 OFFCURVE",
"1080 0 CURVE SMOOTH",
"1080 124 LINE SMOOTH",
"1080 210 OFFCURVE",
"1029 282 OFFCURVE",
"955 311 CURVE",
"955 375 LINE SMOOTH",
"955 493 OFFCURVE",
"873 575 OFFCURVE",
"755 575 CURVE SMOOTH",
"105 575 LINE SMOOTH"
);
}
);
width = 1110;
}
);
unicode = 0042;
},
{
color = 10;
glyphname = C;
lastChange = "2019-01-22 14:04:59 +0000";
layers = (
{
layerId = "ADA7F6FF-5955-4EF3-8FA7-BADC10F8EE4C";
paths = (
{
closed = 1;
nodes = (
"50 545 OFFCURVE",
"30 525 OFFCURVE",
"30 500 CURVE SMOOTH",
"30 0 LINE SMOOTH",
"30 -25 OFFCURVE",
"50 -45 OFFCURVE",
"75 -45 CURVE SMOOTH",
"975 -45 LINE SMOOTH",
"1000 -45 OFFCURVE",
"1020 -25 OFFCURVE",
"1020 0 CURVE SMOOTH",
"1020 25 OFFCURVE",
"1000 45 OFFCURVE",
"975 45 CURVE SMOOTH",
"120 45 LINE",
"120 455 LINE",
"975 455 LINE SMOOTH",
"1000 455 OFFCURVE",
"1020 475 OFFCURVE",
"1020 500 CURVE SMOOTH",
"1020 525 OFFCURVE",
"1000 545 OFFCURVE",
"975 545 CURVE SMOOTH",
"75 545 LINE SMOOTH"
);
}
);
width = 1050;
},
{
associatedMasterId = "ADA7F6FF-5955-4EF3-8FA7-BADC10F8EE4C";
layerId = "332286D3-EEB6-4991-B7F5-D635A3454B82";
name = path;
paths = (
{
closed = 0;
nodes = (
"975 500 LINE",
"75 500 LINE",
"75 0 LINE",
"975 0 LINE"
);
}
);
visible = 1;
width = 1050;
},
{
layerId = "89EE149F-7564-47C9-BE54-DE0A35C75344";
paths = (
{
closed = 1;
nodes = (
"37 515 OFFCURVE",
"30 508 OFFCURVE",
"30 500 CURVE SMOOTH",
"30 0 LINE SMOOTH",
"30 -8 OFFCURVE",
"37 -15 OFFCURVE",
"45 -15 CURVE SMOOTH",
"945 -15 LINE SMOOTH",
"953 -15 OFFCURVE",
"960 -8 OFFCURVE",
"960 0 CURVE SMOOTH",
"960 8 OFFCURVE",
"953 15 OFFCURVE",
"945 15 CURVE SMOOTH",
"60 15 LINE",
"60 485 LINE",
"945 485 LINE SMOOTH",
"953 485 OFFCURVE",
"960 492 OFFCURVE",
"960 500 CURVE SMOOTH",
"960 508 OFFCURVE",
"953 515 OFFCURVE",
"945 515 CURVE SMOOTH",
"45 515 LINE SMOOTH"
);
}
);
width = 990;
},
{
layerId = "BA964981-AC0A-4481-A535-297F9E9B05B4";
paths = (
{
closed = 1;
nodes = (
"64 575 OFFCURVE",
"30 541 OFFCURVE",
"30 500 CURVE SMOOTH",
"30 0 LINE SMOOTH",
"30 -41 OFFCURVE",
"64 -75 OFFCURVE",
"105 -75 CURVE SMOOTH",
"1005 -75 LINE SMOOTH",
"1046 -75 OFFCURVE",
"1080 -41 OFFCURVE",
"1080 0 CURVE SMOOTH",
"1080 41 OFFCURVE",
"1046 75 OFFCURVE",
"1005 75 CURVE SMOOTH",
"180 75 LINE",
"180 425 LINE",
"1005 425 LINE SMOOTH",
"1046 425 OFFCURVE",
"1080 459 OFFCURVE",
"1080 500 CURVE SMOOTH",
"1080 541 OFFCURVE",
"1046 575 OFFCURVE",
"1005 575 CURVE SMOOTH",
"105 575 LINE SMOOTH"
);
}
);
width = 1110;
}
);
unicode = 0043;
},
{
color = 10;
glyphname = D;
lastChange = "2019-01-22 14:04:59 +0000";
layers = (
{
layerId = "ADA7F6FF-5955-4EF3-8FA7-BADC10F8EE4C";
paths = (
{
closed = 1;
nodes = (
"120 455 LINE",
"850 455 LINE SMOOTH",
"899 455 OFFCURVE",
"930 424 OFFCURVE",
"930 375 CURVE SMOOTH",
"930 125 LINE SMOOTH",
"930 76 OFFCURVE",
"899 45 OFFCURVE",
"849 45 CURVE SMOOTH",
"120 45 LINE"
);
},
{
closed = 1;
nodes = (
"30 -25 OFFCURVE",
"50 -45 OFFCURVE",
"75 -45 CURVE SMOOTH",
"849 -45 LINE SMOOTH",
"949 -45 OFFCURVE",
"1020 26 OFFCURVE",
"1020 125 CURVE SMOOTH",
"1020 375 LINE SMOOTH",
"1020 474 OFFCURVE",
"949 545 OFFCURVE",
"850 545 CURVE SMOOTH",
"75 545 LINE SMOOTH",
"50 545 OFFCURVE",
"30 525 OFFCURVE",
"30 500 CURVE SMOOTH",
"30 0 LINE SMOOTH"
);
}
);
width = 1050;
},
{
associatedMasterId = "ADA7F6FF-5955-4EF3-8FA7-BADC10F8EE4C";
layerId = "734C611A-A2FD-4BE2-AA51-94AF210CDA5D";
name = path;
paths = (
{
closed = 1;
nodes = (
"75 0 LINE",
"849 0 LINE",
"919 0 OFFCURVE",
"975 46 OFFCURVE",
"975 125 CURVE",
"975 375 LINE",
"975 453 OFFCURVE",
"920 500 OFFCURVE",
"850 500 CURVE",
"75 500 LINE"
);
}
);
visible = 1;
width = 1050;
},
{
layerId = "89EE149F-7564-47C9-BE54-DE0A35C75344";
paths = (
{
closed = 1;
nodes = (
"60 485 LINE",
"820 485 LINE SMOOTH",
"886 485 OFFCURVE",
"930 441 OFFCURVE",
"930 375 CURVE SMOOTH",
"930 125 LINE SMOOTH",
"930 59 OFFCURVE",
"886 15 OFFCURVE",
"819 15 CURVE SMOOTH",
"60 15 LINE"
);
},
{
closed = 1;
nodes = (
"37 515 OFFCURVE",
"30 508 OFFCURVE",
"30 500 CURVE SMOOTH",
"30 0 LINE SMOOTH",
"30 -8 OFFCURVE",
"37 -15 OFFCURVE",
"45 -15 CURVE SMOOTH",
"819 -15 LINE SMOOTH",
"902 -15 OFFCURVE",
"960 42 OFFCURVE",
"960 125 CURVE SMOOTH",
"960 375 LINE SMOOTH",
"960 457 OFFCURVE",
"902 515 OFFCURVE",
"820 515 CURVE SMOOTH",
"45 515 LINE SMOOTH"
);
}
);
width = 990;
},
{
layerId = "BA964981-AC0A-4481-A535-297F9E9B05B4";
paths = (
{
closed = 1;
nodes = (
"180 425 LINE",
"880 425 LINE SMOOTH",
"912 425 OFFCURVE",
"930 407 OFFCURVE",
"930 375 CURVE SMOOTH",
"930 125 LINE SMOOTH",
"930 92 OFFCURVE",
"912 75 OFFCURVE",
"879 75 CURVE SMOOTH",
"180 75 LINE"
);
},
{
closed = 1;
nodes = (
"30 -41 OFFCURVE",
"64 -75 OFFCURVE",
"105 -75 CURVE SMOOTH",
"879 -75 LINE SMOOTH",
"995 -75 OFFCURVE",
"1080 9 OFFCURVE",
"1080 125 CURVE SMOOTH",
"1080 375 LINE SMOOTH",
"1080 491 OFFCURVE",
"996 575 OFFCURVE",
"880 575 CURVE SMOOTH",
"105 575 LINE SMOOTH",
"64 575 OFFCURVE",
"30 541 OFFCURVE",
"30 500 CURVE SMOOTH",
"30 0 LINE SMOOTH"
);
}
);
width = 1110;
}
);
unicode = 0044;
},
{
color = 10;
glyphname = Eth;
lastChange = "2019-01-22 14:04:59 +0000";
layers = (
{
layerId = "ADA7F6FF-5955-4EF3-8FA7-BADC10F8EE4C";
paths = (
{
closed = 1;
nodes = (
"850 455 LINE SMOOTH",
"899 455 OFFCURVE",
"930 424 OFFCURVE",
"930 375 CURVE SMOOTH",
"930 125 LINE SMOOTH",
"930 76 OFFCURVE",
"899 45 OFFCURVE",
"849 45 CURVE SMOOTH",
"256 45 LINE",
"256 205 LINE",
"556 205 LINE SMOOTH",
"581 205 OFFCURVE",
"601 225 OFFCURVE",
"601 250 CURVE SMOOTH",
"601 275 OFFCURVE",
"581 295 OFFCURVE",
"556 295 CURVE SMOOTH",
"256 295 LINE",
"256 455 LINE"
);
},
{
closed = 1;
nodes = (
"186 545 OFFCURVE",
"166 525 OFFCURVE",
"166 500 CURVE SMOOTH",
"166 295 LINE",
"75 295 LINE SMOOTH",
"50 295 OFFCURVE",
"30 275 OFFCURVE",
"30 250 CURVE SMOOTH",
"30 225 OFFCURVE",
"50 205 OFFCURVE",
"75 205 CURVE SMOOTH",
"166 205 LINE",
"166 0 LINE SMOOTH",
"166 -25 OFFCURVE",
"186 -45 OFFCURVE",
"211 -45 CURVE SMOOTH",
"849 -45 LINE SMOOTH",
"949 -45 OFFCURVE",
"1020 26 OFFCURVE",
"1020 125 CURVE SMOOTH",
"1020 375 LINE SMOOTH",
"1020 474 OFFCURVE",
"949 545 OFFCURVE",
"850 545 CURVE SMOOTH",
"211 545 LINE SMOOTH"
);
}
);
width = 1050;
},
{
associatedMasterId = "ADA7F6FF-5955-4EF3-8FA7-BADC10F8EE4C";
layerId = "CD1D2322-5813-4EDC-8F49-D198E5F7C903";
name = path;
paths = (
{
closed = 1;
nodes = (
"211 0 LINE",
"849 0 LINE",
"919 0 OFFCURVE",
"975 46 OFFCURVE",
"975 125 CURVE",
"975 375 LINE",
"975 453 OFFCURVE",
"920 500 OFFCURVE",
"850 500 CURVE",
"211 500 LINE"
);
},
{
closed = 0;
nodes = (
"556 250 LINE",
"75 250 LINE"
);
}
);
visible = 1;
width = 1050;
},
{
layerId = "89EE149F-7564-47C9-BE54-DE0A35C75344";
paths = (
{
closed = 1;
nodes = (
"820 485 LINE SMOOTH",
"886 485 OFFCURVE",
"930 441 OFFCURVE",
"930 375 CURVE SMOOTH",
"930 125 LINE SMOOTH",
"930 59 OFFCURVE",
"886 15 OFFCURVE",
"819 15 CURVE SMOOTH",
"196 15 LINE",
"196 235 LINE",
"526 235 LINE SMOOTH",
"534 235 OFFCURVE",
"541 242 OFFCURVE",
"541 250 CURVE SMOOTH",
"541 258 OFFCURVE",
"534 265 OFFCURVE",
"526 265 CURVE SMOOTH",
"196 265 LINE",
"196 485 LINE"
);
},
{
closed = 1;
nodes = (
"173 515 OFFCURVE",
"166 508 OFFCURVE",
"166 500 CURVE SMOOTH",
"166 265 LINE",
"45 265 LINE SMOOTH",
"37 265 OFFCURVE",
"30 258 OFFCURVE",
"30 250 CURVE SMOOTH",
"30 242 OFFCURVE",
"37 235 OFFCURVE",
"45 235 CURVE SMOOTH",
"166 235 LINE",
"166 0 LINE SMOOTH",
"166 -8 OFFCURVE",
"173 -15 OFFCURVE",
"181 -15 CURVE SMOOTH",
"819 -15 LINE SMOOTH",
"902 -15 OFFCURVE",
"960 42 OFFCURVE",
"960 125 CURVE SMOOTH",
"960 375 LINE SMOOTH",
"960 457 OFFCURVE",
"902 515 OFFCURVE",
"820 515 CURVE SMOOTH",
"181 515 LINE SMOOTH"
);
}
);
width = 990;
},
{
layerId = "BA964981-AC0A-4481-A535-297F9E9B05B4";
paths = (
{
closed = 1;
nodes = (
"880 425 LINE SMOOTH",
"912 425 OFFCURVE",
"930 407 OFFCURVE",
"930 375 CURVE SMOOTH",
"930 125 LINE SMOOTH",
"930 92 OFFCURVE",
"912 75 OFFCURVE",
"879 75 CURVE SMOOTH",
"316 75 LINE",
"316 175 LINE",
"586 175 LINE SMOOTH",
"627 175 OFFCURVE",
"661 209 OFFCURVE",
"661 250 CURVE SMOOTH",
"661 291 OFFCURVE",
"627 325 OFFCURVE",
"586 325 CURVE SMOOTH",
"316 325 LINE",
"316 425 LINE"
);
},
{
closed = 1;
nodes = (
"200 575 OFFCURVE",
"166 541 OFFCURVE",
"166 500 CURVE SMOOTH",
"166 325 LINE",
"105 325 LINE SMOOTH",
"64 325 OFFCURVE",
"30 291 OFFCURVE",
"30 250 CURVE SMOOTH",
"30 209 OFFCURVE",
"64 175 OFFCURVE",
"105 175 CURVE SMOOTH",
"166 175 LINE",
"166 0 LINE SMOOTH",
"166 -41 OFFCURVE",
"200 -75 OFFCURVE",
"241 -75 CURVE SMOOTH",
"879 -75 LINE SMOOTH",
"995 -75 OFFCURVE",
"1080 9 OFFCURVE",
"1080 125 CURVE SMOOTH",
"1080 375 LINE SMOOTH",
"1080 491 OFFCURVE",
"996 575 OFFCURVE",
"880 575 CURVE SMOOTH",
"241 575 LINE SMOOTH"
);
}
);
width = 1110;
}
);
unicode = 00D0;
},
{
color = 10;
glyphname = E;
lastChange = "2019-01-22 14:04:59 +0000";
layers = (
{
layerId = "ADA7F6FF-5955-4EF3-8FA7-BADC10F8EE4C";
paths = (
{
closed = 1;
nodes = (
"50 545 OFFCURVE",
"30 525 OFFCURVE",
"30 500 CURVE SMOOTH",
"30 0 LINE SMOOTH",
"30 -25 OFFCURVE",
"50 -45 OFFCURVE",
"75 -45 CURVE SMOOTH",
"975 -45 LINE SMOOTH",
"1000 -45 OFFCURVE",
"1020 -25 OFFCURVE",
"1020 0 CURVE SMOOTH",
"1020 25 OFFCURVE",
"1000 45 OFFCURVE",
"975 45 CURVE SMOOTH",
"120 45 LINE",
"120 205 LINE",
"975 205 LINE SMOOTH",
"1000 205 OFFCURVE",
"1020 225 OFFCURVE",
"1020 250 CURVE SMOOTH",
"1020 275 OFFCURVE",
"1000 295 OFFCURVE",
"975 295 CURVE SMOOTH",
"120 295 LINE",
"120 455 LINE",
"975 455 LINE SMOOTH",
"1000 455 OFFCURVE",
"1020 475 OFFCURVE",
"1020 500 CURVE SMOOTH",
"1020 525 OFFCURVE",
"1000 545 OFFCURVE",
"975 545 CURVE SMOOTH",
"75 545 LINE SMOOTH"
);
}
);
width = 1050;
},
{
associatedMasterId = "ADA7F6FF-5955-4EF3-8FA7-BADC10F8EE4C";
layerId = "AA2E2A66-64FD-437E-8DDD-DB419572DEA2";
name = path;
paths = (
{
closed = 0;
nodes = (
"975 500 LINE",
"75 500 LINE",
"75 0 LINE",
"975 0 LINE"
);
},
{
closed = 0;
nodes = (
"75 250 LINE",
"975 250 LINE"
);
}
);
visible = 1;
width = 1050;
},
{
layerId = "89EE149F-7564-47C9-BE54-DE0A35C75344";
paths = (
{
closed = 1;
nodes = (
"37 515 OFFCURVE",
"30 508 OFFCURVE",
"30 500 CURVE SMOOTH",
"30 0 LINE SMOOTH",
"30 -8 OFFCURVE",
"37 -15 OFFCURVE",
"45 -15 CURVE SMOOTH",
"945 -15 LINE SMOOTH",
"953 -15 OFFCURVE",
"960 -8 OFFCURVE",
"960 0 CURVE SMOOTH",
"960 8 OFFCURVE",
"953 15 OFFCURVE",
"945 15 CURVE SMOOTH",
"60 15 LINE",
"60 235 LINE",
"945 235 LINE SMOOTH",
"953 235 OFFCURVE",
"960 242 OFFCURVE",
"960 250 CURVE SMOOTH",
"960 258 OFFCURVE",
"953 265 OFFCURVE",
"945 265 CURVE SMOOTH",
"60 265 LINE",
"60 485 LINE",
"945 485 LINE SMOOTH",
"953 485 OFFCURVE",
"960 492 OFFCURVE",
"960 500 CURVE SMOOTH",
"960 508 OFFCURVE",
"953 515 OFFCURVE",
"945 515 CURVE SMOOTH",
"45 515 LINE SMOOTH"
);
}
);
width = 990;
},
{
layerId = "BA964981-AC0A-4481-A535-297F9E9B05B4";
paths = (
{
closed = 1;
nodes = (
"64 575 OFFCURVE",
"30 541 OFFCURVE",
"30 500 CURVE SMOOTH",
"30 0 LINE SMOOTH",
"30 -41 OFFCURVE",
"64 -75 OFFCURVE",
"105 -75 CURVE SMOOTH",
"1005 -75 LINE SMOOTH",
"1046 -75 OFFCURVE",
"1080 -41 OFFCURVE",
"1080 0 CURVE SMOOTH",
"1080 41 OFFCURVE",
"1046 75 OFFCURVE",
"1005 75 CURVE SMOOTH",
"180 75 LINE",
"180 175 LINE",
"1005 175 LINE SMOOTH",
"1046 175 OFFCURVE",
"1080 209 OFFCURVE",
"1080 250 CURVE SMOOTH",
"1080 291 OFFCURVE",
"1046 325 OFFCURVE",
"1005 325 CURVE SMOOTH",
"180 325 LINE",
"180 425 LINE",
"1005 425 LINE SMOOTH",
"1046 425 OFFCURVE",
"1080 459 OFFCURVE",
"1080 500 CURVE SMOOTH",
"1080 541 OFFCURVE",
"1046 575 OFFCURVE",
"1005 575 CURVE SMOOTH",
"105 575 LINE SMOOTH"
);
}
);
width = 1110;
}
);
unicode = 0045;
},
{
color = 10;
glyphname = F;
lastChange = "2019-01-22 14:04:59 +0000";
layers = (
{
layerId = "ADA7F6FF-5955-4EF3-8FA7-BADC10F8EE4C";
paths = (
{
closed = 1;
nodes = (
"50 545 OFFCURVE",
"30 525 OFFCURVE",
"30 500 CURVE SMOOTH",
"30 0 LINE SMOOTH",
"30 -25 OFFCURVE",
"50 -45 OFFCURVE",
"75 -45 CURVE SMOOTH",
"100 -45 OFFCURVE",
"120 -25 OFFCURVE",
"120 0 CURVE SMOOTH",
"120 205 LINE",
"975 205 LINE SMOOTH",
"1000 205 OFFCURVE",
"1020 225 OFFCURVE",
"1020 250 CURVE SMOOTH",
"1020 275 OFFCURVE",
"1000 295 OFFCURVE",
"975 295 CURVE SMOOTH",
"120 295 LINE",
"120 455 LINE",
"975 455 LINE SMOOTH",
"1000 455 OFFCURVE",
"1020 475 OFFCURVE",
"1020 500 CURVE SMOOTH",
"1020 525 OFFCURVE",
"1000 545 OFFCURVE",
"975 545 CURVE SMOOTH",
"75 545 LINE SMOOTH"
);
}
);
width = 1050;
},
{
associatedMasterId = "ADA7F6FF-5955-4EF3-8FA7-BADC10F8EE4C";
layerId = "427ECFA4-C9B0-48A6-B163-E606606A64B9";
name = path;
paths = (
{
closed = 0;
nodes = (
"75 0 LINE",
"75 500 LINE",
"975 500 LINE"
);
},
{
closed = 0;
nodes = (
"75 250 LINE",
"975 250 LINE"
);
}
);
visible = 1;
width = 1050;
},
{
layerId = "89EE149F-7564-47C9-BE54-DE0A35C75344";
paths = (
{
closed = 1;
nodes = (
"37 515 OFFCURVE",
"30 508 OFFCURVE",
"30 500 CURVE SMOOTH",
"30 0 LINE SMOOTH",
"30 -8 OFFCURVE",
"37 -15 OFFCURVE",
"45 -15 CURVE SMOOTH",
"53 -15 OFFCURVE",
"60 -8 OFFCURVE",
"60 0 CURVE SMOOTH",
"60 235 LINE",
"945 235 LINE SMOOTH",
"953 235 OFFCURVE",
"960 242 OFFCURVE",
"960 250 CURVE SMOOTH",
"960 258 OFFCURVE",
"953 265 OFFCURVE",
"945 265 CURVE SMOOTH",
"60 265 LINE",
"60 485 LINE",
"945 485 LINE SMOOTH",
"953 485 OFFCURVE",
"960 492 OFFCURVE",
"960 500 CURVE SMOOTH",
"960 508 OFFCURVE",
"953 515 OFFCURVE",
"945 515 CURVE SMOOTH",
"45 515 LINE SMOOTH"
);
}
);
width = 990;
},
{
layerId = "BA964981-AC0A-4481-A535-297F9E9B05B4";
paths = (
{
closed = 1;
nodes = (
"64 575 OFFCURVE",
"30 541 OFFCURVE",
"30 500 CURVE SMOOTH",
"30 0 LINE SMOOTH",
"30 -41 OFFCURVE",
"64 -75 OFFCURVE",
"105 -75 CURVE SMOOTH",
"146 -75 OFFCURVE",
"180 -41 OFFCURVE",
"180 0 CURVE SMOOTH",
"180 175 LINE",
"1005 175 LINE SMOOTH",
"1046 175 OFFCURVE",
"1080 209 OFFCURVE",
"1080 250 CURVE SMOOTH",
"1080 291 OFFCURVE",
"1046 325 OFFCURVE",
"1005 325 CURVE SMOOTH",
"180 325 LINE",
"180 425 LINE",
"1005 425 LINE SMOOTH",
"1046 425 OFFCURVE",
"1080 459 OFFCURVE",
"1080 500 CURVE SMOOTH",
"1080 541 OFFCURVE",
"1046 575 OFFCURVE",
"1005 575 CURVE SMOOTH",
"105 575 LINE SMOOTH"
);
}
);
width = 1110;
}
);
unicode = 0046;
},
{
color = 10;
glyphname = G;
lastChange = "2019-01-22 14:04:59 +0000";
layers = (
{
layerId = "ADA7F6FF-5955-4EF3-8FA7-BADC10F8EE4C";
paths = (
{
closed = 1;
nodes = (
"50 545 OFFCURVE",
"30 525 OFFCURVE",
"30 500 CURVE SMOOTH",
"30 0 LINE SMOOTH",
"30 -25 OFFCURVE",
"50 -45 OFFCURVE",
"75 -45 CURVE SMOOTH",
"975 -45 LINE SMOOTH",
"1000 -45 OFFCURVE",
"1020 -25 OFFCURVE",
"1020 0 CURVE SMOOTH",
"1020 250 LINE SMOOTH",
"1020 275 OFFCURVE",
"1000 295 OFFCURVE",
"975 295 CURVE SMOOTH",
"300 295 LINE SMOOTH",
"275 295 OFFCURVE",
"255 275 OFFCURVE",
"255 250 CURVE SMOOTH",
"255 225 OFFCURVE",
"275 205 OFFCURVE",
"300 205 CURVE SMOOTH",
"930 205 LINE",
"930 45 LINE",
"120 45 LINE",
"120 455 LINE",
"975 455 LINE SMOOTH",
"1000 455 OFFCURVE",
"1020 475 OFFCURVE",
"1020 500 CURVE SMOOTH",
"1020 525 OFFCURVE",
"1000 545 OFFCURVE",
"975 545 CURVE SMOOTH",
"75 545 LINE SMOOTH"
);
}
);
width = 1050;
},
{
associatedMasterId = "ADA7F6FF-5955-4EF3-8FA7-BADC10F8EE4C";
layerId = "256E4E47-26CD-4593-902B-7BF63D1F9F21";
name = path;
paths = (
{
closed = 0;
nodes = (
"975 500 LINE",
"75 500 LINE",
"75 0 LINE",
"975 0 LINE",
"975 250 LINE",
"296 250 LINE"
);
}
);
visible = 1;
width = 1050;
},
{
layerId = "89EE149F-7564-47C9-BE54-DE0A35C75344";
paths = (
{
closed = 1;
nodes = (
"37 515 OFFCURVE",
"30 508 OFFCURVE",
"30 500 CURVE SMOOTH",
"30 0 LINE SMOOTH",
"30 -8 OFFCURVE",
"37 -15 OFFCURVE",
"45 -15 CURVE SMOOTH",
"945 -15 LINE SMOOTH",
"953 -15 OFFCURVE",
"960 -8 OFFCURVE",
"960 0 CURVE SMOOTH",
"960 250 LINE SMOOTH",
"960 258 OFFCURVE",
"953 265 OFFCURVE",
"945 265 CURVE SMOOTH",
"266 265 LINE SMOOTH",
"258 265 OFFCURVE",
"251 258 OFFCURVE",
"251 250 CURVE SMOOTH",
"251 242 OFFCURVE",
"258 235 OFFCURVE",
"266 235 CURVE SMOOTH",
"930 235 LINE",
"930 15 LINE",
"60 15 LINE",
"60 485 LINE",
"945 485 LINE SMOOTH",
"953 485 OFFCURVE",
"960 492 OFFCURVE",
"960 500 CURVE SMOOTH",
"960 508 OFFCURVE",
"953 515 OFFCURVE",
"945 515 CURVE SMOOTH",
"45 515 LINE SMOOTH"
);
}
);
width = 990;
},
{
layerId = "BA964981-AC0A-4481-A535-297F9E9B05B4";
paths = (
{
closed = 1;
nodes = (
"64 575 OFFCURVE",
"30 541 OFFCURVE",
"30 500 CURVE SMOOTH",
"30 0 LINE SMOOTH",
"30 -41 OFFCURVE",
"64 -75 OFFCURVE",
"105 -75 CURVE SMOOTH",
"1005 -75 LINE SMOOTH",
"1046 -75 OFFCURVE",
"1080 -41 OFFCURVE",
"1080 0 CURVE SMOOTH",
"1080 250 LINE SMOOTH",
"1080 291 OFFCURVE",
"1046 325 OFFCURVE",
"1005 325 CURVE SMOOTH",
"326 325 LINE SMOOTH",
"285 325 OFFCURVE",
"251 291 OFFCURVE",
"251 250 CURVE SMOOTH",
"251 209 OFFCURVE",
"285 175 OFFCURVE",
"326 175 CURVE SMOOTH",
"930 175 LINE",
"930 75 LINE",
"180 75 LINE",
"180 425 LINE",
"1005 425 LINE SMOOTH",
"1046 425 OFFCURVE",
"1080 459 OFFCURVE",
"1080 500 CURVE SMOOTH",
"1080 541 OFFCURVE",
"1046 575 OFFCURVE",
"1005 575 CURVE SMOOTH",
"105 575 LINE SMOOTH"
);
}
);
width = 1110;
}
);
unicode = 0047;
},
{
color = 10;
glyphname = H;
lastChange = "2019-01-22 14:04:59 +0000";
layers = (
{
layerId = "ADA7F6FF-5955-4EF3-8FA7-BADC10F8EE4C";
paths = (
{
closed = 1;
nodes = (
"100 -45 OFFCURVE",
"120 -25 OFFCURVE",
"120 0 CURVE SMOOTH",
"120 205 LINE",
"930 205 LINE",
"930 0 LINE SMOOTH",
"930 -25 OFFCURVE",
"950 -45 OFFCURVE",
"975 -45 CURVE SMOOTH",
"1000 -45 OFFCURVE",
"1020 -25 OFFCURVE",
"1020 0 CURVE SMOOTH",
"1020 500 LINE SMOOTH",
"1020 525 OFFCURVE",
"1000 545 OFFCURVE",
"975 545 CURVE SMOOTH",
"950 545 OFFCURVE",
"930 525 OFFCURVE",
"930 500 CURVE SMOOTH",
"930 295 LINE",
"120 295 LINE",
"120 500 LINE SMOOTH",
"120 525 OFFCURVE",
"100 545 OFFCURVE",
"75 545 CURVE SMOOTH",
"50 545 OFFCURVE",
"30 525 OFFCURVE",
"30 500 CURVE SMOOTH",
"30 0 LINE SMOOTH",
"30 -25 OFFCURVE",
"50 -45 OFFCURVE",
"75 -45 CURVE SMOOTH"
);
}
);
width = 1050;
},
{
associatedMasterId = "ADA7F6FF-5955-4EF3-8FA7-BADC10F8EE4C";
layerId = "476FBEA2-CEC8-4C52-87A5-635122290EBE";
name = path;
paths = (
{
closed = 0;
nodes = (
"75 500 LINE",
"75 0 LINE"
);
},
{
closed = 0;
nodes = (
"974 500 LINE",
"974 0 LINE"
);
},
{
closed = 0;
nodes = (
"76 249 LINE",
"975 250 LINE"
);
}
);
visible = 1;
width = 1050;
},
{
layerId = "89EE149F-7564-47C9-BE54-DE0A35C75344";
paths = (
{
closed = 1;
nodes = (
"53 -15 OFFCURVE",
"60 -8 OFFCURVE",
"60 0 CURVE SMOOTH",
"60 234 LINE",
"929 235 LINE",
"929 0 LINE SMOOTH",
"929 -8 OFFCURVE",
"936 -15 OFFCURVE",
"944 -15 CURVE SMOOTH",
"952 -15 OFFCURVE",
"959 -8 OFFCURVE",
"959 0 CURVE SMOOTH",
"959 500 LINE SMOOTH",
"959 508 OFFCURVE",
"952 515 OFFCURVE",
"944 515 CURVE SMOOTH",
"936 515 OFFCURVE",
"929 508 OFFCURVE",
"929 500 CURVE SMOOTH",
"929 265 LINE",
"60 264 LINE",
"60 500 LINE SMOOTH",
"60 508 OFFCURVE",
"53 515 OFFCURVE",
"45 515 CURVE SMOOTH",
"37 515 OFFCURVE",
"30 508 OFFCURVE",
"30 500 CURVE SMOOTH",
"30 0 LINE SMOOTH",
"30 -8 OFFCURVE",
"37 -15 OFFCURVE",
"45 -15 CURVE SMOOTH"
);
}
);
width = 989;
},
{
layerId = "BA964981-AC0A-4481-A535-297F9E9B05B4";
paths = (
{
closed = 1;
nodes = (
"146 -75 OFFCURVE",
"180 -41 OFFCURVE",
"180 0 CURVE SMOOTH",
"180 174 LINE",
"929 175 LINE",
"929 0 LINE SMOOTH",
"929 -41 OFFCURVE",
"963 -75 OFFCURVE",
"1004 -75 CURVE SMOOTH",
"1045 -75 OFFCURVE",
"1079 -41 OFFCURVE",
"1079 0 CURVE SMOOTH",
"1079 500 LINE SMOOTH",
"1079 541 OFFCURVE",
"1045 575 OFFCURVE",
"1004 575 CURVE SMOOTH",
"963 575 OFFCURVE",
"929 541 OFFCURVE",
"929 500 CURVE SMOOTH",
"929 325 LINE",
"180 324 LINE",
"180 500 LINE SMOOTH",
"180 541 OFFCURVE",
"146 575 OFFCURVE",
"105 575 CURVE SMOOTH",
"64 575 OFFCURVE",
"30 541 OFFCURVE",
"30 500 CURVE SMOOTH",
"30 0 LINE SMOOTH",
"30 -41 OFFCURVE",
"64 -75 OFFCURVE",
"105 -75 CURVE SMOOTH"
);
}
);
width = 1109;
}
);
unicode = 0048;
},
{
color = 10;
glyphname = I;
lastChange = "2019-01-22 14:04:59 +0000";
layers = (
{
layerId = "ADA7F6FF-5955-4EF3-8FA7-BADC10F8EE4C";
paths = (
{
closed = 1;
nodes = (
"50 545 OFFCURVE",
"30 525 OFFCURVE",
"30 500 CURVE SMOOTH",
"30 475 OFFCURVE",
"50 455 OFFCURVE",
"75 455 CURVE SMOOTH",
"480 455 LINE",
"480 45 LINE",
"75 45 LINE SMOOTH",
"50 45 OFFCURVE",
"30 25 OFFCURVE",
"30 0 CURVE SMOOTH",
"30 -25 OFFCURVE",
"50 -45 OFFCURVE",
"75 -45 CURVE SMOOTH",
"975 -45 LINE SMOOTH",
"1000 -45 OFFCURVE",
"1020 -25 OFFCURVE",
"1020 0 CURVE SMOOTH",
"1020 25 OFFCURVE",
"1000 45 OFFCURVE",
"975 45 CURVE SMOOTH",
"570 45 LINE",
"570 455 LINE",
"975 455 LINE SMOOTH",
"1000 455 OFFCURVE",
"1020 475 OFFCURVE",
"1020 500 CURVE SMOOTH",
"1020 525 OFFCURVE",
"1000 545 OFFCURVE",
"975 545 CURVE SMOOTH",
"75 545 LINE SMOOTH"
);
}
);
width = 1050;
},
{
associatedMasterId = "ADA7F6FF-5955-4EF3-8FA7-BADC10F8EE4C";
layerId = "EA01F030-C0F9-46D4-92C4-F2A57DB2F300";
name = path;
paths = (
{
closed = 0;
nodes = (
"75 500 LINE",
"975 500 LINE"
);
},
{
closed = 0;
nodes = (
"526 500 LINE",
"526 0 LINE"
);
},
{
closed = 0;
nodes = (
"75 0 LINE",
"975 0 LINE"
);
}
);
visible = 1;
width = 1050;
},
{
layerId = "89EE149F-7564-47C9-BE54-DE0A35C75344";
paths = (
{
closed = 1;
nodes = (
"37 515 OFFCURVE",
"30 508 OFFCURVE",
"30 500 CURVE SMOOTH",
"30 492 OFFCURVE",
"37 485 OFFCURVE",
"45 485 CURVE SMOOTH",
"481 485 LINE",
"481 15 LINE",
"45 15 LINE SMOOTH",
"37 15 OFFCURVE",
"30 8 OFFCURVE",
"30 0 CURVE SMOOTH",
"30 -8 OFFCURVE",
"37 -15 OFFCURVE",
"45 -15 CURVE SMOOTH",
"945 -15 LINE SMOOTH",
"953 -15 OFFCURVE",
"960 -8 OFFCURVE",
"960 0 CURVE SMOOTH",
"960 8 OFFCURVE",
"953 15 OFFCURVE",
"945 15 CURVE SMOOTH",
"511 15 LINE",
"511 485 LINE",
"945 485 LINE SMOOTH",
"953 485 OFFCURVE",
"960 492 OFFCURVE",
"960 500 CURVE SMOOTH",
"960 508 OFFCURVE",
"953 515 OFFCURVE",
"945 515 CURVE SMOOTH",
"45 515 LINE SMOOTH"
);
}
);
width = 990;
},
{
layerId = "BA964981-AC0A-4481-A535-297F9E9B05B4";
paths = (
{
closed = 1;
nodes = (
"64 575 OFFCURVE",
"30 541 OFFCURVE",
"30 500 CURVE SMOOTH",
"30 459 OFFCURVE",
"64 425 OFFCURVE",
"105 425 CURVE SMOOTH",
"481 425 LINE",
"481 75 LINE",
"105 75 LINE SMOOTH",
"64 75 OFFCURVE",
"30 41 OFFCURVE",
"30 0 CURVE SMOOTH",
"30 -41 OFFCURVE",
"64 -75 OFFCURVE",
"105 -75 CURVE SMOOTH",
"1005 -75 LINE SMOOTH",
"1046 -75 OFFCURVE",
"1080 -41 OFFCURVE",
"1080 0 CURVE SMOOTH",
"1080 41 OFFCURVE",
"1046 75 OFFCURVE",
"1005 75 CURVE SMOOTH",
"631 75 LINE",
"631 425 LINE",
"1005 425 LINE SMOOTH",
"1046 425 OFFCURVE",
"1080 459 OFFCURVE",
"1080 500 CURVE SMOOTH",
"1080 541 OFFCURVE",
"1046 575 OFFCURVE",
"1005 575 CURVE SMOOTH",
"105 575 LINE SMOOTH"
);
}
);
width = 1110;
}
);
unicode = 0049;
},
{
color = 10;
glyphname = J;
lastChange = "2019-01-22 14:04:59 +0000";
layers = (
{
layerId = "ADA7F6FF-5955-4EF3-8FA7-BADC10F8EE4C";
paths = (
{
closed = 1;
nodes = (
"50 545 OFFCURVE",
"30 525 OFFCURVE",
"30 500 CURVE SMOOTH",
"30 475 OFFCURVE",
"50 455 OFFCURVE",
"75 455 CURVE SMOOTH",
"930 455 LINE",
"930 45 LINE",
"120 45 LINE",
"120 250 LINE SMOOTH",
"120 275 OFFCURVE",
"100 295 OFFCURVE",
"75 295 CURVE SMOOTH",
"50 295 OFFCURVE",
"30 275 OFFCURVE",
"30 250 CURVE SMOOTH",
"30 0 LINE SMOOTH",
"30 -25 OFFCURVE",
"50 -45 OFFCURVE",
"75 -45 CURVE SMOOTH",
"975 -45 LINE SMOOTH",
"1000 -45 OFFCURVE",
"1020 -25 OFFCURVE",
"1020 0 CURVE SMOOTH",
"1020 500 LINE SMOOTH",
"1020 525 OFFCURVE",
"1000 545 OFFCURVE",
"975 545 CURVE SMOOTH",
"75 545 LINE SMOOTH"
);
}
);
width = 1050;
},
{
associatedMasterId = "ADA7F6FF-5955-4EF3-8FA7-BADC10F8EE4C";
layerId = "80317083-6BE9-46B6-9AFF-137B963A54F7";
name = path;
paths = (
{
closed = 0;
nodes = (
"75 500 LINE",
"975 500 LINE",
"975 0 LINE",
"75 0 LINE",
"75 250 LINE"
);
}
);
visible = 1;
width = 1050;
},
{
layerId = "89EE149F-7564-47C9-BE54-DE0A35C75344";
paths = (
{
closed = 1;
nodes = (
"37 515 OFFCURVE",
"30 508 OFFCURVE",
"30 500 CURVE SMOOTH",
"30 492 OFFCURVE",
"37 485 OFFCURVE",
"45 485 CURVE SMOOTH",
"930 485 LINE",
"930 15 LINE",
"61 15 LINE",
"60 250 LINE SMOOTH",
"60 258 OFFCURVE",
"53 265 OFFCURVE",
"45 265 CURVE SMOOTH",
"37 265 OFFCURVE",
"30 258 OFFCURVE",
"30 250 CURVE SMOOTH",
"31 0 LINE SMOOTH",
"31 -8 OFFCURVE",
"38 -15 OFFCURVE",
"46 -15 CURVE SMOOTH",
"945 -15 LINE SMOOTH",
"953 -15 OFFCURVE",
"960 -8 OFFCURVE",
"960 0 CURVE SMOOTH",
"960 500 LINE SMOOTH",
"960 508 OFFCURVE",
"953 515 OFFCURVE",
"945 515 CURVE SMOOTH",
"45 515 LINE SMOOTH"
);
}
);
width = 990;
},
{
layerId = "BA964981-AC0A-4481-A535-297F9E9B05B4";
paths = (
{
closed = 1;
nodes = (
"64 575 OFFCURVE",
"30 541 OFFCURVE",
"30 500 CURVE SMOOTH",
"30 459 OFFCURVE",
"64 425 OFFCURVE",
"105 425 CURVE SMOOTH",
"930 425 LINE",
"930 75 LINE",
"181 75 LINE",
"180 250 LINE SMOOTH",
"180 292 OFFCURVE",
"146 325 OFFCURVE",
"105 325 CURVE SMOOTH",
"64 325 OFFCURVE",
"30 291 OFFCURVE",
"30 250 CURVE SMOOTH",
"31 0 LINE SMOOTH",
"31 -41 OFFCURVE",
"65 -75 OFFCURVE",
"106 -75 CURVE SMOOTH",
"1005 -75 LINE SMOOTH",
"1046 -75 OFFCURVE",
"1080 -41 OFFCURVE",
"1080 0 CURVE SMOOTH",
"1080 500 LINE SMOOTH",
"1080 541 OFFCURVE",
"1046 575 OFFCURVE",
"1005 575 CURVE SMOOTH",
"105 575 LINE SMOOTH"
);
}
);
width = 1110;
}
);
unicode = 004A;
},
{
color = 10;
glyphname = K;
lastChange = "2019-01-22 14:04:59 +0000";
layers = (
{
layerId = "ADA7F6FF-5955-4EF3-8FA7-BADC10F8EE4C";
paths = (
{
closed = 1;
nodes = (
"50 545 OFFCURVE",
"30 525 OFFCURVE",
"30 500 CURVE SMOOTH",
"30 0 LINE SMOOTH",
"30 -25 OFFCURVE",
"50 -45 OFFCURVE",
"75 -45 CURVE SMOOTH",
"100 -45 OFFCURVE",
"120 -25 OFFCURVE",
"120 0 CURVE SMOOTH",
"120 168 LINE",
"281 221 LINE",
"958 -42 LINE SMOOTH",
"963 -44 OFFCURVE",
"969 -45 OFFCURVE",
"975 -45 CURVE SMOOTH",
"1000 -45 OFFCURVE",
"1020 -25 OFFCURVE",
"1020 0 CURVE SMOOTH",
"1020 19 OFFCURVE",
"1008 36 OFFCURVE",
"990 42 CURVE SMOOTH",
"415 266 LINE",
"988 457 LINE SMOOTH",
"1007 463 OFFCURVE",
"1020 480 OFFCURVE",
"1020 500 CURVE SMOOTH",
"1020 525 OFFCURVE",
"1000 545 OFFCURVE",
"975 545 CURVE SMOOTH",
"970 545 OFFCURVE",
"965 544 OFFCURVE",
"960 542 CURVE SMOOTH",
"120 262 LINE",
"120 500 LINE SMOOTH",
"120 525 OFFCURVE",
"100 545 OFFCURVE",
"75 545 CURVE SMOOTH"
);
}
);
width = 1050;
},
{
associatedMasterId = "ADA7F6FF-5955-4EF3-8FA7-BADC10F8EE4C";
layerId = "733DF08D-5D85-4832-95FF-7D0568EBB909";
name = path;
paths = (
{
closed = 0;
nodes = (
"75 200 LINE",
"975 500 LINE"
);
},
{
closed = 0;
nodes = (
"75 0 LINE",
"75 500 LINE"
);
},
{
closed = 0;
nodes = (
"975 0 LINE",
"283 269 LINE"
);
}
);
visible = 1;
width = 1050;
},
{
layerId = "89EE149F-7564-47C9-BE54-DE0A35C75344";
paths = (
{
closed = 1;
nodes = (
"37 515 OFFCURVE",
"30 508 OFFCURVE",
"30 500 CURVE SMOOTH",
"30 0 LINE SMOOTH",
"30 -8 OFFCURVE",
"37 -15 OFFCURVE",
"45 -15 CURVE SMOOTH",
"53 -15 OFFCURVE",
"60 -8 OFFCURVE",
"60 0 CURVE SMOOTH",
"60 189 LINE",
"252 253 LINE",
"939 -14 LINE SMOOTH",
"941 -15 OFFCURVE",
"943 -15 OFFCURVE",
"945 -15 CURVE SMOOTH",
"953 -15 OFFCURVE",
"960 -8 OFFCURVE",
"960 0 CURVE SMOOTH",
"960 6 OFFCURVE",
"956 12 OFFCURVE",
"950 14 CURVE SMOOTH",
"297 268 LINE",
"949 486 LINE SMOOTH",
"956 488 OFFCURVE",
"960 493 OFFCURVE",
"960 500 CURVE SMOOTH",
"960 508 OFFCURVE",
"953 515 OFFCURVE",
"945 515 CURVE SMOOTH",
"943 515 OFFCURVE",
"942 515 OFFCURVE",
"940 514 CURVE SMOOTH",
"60 221 LINE",
"60 500 LINE SMOOTH",
"60 508 OFFCURVE",
"53 515 OFFCURVE",
"45 515 CURVE SMOOTH"
);
}
);
width = 990;
},
{
layerId = "BA964981-AC0A-4481-A535-297F9E9B05B4";
paths = (
{
closed = 1;
nodes = (
"64 575 OFFCURVE",
"30 541 OFFCURVE",
"30 500 CURVE SMOOTH",
"30 0 LINE SMOOTH",
"30 -41 OFFCURVE",
"64 -75 OFFCURVE",
"105 -75 CURVE SMOOTH",
"146 -75 OFFCURVE",
"180 -41 OFFCURVE",
"180 0 CURVE SMOOTH",
"180 146 LINE",
"311 189 LINE",
"976 -69 LINE SMOOTH",
"985 -73 OFFCURVE",
"995 -75 OFFCURVE",
"1005 -75 CURVE SMOOTH",
"1046 -75 OFFCURVE",
"1080 -41 OFFCURVE",
"1080 0 CURVE SMOOTH",
"1080 32 OFFCURVE",
"1059 60 OFFCURVE",
"1031 71 CURVE SMOOTH",
"533 264 LINE",
"1027 428 LINE SMOOTH",
"1058 438 OFFCURVE",
"1080 466 OFFCURVE",
"1080 500 CURVE SMOOTH",
"1080 541 OFFCURVE",
"1046 575 OFFCURVE",
"1005 575 CURVE SMOOTH",
"996 575 OFFCURVE",
"988 573 OFFCURVE",
"980 571 CURVE SMOOTH",
"180 304 LINE",
"180 500 LINE SMOOTH",
"180 541 OFFCURVE",
"146 575 OFFCURVE",
"105 575 CURVE SMOOTH"
);
}
);
width = 1110;
}
);
unicode = 004B;
},
{
color = 10;
glyphname = L;
lastChange = "2019-01-22 14:04:59 +0000";
layers = (
{
associatedMasterId = "ADA7F6FF-5955-4EF3-8FA7-BADC10F8EE4C";
layerId = "15F4C9DE-D177-4BDB-A281-2C4B881DC727";
name = path;
paths = (
{
closed = 0;
nodes = (
"75 500 LINE",
"75 0 LINE",
"975 0 LINE"
);
}
);
visible = 1;
width = 1050;
},
{
layerId = "ADA7F6FF-5955-4EF3-8FA7-BADC10F8EE4C";
paths = (
{
closed = 1;
nodes = (
"120 525 OFFCURVE",
"100 545 OFFCURVE",
"75 545 CURVE SMOOTH",
"50 545 OFFCURVE",
"30 525 OFFCURVE",
"30 500 CURVE SMOOTH",
"30 0 LINE SMOOTH",
"30 -25 OFFCURVE",
"50 -45 OFFCURVE",
"75 -45 CURVE SMOOTH",
"975 -45 LINE SMOOTH",
"1000 -45 OFFCURVE",
"1020 -25 OFFCURVE",
"1020 0 CURVE SMOOTH",
"1020 25 OFFCURVE",
"1000 45 OFFCURVE",
"975 45 CURVE SMOOTH",
"120 45 LINE",
"120 500 LINE SMOOTH"
);
}
);
width = 1050;
},
{
layerId = "89EE149F-7564-47C9-BE54-DE0A35C75344";
paths = (
{
closed = 1;
nodes = (
"60 508 OFFCURVE",
"53 515 OFFCURVE",
"45 515 CURVE SMOOTH",
"37 515 OFFCURVE",
"30 508 OFFCURVE",
"30 500 CURVE SMOOTH",
"30 0 LINE SMOOTH",
"30 -8 OFFCURVE",
"37 -15 OFFCURVE",
"45 -15 CURVE SMOOTH",
"945 -15 LINE SMOOTH",
"953 -15 OFFCURVE",
"960 -8 OFFCURVE",
"960 0 CURVE SMOOTH",
"960 8 OFFCURVE",
"953 15 OFFCURVE",
"945 15 CURVE SMOOTH",
"60 15 LINE",
"60 500 LINE SMOOTH"
);
}
);
width = 990;
},
{
layerId = "BA964981-AC0A-4481-A535-297F9E9B05B4";
paths = (
{
closed = 1;
nodes = (
"180 541 OFFCURVE",
"146 575 OFFCURVE",
"105 575 CURVE SMOOTH",
"64 575 OFFCURVE",
"30 541 OFFCURVE",
"30 500 CURVE SMOOTH",
"30 0 LINE SMOOTH",
"30 -41 OFFCURVE",
"64 -75 OFFCURVE",
"105 -75 CURVE SMOOTH",
"1005 -75 LINE SMOOTH",
"1046 -75 OFFCURVE",
"1080 -41 OFFCURVE",
"1080 0 CURVE SMOOTH",
"1080 41 OFFCURVE",
"1046 75 OFFCURVE",
"1005 75 CURVE SMOOTH",
"180 75 LINE",
"180 500 LINE SMOOTH"
);
}
);
width = 1110;
}
);
unicode = 004C;
},
{
color = 10;
glyphname = M;
lastChange = "2019-01-22 14:04:59 +0000";
layers = (
{
layerId = "ADA7F6FF-5955-4EF3-8FA7-BADC10F8EE4C";
paths = (
{
closed = 1;
nodes = (
"101 539 OFFCURVE",
"88 545 OFFCURVE",
"75 545 CURVE SMOOTH",
"50 545 OFFCURVE",
"30 525 OFFCURVE",
"30 500 CURVE SMOOTH",
"30 0 LINE SMOOTH",
"30 -25 OFFCURVE",
"50 -45 OFFCURVE",
"75 -45 CURVE SMOOTH",
"100 -45 OFFCURVE",
"120 -25 OFFCURVE",
"120 0 CURVE SMOOTH",
"120 383 LINE",
"491 -30 LINE SMOOTH",
"499 -39 OFFCURVE",
"512 -45 OFFCURVE",
"525 -45 CURVE SMOOTH",
"538 -45 OFFCURVE",
"550 -39 OFFCURVE",
"559 -30 CURVE SMOOTH",
"930 383 LINE",
"930 0 LINE SMOOTH",
"930 -25 OFFCURVE",
"950 -45 OFFCURVE",
"975 -45 CURVE SMOOTH",
"1000 -45 OFFCURVE",
"1020 -25 OFFCURVE",
"1020 0 CURVE SMOOTH",
"1020 500 LINE SMOOTH",
"1020 525 OFFCURVE",
"1000 545 OFFCURVE",
"975 545 CURVE SMOOTH",
"962 545 OFFCURVE",
"949 539 OFFCURVE",
"941 530 CURVE SMOOTH",
"525 67 LINE",
"109 530 LINE SMOOTH"
);
}
);
width = 1050;
},
{
associatedMasterId = "ADA7F6FF-5955-4EF3-8FA7-BADC10F8EE4C";
layerId = "506D02AE-B350-4DDF-91D2-AB967CA9A9DF";
name = path;
paths = (
{
closed = 0;
nodes = (
"75 0 LINE",
"75 500 LINE",
"525 0 LINE",
"975 500 LINE",
"975 0 LINE"
);
}
);
visible = 1;
width = 1050;
},
{
layerId = "89EE149F-7564-47C9-BE54-DE0A35C75344";
paths = (
{
closed = 1;
nodes = (
"53 513 OFFCURVE",
"49 515 OFFCURVE",
"45 515 CURVE SMOOTH",
"37 515 OFFCURVE",
"30 508 OFFCURVE",
"30 500 CURVE SMOOTH",
"30 0 LINE SMOOTH",
"30 -8 OFFCURVE",
"37 -15 OFFCURVE",
"45 -15 CURVE SMOOTH",
"53 -15 OFFCURVE",
"60 -8 OFFCURVE",
"60 0 CURVE SMOOTH",
"60 461 LINE",
"484 -10 LINE",
"487 -13 OFFCURVE",
"491 -15 OFFCURVE",
"495 -15 CURVE SMOOTH",
"499 -15 OFFCURVE",
"503 -13 OFFCURVE",
"506 -10 CURVE",
"930 461 LINE",
"930 0 LINE SMOOTH",
"930 -8 OFFCURVE",
"937 -15 OFFCURVE",
"945 -15 CURVE SMOOTH",
"953 -15 OFFCURVE",
"960 -8 OFFCURVE",
"960 0 CURVE SMOOTH",
"960 500 LINE SMOOTH",
"960 508 OFFCURVE",
"953 515 OFFCURVE",
"945 515 CURVE SMOOTH",
"941 515 OFFCURVE",
"937 513 OFFCURVE",
"934 510 CURVE",
"495 22 LINE",
"56 510 LINE"
);
}
);
width = 990;
},
{
layerId = "BA964981-AC0A-4481-A535-297F9E9B05B4";
paths = (
{
closed = 1;
nodes = (
"147 565 OFFCURVE",
"127 575 OFFCURVE",
"105 575 CURVE SMOOTH",
"64 575 OFFCURVE",
"30 541 OFFCURVE",
"30 500 CURVE SMOOTH",
"30 0 LINE SMOOTH",
"30 -41 OFFCURVE",
"64 -75 OFFCURVE",
"105 -75 CURVE SMOOTH",
"146 -75 OFFCURVE",
"180 -41 OFFCURVE",
"180 0 CURVE SMOOTH",
"180 304 LINE",
"499 -50 LINE SMOOTH",
"513 -65 OFFCURVE",
"533 -75 OFFCURVE",
"555 -75 CURVE SMOOTH",
"577 -75 OFFCURVE",
"597 -65 OFFCURVE",
"611 -50 CURVE SMOOTH",
"930 304 LINE",
"930 0 LINE SMOOTH",
"930 -41 OFFCURVE",
"964 -75 OFFCURVE",
"1005 -75 CURVE SMOOTH",
"1046 -75 OFFCURVE",
"1080 -41 OFFCURVE",
"1080 0 CURVE SMOOTH",
"1080 500 LINE SMOOTH",
"1080 541 OFFCURVE",
"1046 575 OFFCURVE",
"1005 575 CURVE SMOOTH",
"983 575 OFFCURVE",
"963 565 OFFCURVE",
"949 550 CURVE SMOOTH",
"555 112 LINE",
"161 550 LINE SMOOTH"
);
}
);
width = 1110;
}
);
unicode = 004D;
},
{
color = 10;
glyphname = N;
lastChange = "2019-01-22 14:04:59 +0000";
layers = (
{
layerId = "ADA7F6FF-5955-4EF3-8FA7-BADC10F8EE4C";
paths = (
{
closed = 1;
nodes = (
"91 543 OFFCURVE",
"83 545 OFFCURVE",
"75 545 CURVE SMOOTH",
"50 545 OFFCURVE",
"30 525 OFFCURVE",
"30 500 CURVE SMOOTH",
"30 0 LINE SMOOTH",
"30 -25 OFFCURVE",
"50 -45 OFFCURVE",
"75 -45 CURVE SMOOTH",
"100 -45 OFFCURVE",
"120 -25 OFFCURVE",
"120 0 CURVE SMOOTH",
"120 423 LINE",
"952 -39 LINE SMOOTH",
"959 -43 OFFCURVE",
"967 -45 OFFCURVE",
"975 -45 CURVE SMOOTH",
"1000 -45 OFFCURVE",
"1020 -25 OFFCURVE",
"1020 0 CURVE SMOOTH",
"1020 500 LINE SMOOTH",
"1020 525 OFFCURVE",
"1000 545 OFFCURVE",
"975 545 CURVE SMOOTH",
"950 545 OFFCURVE",
"930 525 OFFCURVE",
"930 500 CURVE SMOOTH",
"930 77 LINE",
"98 539 LINE SMOOTH"
);
}
);
width = 1050;
},
{
associatedMasterId = "ADA7F6FF-5955-4EF3-8FA7-BADC10F8EE4C";
layerId = "02F44D51-9545-49D3-80AC-0F86BEAF3628";
name = path;
paths = (
{
closed = 0;
nodes = (
"75 0 LINE",
"75 500 LINE",
"975 0 LINE",
"975 500 LINE"
);
}
);
visible = 1;
width = 1050;
},
{
layerId = "89EE149F-7564-47C9-BE54-DE0A35C75344";
paths = (
{
closed = 1;
nodes = (
"51 514 OFFCURVE",
"48 515 OFFCURVE",
"45 515 CURVE SMOOTH",
"37 515 OFFCURVE",
"30 508 OFFCURVE",
"30 500 CURVE SMOOTH",
"30 0 LINE SMOOTH",
"30 -8 OFFCURVE",
"37 -15 OFFCURVE",
"45 -15 CURVE SMOOTH",
"53 -15 OFFCURVE",
"60 -8 OFFCURVE",
"60 0 CURVE SMOOTH",
"60 475 LINE",
"937 -13 LINE",
"939 -14 OFFCURVE",
"942 -15 OFFCURVE",
"945 -15 CURVE SMOOTH",
"953 -15 OFFCURVE",
"960 -8 OFFCURVE",
"960 0 CURVE SMOOTH",
"960 500 LINE SMOOTH",
"960 508 OFFCURVE",
"953 515 OFFCURVE",
"945 515 CURVE SMOOTH",
"937 515 OFFCURVE",
"930 508 OFFCURVE",
"930 500 CURVE SMOOTH",
"930 25 LINE",
"53 513 LINE"
);
}
);
width = 990;
},
{
layerId = "BA964981-AC0A-4481-A535-297F9E9B05B4";
paths = (
{
closed = 1;
nodes = (
"132 571 OFFCURVE",
"119 575 OFFCURVE",
"105 575 CURVE SMOOTH",
"64 575 OFFCURVE",
"30 541 OFFCURVE",
"30 500 CURVE SMOOTH",
"30 0 LINE SMOOTH",
"30 -41 OFFCURVE",
"64 -75 OFFCURVE",
"105 -75 CURVE SMOOTH",
"146 -75 OFFCURVE",
"180 -41 OFFCURVE",
"180 0 CURVE SMOOTH",
"180 373 LINE",
"967 -65 LINE SMOOTH",
"978 -71 OFFCURVE",
"991 -75 OFFCURVE",
"1005 -75 CURVE SMOOTH",
"1046 -75 OFFCURVE",
"1080 -41 OFFCURVE",
"1080 0 CURVE SMOOTH",
"1080 500 LINE SMOOTH",
"1080 541 OFFCURVE",
"1046 575 OFFCURVE",
"1005 575 CURVE SMOOTH",
"964 575 OFFCURVE",
"930 541 OFFCURVE",
"930 500 CURVE SMOOTH",
"930 127 LINE",
"143 565 LINE SMOOTH"
);
}
);
width = 1110;
}
);
unicode = 004E;
},
{
color = 10;
glyphname = O;
lastChange = "2019-01-22 14:04:59 +0000";
layers = (
{
layerId = "ADA7F6FF-5955-4EF3-8FA7-BADC10F8EE4C";
paths = (
{
closed = 1;
nodes = (
"930 455 LINE",
"930 45 LINE",
"120 45 LINE",
"120 455 LINE"
);
},
{
closed = 1;
nodes = (
"50 545 OFFCURVE",
"30 525 OFFCURVE",
"30 500 CURVE SMOOTH",
"30 0 LINE SMOOTH",
"30 -25 OFFCURVE",
"50 -45 OFFCURVE",
"75 -45 CURVE SMOOTH",
"975 -45 LINE SMOOTH",
"1000 -45 OFFCURVE",
"1020 -25 OFFCURVE",
"1020 0 CURVE SMOOTH",
"1020 500 LINE SMOOTH",
"1020 525 OFFCURVE",
"1000 545 OFFCURVE",
"975 545 CURVE SMOOTH",
"75 545 LINE SMOOTH"
);
}
);
width = 1050;
},
{
associatedMasterId = "ADA7F6FF-5955-4EF3-8FA7-BADC10F8EE4C";
layerId = "ACCF6737-4D79-4163-B459-3563FA1143C3";
name = path;
paths = (
{
closed = 1;
nodes = (
"75 0 LINE",
"975 0 LINE",
"975 500 LINE",
"75 500 LINE"
);
}
);
visible = 1;
width = 1050;
},
{
layerId = "89EE149F-7564-47C9-BE54-DE0A35C75344";
paths = (
{
closed = 1;
nodes = (
"930 485 LINE",
"930 15 LINE",
"60 15 LINE",
"60 485 LINE"
);
},
{
closed = 1;
nodes = (
"37 515 OFFCURVE",
"30 508 OFFCURVE",
"30 500 CURVE SMOOTH",
"30 0 LINE SMOOTH",
"30 -8 OFFCURVE",
"37 -15 OFFCURVE",
"45 -15 CURVE SMOOTH",
"945 -15 LINE SMOOTH",
"953 -15 OFFCURVE",
"960 -8 OFFCURVE",
"960 0 CURVE SMOOTH",
"960 500 LINE SMOOTH",
"960 508 OFFCURVE",
"953 515 OFFCURVE",
"945 515 CURVE SMOOTH",
"45 515 LINE SMOOTH"
);
}
);
width = 990;
},
{
layerId = "BA964981-AC0A-4481-A535-297F9E9B05B4";
paths = (
{
closed = 1;
nodes = (
"930 425 LINE",
"930 75 LINE",
"180 75 LINE",
"180 425 LINE"
);
},
{
closed = 1;
nodes = (
"64 575 OFFCURVE",
"30 541 OFFCURVE",
"30 500 CURVE SMOOTH",
"30 0 LINE SMOOTH",
"30 -41 OFFCURVE",
"64 -75 OFFCURVE",
"105 -75 CURVE SMOOTH",
"1005 -75 LINE SMOOTH",
"1046 -75 OFFCURVE",
"1080 -41 OFFCURVE",
"1080 0 CURVE SMOOTH",
"1080 500 LINE SMOOTH",
"1080 541 OFFCURVE",
"1046 575 OFFCURVE",
"1005 575 CURVE SMOOTH",
"105 575 LINE SMOOTH"
);
}
);
width = 1110;
}
);
unicode = 004F;
},
{
color = 10;
glyphname = Oslash;
lastChange = "2019-01-22 14:04:59 +0000";
layers = (
{
layerId = "ADA7F6FF-5955-4EF3-8FA7-BADC10F8EE4C";
paths = (
{
closed = 1;
nodes = (
"925.821 455 LINE",
"245 76.108 LINE",
"245 455 LINE"
);
},
{
closed = 1;
nodes = (
"1055 423.892 LINE",
"1055 45 LINE",
"374.178 45 LINE"
);
},
{
closed = 1;
nodes = (
"175 545 OFFCURVE",
"155 525 OFFCURVE",
"155 500 CURVE SMOOTH",
"155 26 LINE",
"54 -30 LINE SMOOTH",
"40 -38 OFFCURVE",
"30 -53 OFFCURVE",
"30 -70 CURVE SMOOTH",
"30 -95 OFFCURVE",
"50 -115 OFFCURVE",
"75 -115 CURVE SMOOTH",
"83 -115 OFFCURVE",
"91 -113 OFFCURVE",
"98 -109 CURVE SMOOTH",
"212 -45 LINE",
"1100 -45 LINE SMOOTH",
"1125 -45 OFFCURVE",
"1145 -25 OFFCURVE",
"1145 0 CURVE SMOOTH",
"1145 474 LINE",
"1246 530 LINE SMOOTH",
"1260 538 OFFCURVE",
"1270 553 OFFCURVE",
"1270 570 CURVE SMOOTH",
"1270 595 OFFCURVE",
"1250 615 OFFCURVE",
"1225 615 CURVE SMOOTH",
"1217 615 OFFCURVE",
"1209 613 OFFCURVE",
"1202 609 CURVE SMOOTH",
"1088 545 LINE",
"200 545 LINE SMOOTH"
);
}
);
width = 1300;
},
{
associatedMasterId = "ADA7F6FF-5955-4EF3-8FA7-BADC10F8EE4C";
layerId = "9EF604AE-F3C9-4158-AFCD-5D3B73F5638B";
name = path;
paths = (
{
closed = 0;
nodes = (
"75 -70 LINE",
"1225 570 LINE"
);
},
{
closed = 1;
nodes = (
"200 0 LINE",
"1100 0 LINE",
"1100 500 LINE",
"200 500 LINE"
);
}
);
visible = 1;
width = 1290;
},
{
layerId = "89EE149F-7564-47C9-BE54-DE0A35C75344";
paths = (
{
closed = 1;
nodes = (
"1011 485 LINE",
"185 25 LINE",
"185 485 LINE"
);
},
{
closed = 1;
nodes = (
"1055 475 LINE",
"1055 15 LINE",
"229 15 LINE"
);
},
{
closed = 1;
nodes = (
"162 515 OFFCURVE",
"155 508 OFFCURVE",
"155 500 CURVE SMOOTH",
"155 8 LINE",
"38 -57 LINE SMOOTH",
"33 -60 OFFCURVE",
"30 -64 OFFCURVE",
"30 -70 CURVE SMOOTH",
"30 -78 OFFCURVE",
"37 -85 OFFCURVE",
"45 -85 CURVE SMOOTH",
"48 -85 OFFCURVE",
"50 -85 OFFCURVE",
"53 -83 CURVE SMOOTH",
"175 -15 LINE",
"1070 -15 LINE SMOOTH",
"1078 -15 OFFCURVE",
"1085 -8 OFFCURVE",
"1085 0 CURVE SMOOTH",
"1085 492 LINE",
"1202 557 LINE SMOOTH",
"1207 560 OFFCURVE",
"1210 564 OFFCURVE",
"1210 570 CURVE SMOOTH",
"1210 578 OFFCURVE",
"1203 585 OFFCURVE",
"1195 585 CURVE SMOOTH",
"1192 585 OFFCURVE",
"1190 585 OFFCURVE",
"1187 583 CURVE SMOOTH",
"1065 515 LINE",
"170 515 LINE SMOOTH"
);
}
);
width = 1240;
},
{
layerId = "BA964981-AC0A-4481-A535-297F9E9B05B4";
paths = (
{
closed = 1;
nodes = (
"840 425 LINE",
"305 127 LINE",
"305 425 LINE"
);
},
{
closed = 1;
nodes = (
"1055 373 LINE",
"1055 75 LINE",
"520 75 LINE"
);
},
{
closed = 1;
nodes = (
"189 575 OFFCURVE",
"155 541 OFFCURVE",
"155 500 CURVE SMOOTH",
"155 44 LINE",
"70 -4 LINE SMOOTH",
"46 -16 OFFCURVE",
"30 -41 OFFCURVE",
"30 -70 CURVE SMOOTH",
"30 -111 OFFCURVE",
"64 -145 OFFCURVE",
"105 -145 CURVE SMOOTH",
"119 -145 OFFCURVE",
"132 -141 OFFCURVE",
"143 -135 CURVE SMOOTH",
"250 -75 LINE",
"1130 -75 LINE SMOOTH",
"1171 -75 OFFCURVE",
"1205 -41 OFFCURVE",
"1205 0 CURVE SMOOTH",
"1205 456 LINE",
"1290 504 LINE SMOOTH",
"1314 516 OFFCURVE",
"1330 541 OFFCURVE",
"1330 570 CURVE SMOOTH",
"1330 611 OFFCURVE",
"1296 645 OFFCURVE",
"1255 645 CURVE SMOOTH",
"1241 645 OFFCURVE",
"1228 641 OFFCURVE",
"1217 635 CURVE SMOOTH",
"1110 575 LINE",
"230 575 LINE SMOOTH"
);
}
);
width = 1360;
}
);
unicode = 00D8;
},
{
color = 10;
glyphname = OE;
lastChange = "2019-01-22 14:04:59 +0000";
layers = (
{
layerId = "ADA7F6FF-5955-4EF3-8FA7-BADC10F8EE4C";
paths = (
{
closed = 1;
nodes = (
"480 455 LINE",
"480 45 LINE",
"120 45 LINE",
"120 455 LINE"
);
},
{
closed = 1;
nodes = (
"50 545 OFFCURVE",
"30 525 OFFCURVE",
"30 500 CURVE SMOOTH",
"30 0 LINE SMOOTH",
"30 -25 OFFCURVE",
"50 -45 OFFCURVE",
"75 -45 CURVE SMOOTH",
"975 -45 LINE SMOOTH",
"1000 -45 OFFCURVE",
"1020 -25 OFFCURVE",
"1020 0 CURVE SMOOTH",
"1020 25 OFFCURVE",
"1000 45 OFFCURVE",
"975 45 CURVE SMOOTH",
"570 45 LINE",
"570 205 LINE",
"975 205 LINE SMOOTH",
"1000 205 OFFCURVE",
"1020 225 OFFCURVE",
"1020 250 CURVE SMOOTH",
"1020 275 OFFCURVE",
"1000 295 OFFCURVE",
"975 295 CURVE SMOOTH",
"570 295 LINE",
"570 455 LINE",
"975 455 LINE SMOOTH",
"1000 455 OFFCURVE",
"1020 475 OFFCURVE",
"1020 500 CURVE SMOOTH",
"1020 525 OFFCURVE",
"1000 545 OFFCURVE",
"975 545 CURVE SMOOTH",
"75 545 LINE SMOOTH"
);
}
);
width = 1050;
},
{
associatedMasterId = "ADA7F6FF-5955-4EF3-8FA7-BADC10F8EE4C";
layerId = "3C8C7874-19F9-4531-AD05-FB43404CBF44";
name = path;
paths = (
{
closed = 0;
nodes = (
"975 0 LINE",
"525 0 LINE",
"525 500 LINE",
"975 500 LINE"
);
},
{
closed = 0;
nodes = (
"525 250 LINE",
"975 250 LINE"
);
},
{
closed = 0;
nodes = (
"525 500 LINE",
"75 500 LINE",
"75 0 LINE",
"525 0 LINE"
);
}
);
visible = 1;
width = 1050;
},
{
layerId = "89EE149F-7564-47C9-BE54-DE0A35C75344";
paths = (
{
closed = 1;
nodes = (
"480 485 LINE",
"480 15 LINE",
"60 15 LINE",
"60 485 LINE"
);
},
{
closed = 1;
nodes = (
"37 515 OFFCURVE",
"30 508 OFFCURVE",
"30 500 CURVE SMOOTH",
"30 0 LINE SMOOTH",
"30 -8 OFFCURVE",
"37 -15 OFFCURVE",
"45 -15 CURVE SMOOTH",
"945 -15 LINE SMOOTH",
"953 -15 OFFCURVE",
"960 -8 OFFCURVE",
"960 0 CURVE SMOOTH",
"960 8 OFFCURVE",
"953 15 OFFCURVE",
"945 15 CURVE SMOOTH",
"510 15 LINE",
"510 235 LINE",
"945 235 LINE SMOOTH",
"953 235 OFFCURVE",
"960 242 OFFCURVE",
"960 250 CURVE SMOOTH",
"960 258 OFFCURVE",
"953 265 OFFCURVE",
"945 265 CURVE SMOOTH",
"510 265 LINE",
"510 485 LINE",
"945 485 LINE SMOOTH",
"953 485 OFFCURVE",
"960 492 OFFCURVE",
"960 500 CURVE SMOOTH",
"960 508 OFFCURVE",
"953 515 OFFCURVE",
"945 515 CURVE SMOOTH",
"45 515 LINE SMOOTH"
);
}
);
width = 990;
},
{
layerId = "BA964981-AC0A-4481-A535-297F9E9B05B4";
paths = (
{
closed = 1;
nodes = (
"480 425 LINE",
"480 75 LINE",
"180 75 LINE",
"180 425 LINE"
);
},
{
closed = 1;
nodes = (
"64 575 OFFCURVE",
"30 541 OFFCURVE",
"30 500 CURVE SMOOTH",
"30 0 LINE SMOOTH",
"30 -41 OFFCURVE",
"64 -75 OFFCURVE",
"105 -75 CURVE SMOOTH",
"1005 -75 LINE SMOOTH",
"1046 -75 OFFCURVE",
"1080 -41 OFFCURVE",
"1080 0 CURVE SMOOTH",
"1080 41 OFFCURVE",
"1046 75 OFFCURVE",
"1005 75 CURVE SMOOTH",
"630 75 LINE",
"630 175 LINE",
"1005 175 LINE SMOOTH",
"1046 175 OFFCURVE",
"1080 209 OFFCURVE",
"1080 250 CURVE SMOOTH",
"1080 291 OFFCURVE",
"1046 325 OFFCURVE",
"1005 325 CURVE SMOOTH",
"630 325 LINE",
"630 425 LINE",
"1005 425 LINE SMOOTH",
"1046 425 OFFCURVE",
"1080 459 OFFCURVE",
"1080 500 CURVE SMOOTH",
"1080 541 OFFCURVE",
"1046 575 OFFCURVE",
"1005 575 CURVE SMOOTH",
"105 575 LINE SMOOTH"
);
}
);
width = 1110;
}
);
unicode = 0152;
},
{
color = 10;
glyphname = P;
lastChange = "2019-01-22 14:04:59 +0000";
layers = (
{
layerId = "ADA7F6FF-5955-4EF3-8FA7-BADC10F8EE4C";
paths = (
{
closed = 1;
nodes = (
"930 455 LINE",
"930 295 LINE",
"120 295 LINE",
"120 455 LINE"
);
},
{
closed = 1;
nodes = (
"50 545 OFFCURVE",
"30 525 OFFCURVE",
"30 500 CURVE SMOOTH",
"30 0 LINE SMOOTH",
"30 -25 OFFCURVE",
"50 -45 OFFCURVE",
"75 -45 CURVE SMOOTH",
"100 -45 OFFCURVE",
"120 -25 OFFCURVE",
"120 0 CURVE SMOOTH",
"120 205 LINE",
"975 205 LINE SMOOTH",
"1000 205 OFFCURVE",
"1020 225 OFFCURVE",
"1020 250 CURVE SMOOTH",
"1020 500 LINE SMOOTH",
"1020 525 OFFCURVE",
"1000 545 OFFCURVE",
"975 545 CURVE SMOOTH",
"75 545 LINE SMOOTH"
);
}
);
width = 1050;
},
{
associatedMasterId = "ADA7F6FF-5955-4EF3-8FA7-BADC10F8EE4C";
layerId = "681473A0-42C1-4B6F-ADB2-BDF2D3C97F72";
name = path;
paths = (
{
closed = 0;
nodes = (
"75 250 LINE",
"975 250 LINE",
"975 500 LINE",
"75 500 LINE",
"75 0 LINE"
);
}
);
visible = 1;
width = 1050;
},
{
layerId = "89EE149F-7564-47C9-BE54-DE0A35C75344";
paths = (
{
closed = 1;
nodes = (
"930 485 LINE",
"930 265 LINE",
"60 265 LINE",
"60 485 LINE"
);
},
{
closed = 1;
nodes = (
"37 515 OFFCURVE",
"30 508 OFFCURVE",
"30 500 CURVE SMOOTH",
"30 0 LINE SMOOTH",
"30 -8 OFFCURVE",
"37 -15 OFFCURVE",
"45 -15 CURVE SMOOTH",
"53 -15 OFFCURVE",
"60 -8 OFFCURVE",
"60 0 CURVE SMOOTH",
"60 235 LINE",
"945 235 LINE SMOOTH",
"953 235 OFFCURVE",
"960 242 OFFCURVE",
"960 250 CURVE SMOOTH",
"960 500 LINE SMOOTH",
"960 508 OFFCURVE",
"953 515 OFFCURVE",
"945 515 CURVE SMOOTH",
"45 515 LINE SMOOTH"
);
}
);
width = 990;
},
{
layerId = "BA964981-AC0A-4481-A535-297F9E9B05B4";
paths = (
{
closed = 1;
nodes = (
"930 425 LINE",
"930 325 LINE",
"180 325 LINE",
"180 425 LINE"
);
},
{
closed = 1;
nodes = (
"64 575 OFFCURVE",
"30 541 OFFCURVE",
"30 500 CURVE SMOOTH",
"30 0 LINE SMOOTH",
"30 -41 OFFCURVE",
"64 -75 OFFCURVE",
"105 -75 CURVE SMOOTH",
"146 -75 OFFCURVE",
"180 -41 OFFCURVE",
"180 0 CURVE SMOOTH",
"180 175 LINE",
"1005 175 LINE SMOOTH",
"1046 175 OFFCURVE",
"1080 209 OFFCURVE",
"1080 250 CURVE SMOOTH",
"1080 500 LINE SMOOTH",
"1080 541 OFFCURVE",
"1046 575 OFFCURVE",
"1005 575 CURVE SMOOTH",
"105 575 LINE SMOOTH"
);
}
);
width = 1110;
}
);
unicode = 0050;
},
{
color = 10;
glyphname = Thorn;
lastChange = "2019-01-22 14:04:59 +0000";
layers = (
{
layerId = "ADA7F6FF-5955-4EF3-8FA7-BADC10F8EE4C";
paths = (
{
closed = 1;
nodes = (
"120 500 LINE SMOOTH",
"120 525 OFFCURVE",
"100 545 OFFCURVE",
"75 545 CURVE SMOOTH",
"50 545 OFFCURVE",
"30 525 OFFCURVE",
"30 500 CURVE SMOOTH",
"30 0 LINE SMOOTH",
"30 -25 OFFCURVE",
"50 -45 OFFCURVE",
"75 -45 CURVE SMOOTH",
"100 -45 OFFCURVE",
"120 -25 OFFCURVE",
"120 0 CURVE SMOOTH",
"120 55 LINE",
"850 57 LINE SMOOTH",
"950 57 OFFCURVE",
"1020 127 OFFCURVE",
"1020 227 CURVE SMOOTH",
"1020 277 LINE SMOOTH",
"1020 377 OFFCURVE",
"950 447 OFFCURVE",
"850 447 CURVE SMOOTH",
"120 445 LINE"
);
},
{
closed = 1;
nodes = (
"850 357 LINE SMOOTH",
"900 357 OFFCURVE",
"930 327 OFFCURVE",
"930 277 CURVE SMOOTH",
"930 227 LINE SMOOTH",
"930 177 OFFCURVE",
"900 147 OFFCURVE",
"850 147 CURVE SMOOTH",
"120 145 LINE",
"120 355 LINE"
);
}
);
width = 1050;
},
{
associatedMasterId = "ADA7F6FF-5955-4EF3-8FA7-BADC10F8EE4C";
layerId = "C8B50C6C-F5C9-4E3D-A96A-6F1757B820DD";
name = path;
paths = (
{
closed = 0;
nodes = (
"75 500 LINE",
"75 0 LINE"
);
},
{
closed = 0;
nodes = (
"75 400 LINE",
"850 402 LINE",
"925 402 OFFCURVE",
"975 347 OFFCURVE",
"975 277 CURVE",
"975 227 LINE",
"975 157 OFFCURVE",
"923 100 OFFCURVE",
"848 100 CURVE SMOOTH",
"75 100 LINE"
);
}
);
visible = 1;
width = 1050;
},
{
layerId = "89EE149F-7564-47C9-BE54-DE0A35C75344";
paths = (
{
closed = 1;
nodes = (
"60 500 LINE SMOOTH",
"60 508 OFFCURVE",
"53 515 OFFCURVE",
"45 515 CURVE SMOOTH",
"37 515 OFFCURVE",
"30 508 OFFCURVE",
"30 500 CURVE SMOOTH",
"30 0 LINE SMOOTH",
"30 -8 OFFCURVE",
"37 -15 OFFCURVE",
"45 -15 CURVE SMOOTH",
"53 -15 OFFCURVE",
"60 -8 OFFCURVE",
"60 0 CURVE SMOOTH",
"60 85 LINE",
"818 85 LINE SMOOTH",
"899 85 OFFCURVE",
"960 146 OFFCURVE",
"960 227 CURVE SMOOTH",
"960 277 LINE SMOOTH",
"960 358 OFFCURVE",
"901 417 OFFCURVE",
"820 417 CURVE SMOOTH",
"60 415 LINE"
);
},
{
closed = 1;
nodes = (
"820 387 LINE SMOOTH",
"884 387 OFFCURVE",
"930 341 OFFCURVE",
"930 277 CURVE SMOOTH",
"930 227 LINE SMOOTH",
"930 163 OFFCURVE",
"882 115 OFFCURVE",
"818 115 CURVE SMOOTH",
"60 115 LINE",
"60 385 LINE"
);
}
);
width = 990;
},
{
layerId = "BA964981-AC0A-4481-A535-297F9E9B05B4";
paths = (
{
closed = 1;
nodes = (
"180 500 LINE SMOOTH",
"180 541 OFFCURVE",
"146 575 OFFCURVE",
"105 575 CURVE SMOOTH",
"64 575 OFFCURVE",
"30 541 OFFCURVE",
"30 500 CURVE SMOOTH",
"30 0 LINE SMOOTH",
"30 -41 OFFCURVE",
"64 -75 OFFCURVE",
"105 -75 CURVE SMOOTH",
"146 -75 OFFCURVE",
"180 -41 OFFCURVE",
"180 0 CURVE SMOOTH",
"180 25 LINE",
"878 25 LINE SMOOTH",
"992 25 OFFCURVE",
"1080 113 OFFCURVE",
"1080 227 CURVE SMOOTH",
"1080 277 LINE SMOOTH",
"1080 391 OFFCURVE",
"994 477 OFFCURVE",
"880 477 CURVE SMOOTH",
"180 475 LINE"
);
},
{
closed = 1;
nodes = (
"880 327 LINE SMOOTH",
"911 327 OFFCURVE",
"930 308 OFFCURVE",
"930 277 CURVE SMOOTH",
"930 227 LINE SMOOTH",
"930 196 OFFCURVE",
"909 175 OFFCURVE",
"878 175 CURVE SMOOTH",
"180 175 LINE",
"180 325 LINE"
);
}
);
width = 1110;
}
);
unicode = 00DE;
},
{
color = 10;
glyphname = Q;
lastChange = "2019-01-22 14:04:59 +0000";
layers = (
{
layerId = "ADA7F6FF-5955-4EF3-8FA7-BADC10F8EE4C";
paths = (
{
closed = 1;
nodes = (
"930 455 LINE",
"930 76.478 LINE",
"547.542 288.955 LINE SMOOTH",
"540.914 292.799 OFFCURVE",
"533.214 295 OFFCURVE",
"525 295 CURVE SMOOTH",
"500.147 295 OFFCURVE",
"480 274.853 OFFCURVE",
"480 250 CURVE SMOOTH",
"480 232.769 OFFCURVE",
"489.685 217.801 OFFCURVE",
"503.907 210.24 CURVE SMOOTH",
"801.339 45 LINE",
"120 45 LINE",
"120 455 LINE"
);
},
{
closed = 1;
nodes = (
"50 545 OFFCURVE",
"30 525 OFFCURVE",
"30 500 CURVE SMOOTH",
"30 0 LINE SMOOTH",
"30 -25 OFFCURVE",
"50 -45 OFFCURVE",
"75 -45 CURVE SMOOTH",
"975 -45 LINE SMOOTH",
"1000 -45 OFFCURVE",
"1020 -25 OFFCURVE",
"1020 0 CURVE SMOOTH",
"1020 500 LINE SMOOTH",
"1020 525 OFFCURVE",
"1000 545 OFFCURVE",
"975 545 CURVE SMOOTH",
"75 545 LINE SMOOTH"
);
}
);
width = 1050;
},
{
associatedMasterId = "ADA7F6FF-5955-4EF3-8FA7-BADC10F8EE4C";
layerId = "C9BC58A6-B2B6-45DE-B6AE-DFE327D452F5";
name = path;
paths = (
{
closed = 1;
nodes = (
"975 500 LINE",
"975 0 LINE",
"75 0 LINE",
"75 500 LINE"
);
},
{
closed = 0;
nodes = (
"525 250 LINE",
"975 0 LINE"
);
}
);
visible = 1;
width = 1050;
},
{
layerId = "89EE149F-7564-47C9-BE54-DE0A35C75344";
paths = (
{
closed = 1;
nodes = (
"930 485 LINE",
"930 25 LINE",
"503 263 LINE SMOOTH",
"500 264 OFFCURVE",
"498 265 OFFCURVE",
"495 265 CURVE SMOOTH",
"487 265 OFFCURVE",
"480 258 OFFCURVE",
"480 250 CURVE SMOOTH",
"480 244 OFFCURVE",
"483 239 OFFCURVE",
"488 237 CURVE SMOOTH",
"887 15 LINE",
"60 15 LINE",
"60 485 LINE"
);
},
{
closed = 1;
nodes = (
"37 515 OFFCURVE",
"30 508 OFFCURVE",
"30 500 CURVE SMOOTH",
"30 0 LINE SMOOTH",
"30 -8 OFFCURVE",
"37 -15 OFFCURVE",
"45 -15 CURVE SMOOTH",
"945 -15 LINE SMOOTH",
"953 -15 OFFCURVE",
"960 -8 OFFCURVE",
"960 0 CURVE SMOOTH",
"960 500 LINE SMOOTH",
"960 508 OFFCURVE",
"953 515 OFFCURVE",
"945 515 CURVE SMOOTH",
"45 515 LINE SMOOTH"
);
}
);
width = 990;
},
{
layerId = "BA964981-AC0A-4481-A535-297F9E9B05B4";
paths = (
{
closed = 1;
nodes = (
"930 425 LINE",
"930 127 LINE",
"593 315 LINE SMOOTH",
"582 321 OFFCURVE",
"569 325 OFFCURVE",
"555 325 CURVE SMOOTH",
"514 325 OFFCURVE",
"480 291 OFFCURVE",
"480 250 CURVE SMOOTH",
"480 221 OFFCURVE",
"496 196 OFFCURVE",
"520 184 CURVE SMOOTH",
"716 75 LINE",
"180 75 LINE",
"180 425 LINE"
);
},
{
closed = 1;
nodes = (
"64 575 OFFCURVE",
"30 541 OFFCURVE",
"30 500 CURVE SMOOTH",
"30 0 LINE SMOOTH",
"30 -41 OFFCURVE",
"64 -75 OFFCURVE",
"105 -75 CURVE SMOOTH",
"1005 -75 LINE SMOOTH",
"1046 -75 OFFCURVE",
"1080 -41 OFFCURVE",
"1080 0 CURVE SMOOTH",
"1080 500 LINE SMOOTH",
"1080 541 OFFCURVE",
"1046 575 OFFCURVE",
"1005 575 CURVE SMOOTH",
"105 575 LINE SMOOTH"
);
}
);
width = 1110;
}
);
unicode = 0051;
},
{
color = 10;
glyphname = R;
lastChange = "2019-01-22 14:04:59 +0000";
layers = (
{
layerId = "ADA7F6FF-5955-4EF3-8FA7-BADC10F8EE4C";
paths = (
{
closed = 1;
nodes = (
"930 455 LINE",
"930 375 LINE SMOOTH",
"930 325 OFFCURVE",
"900 295 OFFCURVE",
"850 295 CURVE SMOOTH",
"120 295 LINE",
"120 455 LINE"
);
},
{
closed = 1;
nodes = (
"50 545 OFFCURVE",
"30 525 OFFCURVE",
"30 500 CURVE SMOOTH",
"30 0 LINE SMOOTH",
"30 -25 OFFCURVE",
"50 -45 OFFCURVE",
"75 -45 CURVE SMOOTH",
"100 -45 OFFCURVE",
"120 -25 OFFCURVE",
"120 0 CURVE SMOOTH",
"120 205 LINE",
"850 205 LINE SMOOTH",
"900 205 OFFCURVE",
"930 174 OFFCURVE",
"930 124 CURVE SMOOTH",
"930 -1 LINE SMOOTH",
"930 -26 OFFCURVE",
"950 -46 OFFCURVE",
"975 -46 CURVE SMOOTH",
"1000 -46 OFFCURVE",
"1020 -26 OFFCURVE",
"1020 -1 CURVE SMOOTH",
"1020 124 LINE SMOOTH",
"1020 176 OFFCURVE",
"1001 219 OFFCURVE",
"970 250 CURVE",
"1001 280 OFFCURVE",
"1020 324 OFFCURVE",
"1020 375 CURVE SMOOTH",
"1020 500 LINE SMOOTH",
"1020 525 OFFCURVE",
"1000 545 OFFCURVE",
"975 545 CURVE SMOOTH",
"75 545 LINE SMOOTH"
);
}
);
width = 1050;
},
{
associatedMasterId = "ADA7F6FF-5955-4EF3-8FA7-BADC10F8EE4C";
layerId = "04FBDE31-C792-4FD3-81D4-42867D99793E";
name = path;
paths = (
{
closed = 0;
nodes = (
"75 0 LINE",
"75 500 LINE",
"975 500 LINE",
"975 375 LINE SMOOTH",
"975 300 OFFCURVE",
"925 250 OFFCURVE",
"850 250 CURVE SMOOTH",
"75 250 LINE"
);
},
{
closed = 0;
nodes = (
"975 -1 LINE",
"975 124 LINE SMOOTH",
"975 199 OFFCURVE",
"925 250 OFFCURVE",
"850 250 CURVE SMOOTH",
"819 250 LINE"
);
}
);
visible = 1;
width = 1050;
},
{
layerId = "89EE149F-7564-47C9-BE54-DE0A35C75344";
paths = (
{
closed = 1;
nodes = (
"930 485 LINE",
"930 375 LINE SMOOTH",
"930 308 OFFCURVE",
"887 265 OFFCURVE",
"820 265 CURVE SMOOTH",
"60 265 LINE",
"60 485 LINE"
);
},
{
closed = 1;
nodes = (
"37 515 OFFCURVE",
"30 508 OFFCURVE",
"30 500 CURVE SMOOTH",
"30 0 LINE SMOOTH",
"30 -8 OFFCURVE",
"37 -15 OFFCURVE",
"45 -15 CURVE SMOOTH",
"53 -15 OFFCURVE",
"60 -8 OFFCURVE",
"60 0 CURVE SMOOTH",
"60 235 LINE",
"820 235 LINE SMOOTH",
"886 235 OFFCURVE",
"930 191 OFFCURVE",
"930 124 CURVE SMOOTH",
"930 -1 LINE SMOOTH",
"930 -9 OFFCURVE",
"937 -16 OFFCURVE",
"945 -16 CURVE SMOOTH",
"953 -16 OFFCURVE",
"960 -9 OFFCURVE",
"960 -1 CURVE SMOOTH",
"960 124 LINE SMOOTH",
"960 182 OFFCURVE",
"932 228 OFFCURVE",
"888 250 CURVE",
"932 272 OFFCURVE",
"960 317 OFFCURVE",
"960 375 CURVE SMOOTH",
"960 500 LINE SMOOTH",
"960 508 OFFCURVE",
"953 515 OFFCURVE",
"945 515 CURVE SMOOTH",
"45 515 LINE SMOOTH"
);
}
);
width = 990;
},
{
layerId = "BA964981-AC0A-4481-A535-297F9E9B05B4";
paths = (
{
closed = 1;
nodes = (
"930 425 LINE",
"930 375 LINE SMOOTH",
"930 341 OFFCURVE",
"914 325 OFFCURVE",
"880 325 CURVE SMOOTH",
"180 325 LINE",
"180 425 LINE"
);
},
{
closed = 1;
nodes = (
"64 575 OFFCURVE",
"30 541 OFFCURVE",
"30 500 CURVE SMOOTH",
"30 0 LINE SMOOTH",
"30 -41 OFFCURVE",
"64 -75 OFFCURVE",
"105 -75 CURVE SMOOTH",
"146 -75 OFFCURVE",
"180 -41 OFFCURVE",
"180 0 CURVE SMOOTH",
"180 175 LINE",
"880 175 LINE SMOOTH",
"913 175 OFFCURVE",
"930 158 OFFCURVE",
"930 124 CURVE SMOOTH",
"930 -1 LINE SMOOTH",
"930 -42 OFFCURVE",
"964 -76 OFFCURVE",
"1005 -76 CURVE SMOOTH",
"1046 -76 OFFCURVE",
"1080 -42 OFFCURVE",
"1080 -1 CURVE SMOOTH",
"1080 124 LINE SMOOTH",
"1080 173 OFFCURVE",
"1065 216 OFFCURVE",
"1040 250 CURVE",
"1065 283 OFFCURVE",
"1080 326 OFFCURVE",
"1080 375 CURVE SMOOTH",
"1080 500 LINE SMOOTH",
"1080 541 OFFCURVE",
"1046 575 OFFCURVE",
"1005 575 CURVE SMOOTH",
"105 575 LINE SMOOTH"
);
}
);
width = 1110;
}
);
unicode = 0052;
},
{
color = 10;
glyphname = S;
lastChange = "2019-01-22 14:04:59 +0000";
layers = (
{
layerId = "ADA7F6FF-5955-4EF3-8FA7-BADC10F8EE4C";
paths = (
{
closed = 1;
nodes = (
"50 545 OFFCURVE",
"30 525 OFFCURVE",
"30 500 CURVE SMOOTH",
"30 250 LINE SMOOTH",
"30 225 OFFCURVE",
"50 205 OFFCURVE",
"75 205 CURVE SMOOTH",
"930 205 LINE",
"930 45 LINE",
"75 45 LINE SMOOTH",
"50 45 OFFCURVE",
"30 25 OFFCURVE",
"30 0 CURVE SMOOTH",
"30 -25 OFFCURVE",
"50 -45 OFFCURVE",
"75 -45 CURVE SMOOTH",
"975 -45 LINE SMOOTH",
"1000 -45 OFFCURVE",
"1020 -25 OFFCURVE",
"1020 0 CURVE SMOOTH",
"1020 250 LINE SMOOTH",
"1020 275 OFFCURVE",
"1000 295 OFFCURVE",
"975 295 CURVE SMOOTH",
"120 295 LINE",
"120 455 LINE",
"975 455 LINE SMOOTH",
"1000 455 OFFCURVE",
"1020 475 OFFCURVE",
"1020 500 CURVE SMOOTH",
"1020 525 OFFCURVE",
"1000 545 OFFCURVE",
"975 545 CURVE SMOOTH",
"75 545 LINE SMOOTH"
);
}
);
width = 1050;
},
{
associatedMasterId = "ADA7F6FF-5955-4EF3-8FA7-BADC10F8EE4C";
layerId = "51E03DD6-6FFF-4E2C-AC9E-A47E0399BA88";
name = path;
paths = (
{
closed = 0;
nodes = (
"975 500 LINE",
"75 500 LINE",
"75 250 LINE",
"975 250 LINE",
"975 0 LINE",
"75 0 LINE"
);
}
);
visible = 1;
width = 1050;
},
{
layerId = "89EE149F-7564-47C9-BE54-DE0A35C75344";
paths = (
{
closed = 1;
nodes = (
"37 515 OFFCURVE",
"30 508 OFFCURVE",
"30 500 CURVE SMOOTH",
"30 250 LINE SMOOTH",
"30 242 OFFCURVE",
"37 235 OFFCURVE",
"45 235 CURVE SMOOTH",
"930 235 LINE",
"930 15 LINE",
"45 15 LINE SMOOTH",
"37 15 OFFCURVE",
"30 8 OFFCURVE",
"30 0 CURVE SMOOTH",
"30 -8 OFFCURVE",
"37 -15 OFFCURVE",
"45 -15 CURVE SMOOTH",
"945 -15 LINE SMOOTH",
"953 -15 OFFCURVE",
"960 -8 OFFCURVE",
"960 0 CURVE SMOOTH",
"960 250 LINE SMOOTH",
"960 258 OFFCURVE",
"953 265 OFFCURVE",
"945 265 CURVE SMOOTH",
"60 265 LINE",
"60 485 LINE",
"945 485 LINE SMOOTH",
"953 485 OFFCURVE",
"960 492 OFFCURVE",
"960 500 CURVE SMOOTH",
"960 508 OFFCURVE",
"953 515 OFFCURVE",
"945 515 CURVE SMOOTH",
"45 515 LINE SMOOTH"
);
}
);
width = 990;
},
{
layerId = "BA964981-AC0A-4481-A535-297F9E9B05B4";
paths = (
{
closed = 1;
nodes = (
"64 575 OFFCURVE",
"30 541 OFFCURVE",
"30 500 CURVE SMOOTH",
"30 250 LINE SMOOTH",
"30 209 OFFCURVE",
"64 175 OFFCURVE",
"105 175 CURVE SMOOTH",
"930 175 LINE",
"930 75 LINE",
"105 75 LINE SMOOTH",
"64 75 OFFCURVE",
"30 41 OFFCURVE",
"30 0 CURVE SMOOTH",
"30 -41 OFFCURVE",
"64 -75 OFFCURVE",
"105 -75 CURVE SMOOTH",
"1005 -75 LINE SMOOTH",
"1046 -75 OFFCURVE",
"1080 -41 OFFCURVE",
"1080 0 CURVE SMOOTH",
"1080 250 LINE SMOOTH",
"1080 291 OFFCURVE",
"1046 325 OFFCURVE",
"1005 325 CURVE SMOOTH",
"180 325 LINE",
"180 425 LINE",
"1005 425 LINE SMOOTH",
"1046 425 OFFCURVE",
"1080 459 OFFCURVE",
"1080 500 CURVE SMOOTH",
"1080 541 OFFCURVE",
"1046 575 OFFCURVE",
"1005 575 CURVE SMOOTH",
"105 575 LINE SMOOTH"
);
}
);
width = 1110;
}
);
unicode = 0053;
},
{
color = 10;
glyphname = T;
lastChange = "2019-01-22 14:04:59 +0000";
layers = (
{
layerId = "ADA7F6FF-5955-4EF3-8FA7-BADC10F8EE4C";
paths = (
{
closed = 1;
nodes = (
"50 545 OFFCURVE",
"30 525 OFFCURVE",
"30 500 CURVE SMOOTH",
"30 475 OFFCURVE",
"50 455 OFFCURVE",
"75 455 CURVE SMOOTH",
"480 455 LINE",
"480 0 LINE SMOOTH",
"480 -25 OFFCURVE",
"500 -45 OFFCURVE",
"525 -45 CURVE SMOOTH",
"550 -45 OFFCURVE",
"570 -25 OFFCURVE",
"570 0 CURVE SMOOTH",
"570 455 LINE",
"975 455 LINE SMOOTH",
"1000 455 OFFCURVE",
"1020 475 OFFCURVE",
"1020 500 CURVE SMOOTH",
"1020 525 OFFCURVE",
"1000 545 OFFCURVE",
"975 545 CURVE SMOOTH",
"75 545 LINE SMOOTH"
);
}
);
width = 1050;
},
{
associatedMasterId = "ADA7F6FF-5955-4EF3-8FA7-BADC10F8EE4C";
layerId = "C27597F6-F5AD-4D1D-8A60-8830BB7DE810";
name = path;
paths = (
{
closed = 0;
nodes = (
"975 500 LINE",
"75 500 LINE"
);
},
{
closed = 0;
nodes = (
"525 500 LINE",
"525 0 LINE"
);
}
);
visible = 1;
width = 1050;
},
{
layerId = "89EE149F-7564-47C9-BE54-DE0A35C75344";
paths = (
{
closed = 1;
nodes = (
"37 515 OFFCURVE",
"30 508 OFFCURVE",
"30 500 CURVE SMOOTH",
"30 492 OFFCURVE",
"37 485 OFFCURVE",
"45 485 CURVE SMOOTH",
"480 485 LINE",
"480 0 LINE SMOOTH",
"480 -8 OFFCURVE",
"487 -15 OFFCURVE",
"495 -15 CURVE SMOOTH",
"503 -15 OFFCURVE",
"510 -8 OFFCURVE",
"510 0 CURVE SMOOTH",
"510 485 LINE",
"945 485 LINE SMOOTH",
"953 485 OFFCURVE",
"960 492 OFFCURVE",
"960 500 CURVE SMOOTH",
"960 508 OFFCURVE",
"953 515 OFFCURVE",
"945 515 CURVE SMOOTH",
"45 515 LINE SMOOTH"
);
}
);
width = 990;
},
{
layerId = "BA964981-AC0A-4481-A535-297F9E9B05B4";
paths = (
{
closed = 1;
nodes = (
"64 575 OFFCURVE",
"30 541 OFFCURVE",
"30 500 CURVE SMOOTH",
"30 459 OFFCURVE",
"64 425 OFFCURVE",
"105 425 CURVE SMOOTH",
"480 425 LINE",
"480 0 LINE SMOOTH",
"480 -41 OFFCURVE",
"514 -75 OFFCURVE",
"555 -75 CURVE SMOOTH",
"596 -75 OFFCURVE",
"630 -41 OFFCURVE",
"630 0 CURVE SMOOTH",
"630 425 LINE",
"1005 425 LINE SMOOTH",
"1046 425 OFFCURVE",
"1080 459 OFFCURVE",
"1080 500 CURVE SMOOTH",
"1080 541 OFFCURVE",
"1046 575 OFFCURVE",
"1005 575 CURVE SMOOTH",
"105 575 LINE SMOOTH"
);
}
);
width = 1110;
}
);
unicode = 0054;
},
{
color = 10;
glyphname = U;
lastChange = "2019-01-22 14:04:59 +0000";
layers = (
{
layerId = "ADA7F6FF-5955-4EF3-8FA7-BADC10F8EE4C";
paths = (
{
closed = 1;
nodes = (
"120 525 OFFCURVE",
"100 545 OFFCURVE",
"75 545 CURVE SMOOTH",
"50 545 OFFCURVE",
"30 525 OFFCURVE",
"30 500 CURVE SMOOTH",
"30 0 LINE SMOOTH",
"30 -25 OFFCURVE",
"50 -45 OFFCURVE",
"75 -45 CURVE SMOOTH",
"975 -45 LINE SMOOTH",
"1000 -45 OFFCURVE",
"1020 -25 OFFCURVE",
"1020 0 CURVE SMOOTH",
"1020 500 LINE SMOOTH",
"1020 525 OFFCURVE",
"1000 545 OFFCURVE",
"975 545 CURVE SMOOTH",
"950 545 OFFCURVE",
"930 525 OFFCURVE",
"930 500 CURVE SMOOTH",
"930 45 LINE",
"120 45 LINE",
"120 500 LINE SMOOTH"
);
}
);
width = 1050;
},
{
associatedMasterId = "ADA7F6FF-5955-4EF3-8FA7-BADC10F8EE4C";
layerId = "846C0801-3315-4FA7-B339-6147F971ED18";
name = path;
paths = (
{
closed = 0;
nodes = (
"975 500 LINE",
"975 0 LINE",
"75 0 LINE",
"75 500 LINE"
);
}
);
visible = 1;
width = 1000;
},
{
layerId = "89EE149F-7564-47C9-BE54-DE0A35C75344";
paths = (
{
closed = 1;
nodes = (
"60 508 OFFCURVE",
"53 515 OFFCURVE",
"45 515 CURVE SMOOTH",
"37 515 OFFCURVE",
"30 508 OFFCURVE",
"30 500 CURVE SMOOTH",
"30 0 LINE SMOOTH",
"30 -8 OFFCURVE",
"37 -15 OFFCURVE",
"45 -15 CURVE SMOOTH",
"945 -15 LINE SMOOTH",
"953 -15 OFFCURVE",
"960 -8 OFFCURVE",
"960 0 CURVE SMOOTH",
"960 500 LINE SMOOTH",
"960 508 OFFCURVE",
"953 515 OFFCURVE",
"945 515 CURVE SMOOTH",
"937 515 OFFCURVE",
"930 508 OFFCURVE",
"930 500 CURVE SMOOTH",
"930 15 LINE",
"60 15 LINE",
"60 500 LINE SMOOTH"
);
}
);
width = 990;
},
{
layerId = "BA964981-AC0A-4481-A535-297F9E9B05B4";
paths = (
{
closed = 1;
nodes = (
"180 541 OFFCURVE",
"146 575 OFFCURVE",
"105 575 CURVE SMOOTH",
"64 575 OFFCURVE",
"30 541 OFFCURVE",
"30 500 CURVE SMOOTH",
"30 0 LINE SMOOTH",
"30 -41 OFFCURVE",
"64 -75 OFFCURVE",
"105 -75 CURVE SMOOTH",
"1005 -75 LINE SMOOTH",
"1046 -75 OFFCURVE",
"1080 -41 OFFCURVE",
"1080 0 CURVE SMOOTH",
"1080 500 LINE SMOOTH",
"1080 541 OFFCURVE",
"1046 575 OFFCURVE",
"1005 575 CURVE SMOOTH",
"964 575 OFFCURVE",
"930 541 OFFCURVE",
"930 500 CURVE SMOOTH",
"930 75 LINE",
"180 75 LINE",
"180 500 LINE SMOOTH"
);
}
);
width = 1110;
}
);
unicode = 0055;
},
{
color = 10;
glyphname = V;
lastChange = "2019-01-22 14:04:59 +0000";
layers = (
{
layerId = "ADA7F6FF-5955-4EF3-8FA7-BADC10F8EE4C";
paths = (
{
closed = 1;
nodes = (
"100 539 OFFCURVE",
"88 545 OFFCURVE",
"75 545 CURVE SMOOTH",
"50 545 OFFCURVE",
"30 525 OFFCURVE",
"30 500 CURVE SMOOTH",
"30 488 OFFCURVE",
"34 478 OFFCURVE",
"42 470 CURVE",
"491 -30 LINE SMOOTH",
"500 -39 OFFCURVE",
"512 -45 OFFCURVE",
"525 -45 CURVE SMOOTH",
"538.521 -45 OFFCURVE",
"550.579 -39.15 OFFCURVE",
"558.802 -29.823 CURVE SMOOTH",
"1008 470 LINE",
"1016 478 OFFCURVE",
"1020 488 OFFCURVE",
"1020 500 CURVE SMOOTH",
"1020 525 OFFCURVE",
"1000 545 OFFCURVE",
"975 545 CURVE SMOOTH",
"962 545 OFFCURVE",
"950 539 OFFCURVE",
"941 530 CURVE",
"525 66.748 LINE",
"109 530 LINE"
);
}
);
width = 1050;
},
{
associatedMasterId = "ADA7F6FF-5955-4EF3-8FA7-BADC10F8EE4C";
layerId = "67036B0E-AB36-43A6-B0F3-2B01F748710F";
name = path;
paths = (
{
closed = 0;
nodes = (
"75 500 LINE",
"525 0 LINE",
"975 500 LINE"
);
}
);
visible = 1;
width = 1050;
},
{
layerId = "89EE149F-7564-47C9-BE54-DE0A35C75344";
paths = (
{
closed = 1;
nodes = (
"53 513 OFFCURVE",
"49 515 OFFCURVE",
"45 515 CURVE SMOOTH",
"37 515 OFFCURVE",
"30 508 OFFCURVE",
"30 500 CURVE SMOOTH",
"30 496 OFFCURVE",
"31 493 OFFCURVE",
"34 490 CURVE",
"484 -10 LINE SMOOTH",
"487 -13 OFFCURVE",
"491 -15 OFFCURVE",
"495 -15 CURVE SMOOTH",
"499 -15 OFFCURVE",
"503 -13 OFFCURVE",
"506 -10 CURVE SMOOTH",
"956 490 LINE",
"959 493 OFFCURVE",
"960 496 OFFCURVE",
"960 500 CURVE SMOOTH",
"960 508 OFFCURVE",
"953 515 OFFCURVE",
"945 515 CURVE SMOOTH",
"941 515 OFFCURVE",
"937 513 OFFCURVE",
"934 510 CURVE",
"495 22 LINE",
"56 510 LINE"
);
}
);
width = 990;
},
{
layerId = "BA964981-AC0A-4481-A535-297F9E9B05B4";
paths = (
{
closed = 1;
nodes = (
"147 565 OFFCURVE",
"127 575 OFFCURVE",
"105 575 CURVE SMOOTH",
"64 575 OFFCURVE",
"30 541 OFFCURVE",
"30 500 CURVE SMOOTH",
"30 481 OFFCURVE",
"37 463 OFFCURVE",
"49 450 CURVE SMOOTH",
"499 -50 LINE SMOOTH",
"513 -65 OFFCURVE",
"533 -75 OFFCURVE",
"555 -75 CURVE SMOOTH",
"577 -75 OFFCURVE",
"597 -65 OFFCURVE",
"611 -50 CURVE SMOOTH",
"1061 450 LINE SMOOTH",
"1073 463 OFFCURVE",
"1080 481 OFFCURVE",
"1080 500 CURVE SMOOTH",
"1080 541 OFFCURVE",
"1046 575 OFFCURVE",
"1005 575 CURVE SMOOTH",
"983 575 OFFCURVE",
"963 565 OFFCURVE",
"949 550 CURVE SMOOTH",
"555 112 LINE",
"161 550 LINE SMOOTH"
);
}
);
width = 1110;
}
);
unicode = 0056;
},
{
color = 10;
glyphname = W;
lastChange = "2019-01-22 14:04:59 +0000";
layers = (
{
layerId = "ADA7F6FF-5955-4EF3-8FA7-BADC10F8EE4C";
paths = (
{
closed = 1;
nodes = (
"111 533 OFFCURVE",
"94 545 OFFCURVE",
"75 545 CURVE SMOOTH",
"50 545 OFFCURVE",
"30 525 OFFCURVE",
"30 500 CURVE SMOOTH",
"30 494 OFFCURVE",
"31 488 OFFCURVE",
"34 482 CURVE",
"233 -16 LINE",
"239 -33 OFFCURVE",
"256 -45 OFFCURVE",
"275 -45 CURVE SMOOTH",
"293.218 -45 OFFCURVE",
"308.781 -34.379 OFFCURVE",
"315.884 -18.943 CURVE SMOOTH",
"525 399 LINE",
"734 -19 LINE SMOOTH",
"742 -34 OFFCURVE",
"757 -45 OFFCURVE",
"775 -45 CURVE SMOOTH",
"795 -45 OFFCURVE",
"812 -32 OFFCURVE",
"818 -14 CURVE",
"1016 482 LINE",
"1019 488 OFFCURVE",
"1020 494 OFFCURVE",
"1020 500 CURVE SMOOTH",
"1020 525 OFFCURVE",
"1000 545 OFFCURVE",
"975 545 CURVE SMOOTH",
"956 545 OFFCURVE",
"939 533 OFFCURVE",
"933 516 CURVE",
"771 110 LINE",
"566 519 LINE SMOOTH",
"558 534 OFFCURVE",
"543 545 OFFCURVE",
"525 545 CURVE SMOOTH",
"506.782 545 OFFCURVE",
"491.219 534.379 OFFCURVE",
"484.116 518.943 CURVE SMOOTH",
"279.354 109.708 LINE",
"117 516 LINE"
);
}
);
width = 1050;
},
{
layerId = "89EE149F-7564-47C9-BE54-DE0A35C75344";
paths = (
{
closed = 1;
nodes = (
"57 511 OFFCURVE",
"51 515 OFFCURVE",
"45 515 CURVE SMOOTH",
"37 515 OFFCURVE",
"30 508 OFFCURVE",
"30 500 CURVE SMOOTH",
"30 498 OFFCURVE",
"30 496 OFFCURVE",
"31 494 CURVE",
"231 -5 LINE",
"233 -11 OFFCURVE",
"239 -15 OFFCURVE",
"245 -15 CURVE SMOOTH",
"251 -15 OFFCURVE",
"256 -11 OFFCURVE",
"259 -6 CURVE",
"495 467 LINE",
"731 -6 LINE",
"734 -11 OFFCURVE",
"739 -15 OFFCURVE",
"745 -15 CURVE SMOOTH",
"752 -15 OFFCURVE",
"758 -10 OFFCURVE",
"759 -4 CURVE",
"959 494 LINE",
"960 496 OFFCURVE",
"960 498 OFFCURVE",
"960 500 CURVE SMOOTH",
"960 508 OFFCURVE",
"953 515 OFFCURVE",
"945 515 CURVE SMOOTH",
"939 515 OFFCURVE",
"933 511 OFFCURVE",
"931 505 CURVE",
"743 37 LINE",
"509 506 LINE",
"506 511 OFFCURVE",
"501 515 OFFCURVE",
"495 515 CURVE SMOOTH",
"489 515 OFFCURVE",
"484 511 OFFCURVE",
"481 506 CURVE",
"247 37 LINE",
"59 505 LINE"
);
}
);
width = 990;
},
{
layerId = "BA964981-AC0A-4481-A535-297F9E9B05B4";
paths = (
{
closed = 1;
nodes = (
"165 555 OFFCURVE",
"137 575 OFFCURVE",
"105 575 CURVE SMOOTH",
"64 575 OFFCURVE",
"30 541 OFFCURVE",
"30 500 CURVE SMOOTH",
"30 490 OFFCURVE",
"32 480 OFFCURVE",
"36 471 CURVE",
"235 -26 LINE",
"245 -55 OFFCURVE",
"273 -75 OFFCURVE",
"305 -75 CURVE SMOOTH",
"335 -75 OFFCURVE",
"361 -57 OFFCURVE",
"373 -32 CURVE",
"555 333 LINE",
"737 -32 LINE",
"749 -57 OFFCURVE",
"775 -75 OFFCURVE",
"805 -75 CURVE SMOOTH",
"839 -75 OFFCURVE",
"867 -52 OFFCURVE",
"877 -22 CURVE",
"1074 471 LINE",
"1078 480 OFFCURVE",
"1080 490 OFFCURVE",
"1080 500 CURVE SMOOTH",
"1080 541 OFFCURVE",
"1046 575 OFFCURVE",
"1005 575 CURVE SMOOTH",
"973 575 OFFCURVE",
"945 555 OFFCURVE",
"935 526 CURVE",
"797 182 LINE",
"623 532 LINE SMOOTH",
"611 557 OFFCURVE",
"585 575 OFFCURVE",
"555 575 CURVE SMOOTH",
"525 575 OFFCURVE",
"499 557 OFFCURVE",
"487 532 CURVE SMOOTH",
"313 182 LINE",
"175 526 LINE"
);
}
);
width = 1110;
},
{
associatedMasterId = "ADA7F6FF-5955-4EF3-8FA7-BADC10F8EE4C";
layerId = "AB94B2C7-1589-447A-8EDA-BE38D8082D93";
name = path;
paths = (
{
closed = 0;
nodes = (
"975 500 LINE",
"775 0 LINE",
"525 500 LINE",
"275 0 LINE",
"75 500 LINE"
);
}
);
visible = 1;
width = 1050;
}
);
unicode = 0057;
},
{
color = 10;
glyphname = X;
lastChange = "2019-01-22 14:04:59 +0000";
layers = (
{
layerId = "ADA7F6FF-5955-4EF3-8FA7-BADC10F8EE4C";
paths = (
{
closed = 1;
nodes = (
"91 543 OFFCURVE",
"83 545 OFFCURVE",
"75 545 CURVE SMOOTH",
"50 545 OFFCURVE",
"30 525 OFFCURVE",
"30 500 CURVE SMOOTH",
"30 483 OFFCURVE",
"40 468 OFFCURVE",
"54 460 CURVE SMOOTH",
"432 250 LINE",
"54 40 LINE SMOOTH",
"40 32 OFFCURVE",
"30 17 OFFCURVE",
"30 0 CURVE SMOOTH",
"30 -25 OFFCURVE",
"50 -45 OFFCURVE",
"75 -45 CURVE SMOOTH",
"83 -45 OFFCURVE",
"91 -43 OFFCURVE",
"98 -39 CURVE SMOOTH",
"525 199 LINE",
"952 -39 LINE SMOOTH",
"959 -43 OFFCURVE",
"967 -45 OFFCURVE",
"975 -45 CURVE SMOOTH",
"1000 -45 OFFCURVE",
"1020 -25 OFFCURVE",
"1020 0 CURVE SMOOTH",
"1020 17 OFFCURVE",
"1010 32 OFFCURVE",
"996 40 CURVE SMOOTH",
"618 250 LINE",
"996 460 LINE SMOOTH",
"1010 468 OFFCURVE",
"1020 483 OFFCURVE",
"1020 500 CURVE SMOOTH",
"1020 525 OFFCURVE",
"1000 545 OFFCURVE",
"975 545 CURVE SMOOTH",
"967 545 OFFCURVE",
"959 543 OFFCURVE",
"952 539 CURVE SMOOTH",
"525 301 LINE",
"98 539 LINE SMOOTH"
);
}
);
width = 1050;
},
{
associatedMasterId = "ADA7F6FF-5955-4EF3-8FA7-BADC10F8EE4C";
layerId = "F83150C8-03EC-4E49-819E-2CB0787160C7";
name = path;
paths = (
{
closed = 0;
nodes = (
"75 500 LINE",
"975 0 LINE"
);
},
{
closed = 0;
nodes = (
"975 500 LINE",
"75 0 LINE"
);
}
);
visible = 1;
width = 1050;
},
{
layerId = "89EE149F-7564-47C9-BE54-DE0A35C75344";
paths = (
{
closed = 1;
nodes = (
"50 514 OFFCURVE",
"48 515 OFFCURVE",
"45 515 CURVE SMOOTH",
"37 515 OFFCURVE",
"30 508 OFFCURVE",
"30 500 CURVE SMOOTH",
"30 494 OFFCURVE",
"33 489 OFFCURVE",
"38 487 CURVE SMOOTH",
"464 250 LINE",
"38 13 LINE SMOOTH",
"33 11 OFFCURVE",
"30 6 OFFCURVE",
"30 0 CURVE SMOOTH",
"30 -8 OFFCURVE",
"37 -15 OFFCURVE",
"45 -15 CURVE SMOOTH",
"48 -15 OFFCURVE",
"50 -14 OFFCURVE",
"53 -13 CURVE SMOOTH",
"495 233 LINE",
"937 -13 LINE SMOOTH",
"940 -14 OFFCURVE",
"942 -15 OFFCURVE",
"945 -15 CURVE SMOOTH",
"953 -15 OFFCURVE",
"960 -8 OFFCURVE",
"960 0 CURVE SMOOTH",
"960 6 OFFCURVE",
"957 11 OFFCURVE",
"952 13 CURVE SMOOTH",
"526 250 LINE",
"952 487 LINE SMOOTH",
"957 489 OFFCURVE",
"960 494 OFFCURVE",
"960 500 CURVE SMOOTH",
"960 508 OFFCURVE",
"953 515 OFFCURVE",
"945 515 CURVE SMOOTH",
"942 515 OFFCURVE",
"940 514 OFFCURVE",
"937 513 CURVE SMOOTH",
"495 267 LINE",
"53 513 LINE SMOOTH"
);
}
);
width = 990;
},
{
layerId = "BA964981-AC0A-4481-A535-297F9E9B05B4";
paths = (
{
closed = 1;
nodes = (
"132 571 OFFCURVE",
"119 575 OFFCURVE",
"105 575 CURVE SMOOTH",
"64 575 OFFCURVE",
"30 541 OFFCURVE",
"30 500 CURVE SMOOTH",
"30 471 OFFCURVE",
"46 446 OFFCURVE",
"70 434 CURVE SMOOTH",
"401 250 LINE",
"70 66 LINE SMOOTH",
"46 54 OFFCURVE",
"30 29 OFFCURVE",
"30 0 CURVE SMOOTH",
"30 -41 OFFCURVE",
"64 -75 OFFCURVE",
"105 -75 CURVE SMOOTH",
"119 -75 OFFCURVE",
"132 -71 OFFCURVE",
"143 -65 CURVE SMOOTH",
"555 164 LINE",
"967 -65 LINE SMOOTH",
"978 -71 OFFCURVE",
"991 -75 OFFCURVE",
"1005 -75 CURVE SMOOTH",
"1046 -75 OFFCURVE",
"1080 -41 OFFCURVE",
"1080 0 CURVE SMOOTH",
"1080 29 OFFCURVE",
"1064 54 OFFCURVE",
"1040 66 CURVE SMOOTH",
"709 250 LINE",
"1040 434 LINE SMOOTH",
"1064 446 OFFCURVE",
"1080 471 OFFCURVE",
"1080 500 CURVE SMOOTH",
"1080 541 OFFCURVE",
"1046 575 OFFCURVE",
"1005 575 CURVE SMOOTH",
"991 575 OFFCURVE",
"978 571 OFFCURVE",
"967 565 CURVE SMOOTH",
"555 336 LINE",
"143 565 LINE SMOOTH"
);
}
);
width = 1110;
}
);
unicode = 0058;
},
{
color = 10;
glyphname = Y;
lastChange = "2019-01-22 14:04:59 +0000";
layers = (
{
associatedMasterId = "ADA7F6FF-5955-4EF3-8FA7-BADC10F8EE4C";
layerId = "657B65C7-D9B0-4D8F-89FD-CE9F188AEA81";
name = path;
paths = (
{
closed = 0;
nodes = (
"75 500 LINE",
"525 100 LINE",
"975 500 LINE"
);
},
{
closed = 0;
nodes = (
"525 100 LINE",
"525 0 LINE"
);
}
);
visible = 1;
width = 1050;
},
{
layerId = "ADA7F6FF-5955-4EF3-8FA7-BADC10F8EE4C";
paths = (
{
closed = 1;
nodes = (
"97 541 OFFCURVE",
"87 545 OFFCURVE",
"75 545 CURVE SMOOTH",
"50 545 OFFCURVE",
"30 525 OFFCURVE",
"30 500 CURVE SMOOTH",
"30 487 OFFCURVE",
"36 474 OFFCURVE",
"45 466 CURVE SMOOTH",
"480 80 LINE",
"480 0 LINE SMOOTH",
"480 -25 OFFCURVE",
"500 -45 OFFCURVE",
"525 -45 CURVE SMOOTH",
"550 -45 OFFCURVE",
"570 -25 OFFCURVE",
"570 0 CURVE SMOOTH",
"570 80 LINE",
"1005 466 LINE SMOOTH",
"1014 474 OFFCURVE",
"1020 487 OFFCURVE",
"1020 500 CURVE SMOOTH",
"1020 525 OFFCURVE",
"1000 545 OFFCURVE",
"975 545 CURVE SMOOTH",
"963 545 OFFCURVE",
"953 541 OFFCURVE",
"945 534 CURVE SMOOTH",
"525 160 LINE",
"105 534 LINE SMOOTH"
);
}
);
width = 1050;
},
{
layerId = "89EE149F-7564-47C9-BE54-DE0A35C75344";
paths = (
{
closed = 1;
nodes = (
"52 514 OFFCURVE",
"49 515 OFFCURVE",
"45 515 CURVE SMOOTH",
"37 515 OFFCURVE",
"30 508 OFFCURVE",
"30 500 CURVE SMOOTH",
"30 496 OFFCURVE",
"32 491 OFFCURVE",
"35 489 CURVE SMOOTH",
"480 93 LINE",
"480 0 LINE SMOOTH",
"480 -8 OFFCURVE",
"487 -15 OFFCURVE",
"495 -15 CURVE SMOOTH",
"503 -15 OFFCURVE",
"510 -8 OFFCURVE",
"510 0 CURVE SMOOTH",
"510 93 LINE",
"955 489 LINE SMOOTH",
"958 491 OFFCURVE",
"960 496 OFFCURVE",
"960 500 CURVE SMOOTH",
"960 508 OFFCURVE",
"953 515 OFFCURVE",
"945 515 CURVE SMOOTH",
"941 515 OFFCURVE",
"938 514 OFFCURVE",
"935 511 CURVE SMOOTH",
"495 120 LINE",
"55 511 LINE SMOOTH"
);
}
);
width = 990;
},
{
layerId = "BA964981-AC0A-4481-A535-297F9E9B05B4";
paths = (
{
closed = 1;
nodes = (
"142 568 OFFCURVE",
"124 575 OFFCURVE",
"105 575 CURVE SMOOTH",
"64 575 OFFCURVE",
"30 541 OFFCURVE",
"30 500 CURVE SMOOTH",
"30 478 OFFCURVE",
"40 458 OFFCURVE",
"55 444 CURVE SMOOTH",
"480 66 LINE",
"480 0 LINE SMOOTH",
"480 -41 OFFCURVE",
"514 -75 OFFCURVE",
"555 -75 CURVE SMOOTH",
"596 -75 OFFCURVE",
"630 -41 OFFCURVE",
"630 0 CURVE SMOOTH",
"630 66 LINE",
"1055 444 LINE SMOOTH",
"1070 458 OFFCURVE",
"1080 478 OFFCURVE",
"1080 500 CURVE SMOOTH",
"1080 541 OFFCURVE",
"1046 575 OFFCURVE",
"1005 575 CURVE SMOOTH",
"986 575 OFFCURVE",
"968 568 OFFCURVE",
"955 556 CURVE SMOOTH",
"555 200 LINE",
"155 556 LINE SMOOTH"
);
}
);
width = 1110;
}
);
unicode = 0059;
},
{
color = 10;
glyphname = Z;
lastChange = "2019-01-22 14:04:59 +0000";
layers = (
{
layerId = "ADA7F6FF-5955-4EF3-8FA7-BADC10F8EE4C";
paths = (
{
closed = 1;
nodes = (
"50 545 OFFCURVE",
"30 525 OFFCURVE",
"30 500 CURVE SMOOTH",
"30 475 OFFCURVE",
"50 455 OFFCURVE",
"75 455 CURVE SMOOTH",
"801 455 LINE",
"54 40 LINE SMOOTH",
"40 32 OFFCURVE",
"30 17 OFFCURVE",
"30 0 CURVE SMOOTH",
"30 -25 OFFCURVE",
"50 -45 OFFCURVE",
"75 -45 CURVE SMOOTH",
"975 -45 LINE SMOOTH",
"1000 -45 OFFCURVE",
"1020 -25 OFFCURVE",
"1020 0 CURVE SMOOTH",
"1020 25 OFFCURVE",
"1000 45 OFFCURVE",
"975 45 CURVE SMOOTH",
"249 45 LINE",
"996 460 LINE SMOOTH",
"1010 468 OFFCURVE",
"1020 483 OFFCURVE",
"1020 500 CURVE SMOOTH",
"1020 525 OFFCURVE",
"1000 545 OFFCURVE",
"975 545 CURVE SMOOTH",
"75 545 LINE SMOOTH"
);
}
);
width = 1050;
},
{
associatedMasterId = "ADA7F6FF-5955-4EF3-8FA7-BADC10F8EE4C";
layerId = "12B388FB-A8AF-4469-AE23-40117660B6A7";
name = path;
paths = (
{
closed = 0;
nodes = (
"975 0 LINE",
"75 0 LINE",
"975 500 LINE",
"75 500 LINE"
);
}
);
visible = 1;
width = 1050;
},
{
layerId = "89EE149F-7564-47C9-BE54-DE0A35C75344";
paths = (
{
closed = 1;
nodes = (
"37 515 OFFCURVE",
"30 508 OFFCURVE",
"30 500 CURVE SMOOTH",
"30 492 OFFCURVE",
"37 485 OFFCURVE",
"45 485 CURVE SMOOTH",
"887 485 LINE",
"40 14 LINE",
"34 12 OFFCURVE",
"30 6 OFFCURVE",
"30 0 CURVE SMOOTH",
"30 -8 OFFCURVE",
"37 -15 OFFCURVE",
"45 -15 CURVE SMOOTH",
"945 -15 LINE SMOOTH",
"953 -15 OFFCURVE",
"960 -8 OFFCURVE",
"960 0 CURVE SMOOTH",
"960 8 OFFCURVE",
"953 15 OFFCURVE",
"945 15 CURVE SMOOTH",
"103 15 LINE",
"950 486 LINE",
"956 488 OFFCURVE",
"960 494 OFFCURVE",
"960 500 CURVE SMOOTH",
"960 508 OFFCURVE",
"953 515 OFFCURVE",
"945 515 CURVE SMOOTH",
"45 515 LINE SMOOTH"
);
}
);
width = 990;
},
{
layerId = "BA964981-AC0A-4481-A535-297F9E9B05B4";
paths = (
{
closed = 1;
nodes = (
"64 575 OFFCURVE",
"30 541 OFFCURVE",
"30 500 CURVE SMOOTH",
"30 459 OFFCURVE",
"64 425 OFFCURVE",
"105 425 CURVE SMOOTH",
"715 425 LINE",
"73 68 LINE",
"48 56 OFFCURVE",
"30 30 OFFCURVE",
"30 0 CURVE SMOOTH",
"30 -41 OFFCURVE",
"64 -75 OFFCURVE",
"105 -75 CURVE SMOOTH",
"1005 -75 LINE SMOOTH",
"1046 -75 OFFCURVE",
"1080 -41 OFFCURVE",
"1080 0 CURVE SMOOTH",
"1080 41 OFFCURVE",
"1046 75 OFFCURVE",
"1005 75 CURVE SMOOTH",
"395 75 LINE",
"1037 432 LINE",
"1062 444 OFFCURVE",
"1080 470 OFFCURVE",
"1080 500 CURVE SMOOTH",
"1080 541 OFFCURVE",
"1046 575 OFFCURVE",
"1005 575 CURVE SMOOTH",
"105 575 LINE SMOOTH"
);
}
);
width = 1110;
}
);
unicode = 005A;
},
{
color = 10;
glyphname = A.alt1;
lastChange = "2019-01-22 14:04:59 +0000";
layers = (
{
layerId = "ADA7F6FF-5955-4EF3-8FA7-BADC10F8EE4C";
paths = (
{
closed = 1;
nodes = (
"930 455 LINE",
"930 295 LINE",
"120 295 LINE",
"120 455 LINE"
);
},
{
closed = 1;
nodes = (
"50 545 OFFCURVE",
"30 525 OFFCURVE",
"30 500 CURVE SMOOTH",
"30 0 LINE SMOOTH",
"30 -25 OFFCURVE",
"50 -45 OFFCURVE",
"75 -45 CURVE SMOOTH",
"100 -45 OFFCURVE",
"120 -25 OFFCURVE",
"120 0 CURVE SMOOTH",
"120 205 LINE",
"930 205 LINE",
"930 0 LINE SMOOTH",
"930 -25 OFFCURVE",
"950 -45 OFFCURVE",
"975 -45 CURVE SMOOTH",
"1000 -45 OFFCURVE",
"1020 -25 OFFCURVE",
"1020 0 CURVE SMOOTH",
"1020 500 LINE SMOOTH",
"1020 525 OFFCURVE",
"1000 545 OFFCURVE",
"975 545 CURVE SMOOTH",
"75 545 LINE SMOOTH"
);
}
);
width = 1050;
},
{
associatedMasterId = "ADA7F6FF-5955-4EF3-8FA7-BADC10F8EE4C";
layerId = "C76ABC3D-1B0F-4ED1-87B2-8BB7EF0BC64A";
name = path;
paths = (
{
closed = 0;
nodes = (
"75 0 LINE",
"75 500 LINE",
"975 500 LINE",
"975 0 LINE"
);
},
{
closed = 0;
nodes = (
"75 250 LINE",
"975 250 LINE"
);
}
);
visible = 1;
width = 1050;
},
{
layerId = "89EE149F-7564-47C9-BE54-DE0A35C75344";
paths = (
{
closed = 1;
nodes = (
"930 485 LINE",
"930 265 LINE",
"60 265 LINE",
"60 485 LINE"
);
},
{
closed = 1;
nodes = (
"37 515 OFFCURVE",
"30 508 OFFCURVE",
"30 500 CURVE SMOOTH",
"30 0 LINE SMOOTH",
"30 -8 OFFCURVE",
"37 -15 OFFCURVE",
"45 -15 CURVE SMOOTH",
"53 -15 OFFCURVE",
"60 -8 OFFCURVE",
"60 0 CURVE SMOOTH",
"60 235 LINE",
"930 235 LINE",
"930 0 LINE SMOOTH",
"930 -8 OFFCURVE",
"937 -15 OFFCURVE",
"945 -15 CURVE SMOOTH",
"953 -15 OFFCURVE",
"960 -8 OFFCURVE",
"960 0 CURVE SMOOTH",
"960 500 LINE SMOOTH",
"960 508 OFFCURVE",
"953 515 OFFCURVE",
"945 515 CURVE SMOOTH",
"45 515 LINE SMOOTH"
);
}
);
width = 990;
},
{
layerId = "BA964981-AC0A-4481-A535-297F9E9B05B4";
paths = (
{
closed = 1;
nodes = (
"930 425 LINE",
"930 325 LINE",
"180 325 LINE",
"180 425 LINE"
);
},
{
closed = 1;
nodes = (
"64 575 OFFCURVE",
"30 541 OFFCURVE",
"30 500 CURVE SMOOTH",
"30 0 LINE SMOOTH",
"30 -41 OFFCURVE",
"64 -75 OFFCURVE",
"105 -75 CURVE SMOOTH",
"146 -75 OFFCURVE",
"180 -41 OFFCURVE",
"180 0 CURVE SMOOTH",
"180 175 LINE",
"930 175 LINE",
"930 0 LINE SMOOTH",
"930 -41 OFFCURVE",
"964 -75 OFFCURVE",
"1005 -75 CURVE SMOOTH",
"1046 -75 OFFCURVE",
"1080 -41 OFFCURVE",
"1080 0 CURVE SMOOTH",
"1080 500 LINE SMOOTH",
"1080 541 OFFCURVE",
"1046 575 OFFCURVE",
"1005 575 CURVE SMOOTH",
"105 575 LINE SMOOTH"
);
}
);
width = 1110;
}
);
},
{
color = 10;
glyphname = W.alt1;
lastChange = "2019-01-22 14:04:59 +0000";
layers = (
{
layerId = "ADA7F6FF-5955-4EF3-8FA7-BADC10F8EE4C";
paths = (
{
closed = 1;
nodes = (
"30 -25 OFFCURVE",
"50 -45 OFFCURVE",
"75 -45 CURVE SMOOTH",
"87.221 -45 OFFCURVE",
"98 -40 OFFCURVE",
"106 -33 CURVE",
"525 293.013 LINE",
"945 -33 LINE SMOOTH",
"954 -40 OFFCURVE",
"962.701 -44.966 OFFCURVE",
"974.869 -45 CURVE SMOOTH",
"1000 -45 OFFCURVE",
"1020 -25 OFFCURVE",
"1020 0 CURVE SMOOTH",
"1020 500 LINE SMOOTH",
"1020 525 OFFCURVE",
"1000 545 OFFCURVE",
"975 545 CURVE SMOOTH",
"950 545 OFFCURVE",
"930 525 OFFCURVE",
"930 500 CURVE SMOOTH",
"930 91.964 LINE",
"556.325 382.415 LINE",
"548.246 390.221 OFFCURVE",
"537.221 395 OFFCURVE",
"525 395 CURVE SMOOTH",
"512.701 394.966 OFFCURVE",
"501.725 390.193 OFFCURVE",
"493.675 382.415 CURVE",
"120 91.964 LINE",
"120 500 LINE SMOOTH",
"120 525 OFFCURVE",
"100 545 OFFCURVE",
"75 545 CURVE SMOOTH",
"50 545 OFFCURVE",
"30 525 OFFCURVE",
"30 500 CURVE SMOOTH",
"30 0 LINE SMOOTH"
);
}
);
width = 1050;
},
{
associatedMasterId = "ADA7F6FF-5955-4EF3-8FA7-BADC10F8EE4C";
layerId = "21F35DD4-6C00-4465-97E7-F5C22FD6A676";
name = path;
paths = (
{
closed = 0;
nodes = (
"975 500 LINE",
"975 0 LINE",
"525 350 LINE",
"75 0 LINE",
"75 500 LINE"
);
}
);
visible = 1;
width = 1050;
},
{
layerId = "89EE149F-7564-47C9-BE54-DE0A35C75344";
paths = (
{
closed = 1;
nodes = (
"30 -8 OFFCURVE",
"37 -15 OFFCURVE",
"45 -15 CURVE SMOOTH",
"48 -15 OFFCURVE",
"51 -14 OFFCURVE",
"54 -12 CURVE SMOOTH",
"495 331 LINE",
"936 -12 LINE",
"939 -14 OFFCURVE",
"942 -15 OFFCURVE",
"945 -15 CURVE SMOOTH",
"953 -15 OFFCURVE",
"960 -8 OFFCURVE",
"960 0 CURVE SMOOTH",
"960 500 LINE SMOOTH",
"960 508 OFFCURVE",
"953 515 OFFCURVE",
"945 515 CURVE SMOOTH",
"937 515 OFFCURVE",
"930 508 OFFCURVE",
"930 500 CURVE SMOOTH",
"930 31 LINE",
"504 362 LINE",
"501 364 OFFCURVE",
"498 365 OFFCURVE",
"495 365 CURVE SMOOTH",
"491 365 OFFCURVE",
"488 364 OFFCURVE",
"486 362 CURVE",
"60 31 LINE",
"60 500 LINE SMOOTH",
"60 508 OFFCURVE",
"53 515 OFFCURVE",
"45 515 CURVE SMOOTH",
"37 515 OFFCURVE",
"30 508 OFFCURVE",
"30 500 CURVE SMOOTH",
"30 0 LINE SMOOTH"
);
}
);
width = 990;
},
{
layerId = "BA964981-AC0A-4481-A535-297F9E9B05B4";
paths = (
{
closed = 1;
nodes = (
"30 -41 OFFCURVE",
"64 -75 OFFCURVE",
"105 -75 CURVE SMOOTH",
"123 -75 OFFCURVE",
"139 -69 OFFCURVE",
"152 -58 CURVE",
"555 255 LINE",
"958 -59 LINE SMOOTH",
"971 -69 OFFCURVE",
"987 -75 OFFCURVE",
"1005 -75 CURVE SMOOTH",
"1046 -75 OFFCURVE",
"1080 -41 OFFCURVE",
"1080 0 CURVE SMOOTH",
"1080 500 LINE SMOOTH",
"1080 541 OFFCURVE",
"1046 575 OFFCURVE",
"1005 575 CURVE SMOOTH",
"964 575 OFFCURVE",
"930 541 OFFCURVE",
"930 500 CURVE SMOOTH",
"930 153 LINE",
"602 409 LINE SMOOTH",
"589 419 OFFCURVE",
"573 425 OFFCURVE",
"555 425 CURVE SMOOTH",
"537 425 OFFCURVE",
"521 419 OFFCURVE",
"508 409 CURVE SMOOTH",
"180 153 LINE",
"180 500 LINE SMOOTH",
"180 541 OFFCURVE",
"146 575 OFFCURVE",
"105 575 CURVE SMOOTH",
"64 575 OFFCURVE",
"30 541 OFFCURVE",
"30 500 CURVE SMOOTH",
"30 0 LINE SMOOTH"
);
}
);
width = 1110;
}
);
},
{
color = 10;
glyphname = Y.alt1;
lastChange = "2019-01-22 14:04:59 +0000";
layers = (
{
layerId = "ADA7F6FF-5955-4EF3-8FA7-BADC10F8EE4C";
paths = (
{
closed = 1;
nodes = (
"1020 500 LINE SMOOTH",
"1020 525 OFFCURVE",
"1000 545 OFFCURVE",
"975 545 CURVE SMOOTH",
"950 545 OFFCURVE",
"930 525 OFFCURVE",
"930 500 CURVE SMOOTH",
"930 295 LINE",
"120 295 LINE",
"120 500 LINE SMOOTH",
"120 525 OFFCURVE",
"100 545 OFFCURVE",
"75 545 CURVE SMOOTH",
"50 545 OFFCURVE",
"30 525 OFFCURVE",
"30 500 CURVE SMOOTH",
"30 250 LINE SMOOTH",
"30 225 OFFCURVE",
"50 205 OFFCURVE",
"75 205 CURVE SMOOTH",
"930 205 LINE",
"930 45 LINE",
"75 45 LINE SMOOTH",
"50 45 OFFCURVE",
"30 25 OFFCURVE",
"30 0 CURVE SMOOTH",
"30 -25 OFFCURVE",
"50 -45 OFFCURVE",
"75 -45 CURVE SMOOTH",
"975 -45 LINE SMOOTH",
"1000 -45 OFFCURVE",
"1020 -25 OFFCURVE",
"1020 0 CURVE SMOOTH"
);
}
);
width = 1050;
},
{
associatedMasterId = "ADA7F6FF-5955-4EF3-8FA7-BADC10F8EE4C";
layerId = "A470BCB6-1ABD-475C-BA02-AB26C613B9A9";
name = path;
paths = (
{
closed = 0;
nodes = (
"75 0 LINE",
"975 0 LINE",
"975 250 LINE"
);
},
{
closed = 0;
nodes = (
"975 500 LINE",
"975 250 LINE",
"75 250 LINE",
"75 500 LINE"
);
}
);
visible = 1;
width = 1050;
},
{
layerId = "89EE149F-7564-47C9-BE54-DE0A35C75344";
paths = (
{
closed = 1;
nodes = (
"960 500 LINE SMOOTH",
"960 508 OFFCURVE",
"953 515 OFFCURVE",
"945 515 CURVE SMOOTH",
"937 515 OFFCURVE",
"930 508 OFFCURVE",
"930 500 CURVE SMOOTH",
"930 265 LINE",
"60 265 LINE",
"60 500 LINE SMOOTH",
"60 508 OFFCURVE",
"53 515 OFFCURVE",
"45 515 CURVE SMOOTH",
"37 515 OFFCURVE",
"30 508 OFFCURVE",
"30 500 CURVE SMOOTH",
"30 250 LINE SMOOTH",
"30 242 OFFCURVE",
"37 235 OFFCURVE",
"45 235 CURVE SMOOTH",
"930 235 LINE",
"930 15 LINE",
"45 15 LINE SMOOTH",
"37 15 OFFCURVE",
"30 8 OFFCURVE",
"30 0 CURVE SMOOTH",
"30 -8 OFFCURVE",
"37 -15 OFFCURVE",
"45 -15 CURVE SMOOTH",
"945 -15 LINE SMOOTH",
"953 -15 OFFCURVE",
"960 -8 OFFCURVE",
"960 0 CURVE SMOOTH"
);
}
);
width = 990;
},
{
layerId = "BA964981-AC0A-4481-A535-297F9E9B05B4";
paths = (
{
closed = 1;
nodes = (
"1080 500 LINE SMOOTH",
"1080 541 OFFCURVE",
"1046 575 OFFCURVE",
"1005 575 CURVE SMOOTH",
"964 575 OFFCURVE",
"930 541 OFFCURVE",
"930 500 CURVE SMOOTH",
"930 325 LINE",
"180 325 LINE",
"180 500 LINE SMOOTH",
"180 541 OFFCURVE",
"146 575 OFFCURVE",
"105 575 CURVE SMOOTH",
"64 575 OFFCURVE",
"30 541 OFFCURVE",
"30 500 CURVE SMOOTH",
"30 250 LINE SMOOTH",
"30 209 OFFCURVE",
"64 175 OFFCURVE",
"105 175 CURVE SMOOTH",
"930 175 LINE",
"930 75 LINE",
"105 75 LINE SMOOTH",
"64 75 OFFCURVE",
"30 41 OFFCURVE",
"30 0 CURVE SMOOTH",
"30 -41 OFFCURVE",
"64 -75 OFFCURVE",
"105 -75 CURVE SMOOTH",
"1005 -75 LINE SMOOTH",
"1046 -75 OFFCURVE",
"1080 -41 OFFCURVE",
"1080 0 CURVE SMOOTH"
);
}
);
width = 1110;
}
);
},
{
color = 10;
glyphname = a;
lastChange = "2019-01-22 14:04:59 +0000";
layers = (
{
layerId = "ADA7F6FF-5955-4EF3-8FA7-BADC10F8EE4C";
paths = (
{
closed = 1;
nodes = (
"30 -25 OFFCURVE",
"50 -45 OFFCURVE",
"75 -45 CURVE SMOOTH",
"90 -45 OFFCURVE",
"103 -38 OFFCURVE",
"111 -27 CURVE SMOOTH",
"175 55 LINE",
"875 55 LINE",
"939 -27 LINE SMOOTH",
"947 -38 OFFCURVE",
"960 -45 OFFCURVE",
"975 -45 CURVE SMOOTH",
"1000 -45 OFFCURVE",
"1020 -25 OFFCURVE",
"1020 0 CURVE SMOOTH",
"1020 11 OFFCURVE",
"1016 20 OFFCURVE",
"1010 28 CURVE SMOOTH",
"621 527 LINE SMOOTH",
"613 538 OFFCURVE",
"600 545 OFFCURVE",
"585 545 CURVE SMOOTH",
"465 545 LINE SMOOTH",
"450 545 OFFCURVE",
"437 538 OFFCURVE",
"429 527 CURVE SMOOTH",
"40 28 LINE SMOOTH",
"34 20 OFFCURVE",
"30 11 OFFCURVE",
"30 0 CURVE SMOOTH"
);
},
{
closed = 1;
nodes = (
"487 455 LINE",
"563 455 LINE",
"805 145 LINE",
"245 145 LINE"
);
}
);
width = 1050;
},
{
associatedMasterId = "ADA7F6FF-5955-4EF3-8FA7-BADC10F8EE4C";
layerId = "E4690273-3AEC-4294-93EE-EE80F4474194";
name = path;
paths = (
{
closed = 0;
nodes = (
"75 0 LINE",
"465 500 LINE",
"585 500 LINE",
"975 0 LINE"
);
},
{
closed = 0;
nodes = (
"153 100 LINE",
"897 100 LINE"
);
}
);
visible = 1;
width = 1050;
},
{
layerId = "89EE149F-7564-47C9-BE54-DE0A35C75344";
paths = (
{
closed = 1;
nodes = (
"30 -8 OFFCURVE",
"37 -15 OFFCURVE",
"45 -15 CURVE SMOOTH",
"50 -15 OFFCURVE",
"54 -13 OFFCURVE",
"57 -9 CURVE SMOOTH",
"130 85 LINE",
"860 85 LINE",
"933 -9 LINE SMOOTH",
"936 -13 OFFCURVE",
"940 -15 OFFCURVE",
"945 -15 CURVE SMOOTH",
"953 -15 OFFCURVE",
"960 -8 OFFCURVE",
"960 0 CURVE SMOOTH",
"960 2 OFFCURVE",
"960 5 OFFCURVE",
"957 9 CURVE",
"567 509 LINE SMOOTH",
"564 513 OFFCURVE",
"560 515 OFFCURVE",
"555 515 CURVE SMOOTH",
"435 515 LINE SMOOTH",
"430 515 OFFCURVE",
"426 513 OFFCURVE",
"423 509 CURVE SMOOTH",
"33 9 LINE",
"30 5 OFFCURVE",
"30 2 OFFCURVE",
"30 0 CURVE SMOOTH"
);
},
{
closed = 1;
nodes = (
"442 485 LINE",
"548 485 LINE",
"836 115 LINE",
"154 115 LINE"
);
}
);
width = 990;
},
{
layerId = "BA964981-AC0A-4481-A535-297F9E9B05B4";
paths = (
{
closed = 1;
nodes = (
"30 -41 OFFCURVE",
"64 -75 OFFCURVE",
"105 -75 CURVE SMOOTH",
"129 -75 OFFCURVE",
"151 -63 OFFCURVE",
"165 -46 CURVE SMOOTH",
"220 25 LINE",
"890 25 LINE",
"945 -46 LINE SMOOTH",
"959 -63 OFFCURVE",
"981 -75 OFFCURVE",
"1005 -75 CURVE SMOOTH",
"1046 -75 OFFCURVE",
"1080 -41 OFFCURVE",
"1080 0 CURVE SMOOTH",
"1080 18 OFFCURVE",
"1074 34 OFFCURVE",
"1064 47 CURVE",
"675 546 LINE SMOOTH",
"661 563 OFFCURVE",
"639 575 OFFCURVE",
"615 575 CURVE SMOOTH",
"495 575 LINE SMOOTH",
"471 575 OFFCURVE",
"449 563 OFFCURVE",
"435 546 CURVE SMOOTH",
"46 47 LINE",
"36 34 OFFCURVE",
"30 18 OFFCURVE",
"30 0 CURVE SMOOTH"
);
},
{
closed = 1;
nodes = (
"532 425 LINE",
"578 425 LINE",
"773 175 LINE",
"337 175 LINE"
);
}
);
width = 1110;
}
);
unicode = 0061;
},
{
color = 10;
glyphname = ae;
lastChange = "2019-01-22 14:04:59 +0000";
layers = (
{
layerId = "ADA7F6FF-5955-4EF3-8FA7-BADC10F8EE4C";
paths = (
{
closed = 1;
nodes = (
"30 -25 OFFCURVE",
"50 -45 OFFCURVE",
"75 -45 CURVE SMOOTH",
"90 -45 OFFCURVE",
"103 -38 OFFCURVE",
"111 -26 CURVE",
"171 55 LINE",
"480 55 LINE",
"480 0 LINE SMOOTH",
"480 -25 OFFCURVE",
"500 -45 OFFCURVE",
"525 -45 CURVE SMOOTH",
"975 -45 LINE SMOOTH",
"1000 -45 OFFCURVE",
"1020 -25 OFFCURVE",
"1020 0 CURVE SMOOTH",
"1020 25 OFFCURVE",
"1000 45 OFFCURVE",
"975 45 CURVE SMOOTH",
"570 45 LINE",
"570 205 LINE",
"975 205 LINE SMOOTH",
"1000 205 OFFCURVE",
"1020 225 OFFCURVE",
"1020 250 CURVE SMOOTH",
"1020 275 OFFCURVE",
"1000 295 OFFCURVE",
"975 295 CURVE SMOOTH",
"570 295 LINE",
"570 455 LINE",
"975 455 LINE SMOOTH",
"1000 455 OFFCURVE",
"1020 475 OFFCURVE",
"1020 500 CURVE SMOOTH",
"1020 525 OFFCURVE",
"1000 545 OFFCURVE",
"975 545 CURVE SMOOTH",
"445 545 LINE SMOOTH",
"430 545 OFFCURVE",
"417 538 OFFCURVE",
"409 526 CURVE",
"39 27 LINE",
"33 20 OFFCURVE",
"30 10 OFFCURVE",
"30 0 CURVE SMOOTH"
);
},
{
closed = 1;
nodes = (
"468 455 LINE",
"480 455 LINE",
"480 145 LINE",
"238 145 LINE"
);
}
);
width = 1050;
},
{
associatedMasterId = "ADA7F6FF-5955-4EF3-8FA7-BADC10F8EE4C";
layerId = "90B71770-56A1-4548-A452-5D026B122F4E";
name = path;
paths = (
{
closed = 0;
nodes = (
"50 0 LINE",
"420 500 LINE",
"500 500 LINE"
);
},
{
closed = 0;
nodes = (
"124 100 LINE",
"500 100 LINE"
);
},
{
closed = 0;
nodes = (
"950 0 LINE",
"500 0 LINE",
"500 500 LINE",
"950 500 LINE"
);
},
{
closed = 0;
nodes = (
"500 250 LINE",
"950 250 LINE"
);
}
);
visible = 1;
width = 600;
},
{
layerId = "89EE149F-7564-47C9-BE54-DE0A35C75344";
paths = (
{
closed = 1;
nodes = (
"30 -8 OFFCURVE",
"37 -15 OFFCURVE",
"45 -15 CURVE SMOOTH",
"50 -15 OFFCURVE",
"54 -13 OFFCURVE",
"57 -9 CURVE SMOOTH",
"127 85 LINE",
"480 85 LINE",
"480 0 LINE SMOOTH",
"480 -8 OFFCURVE",
"487 -15 OFFCURVE",
"495 -15 CURVE SMOOTH",
"945 -15 LINE SMOOTH",
"953 -15 OFFCURVE",
"960 -8 OFFCURVE",
"960 0 CURVE SMOOTH",
"960 8 OFFCURVE",
"953 15 OFFCURVE",
"945 15 CURVE SMOOTH",
"510 15 LINE",
"510 235 LINE",
"945 235 LINE SMOOTH",
"953 235 OFFCURVE",
"960 242 OFFCURVE",
"960 250 CURVE SMOOTH",
"960 258 OFFCURVE",
"953 265 OFFCURVE",
"945 265 CURVE SMOOTH",
"510 265 LINE",
"510 485 LINE",
"945 485 LINE SMOOTH",
"953 485 OFFCURVE",
"960 492 OFFCURVE",
"960 500 CURVE SMOOTH",
"960 508 OFFCURVE",
"953 515 OFFCURVE",
"945 515 CURVE SMOOTH",
"415 515 LINE SMOOTH",
"410 515 OFFCURVE",
"406 513 OFFCURVE",
"403 509 CURVE SMOOTH",
"33 9 LINE",
"31 6 OFFCURVE",
"30 3 OFFCURVE",
"30 0 CURVE SMOOTH"
);
},
{
closed = 1;
nodes = (
"423 485 LINE",
"480 485 LINE",
"480 115 LINE",
"149 115 LINE"
);
}
);
width = 990;
},
{
layerId = "BA964981-AC0A-4481-A535-297F9E9B05B4";
paths = (
{
closed = 1;
nodes = (
"30 -41 OFFCURVE",
"64 -75 OFFCURVE",
"105 -75 CURVE SMOOTH",
"130 -75 OFFCURVE",
"152 -63 OFFCURVE",
"166 -44 CURVE SMOOTH",
"217 25 LINE",
"480 25 LINE",
"480 0 LINE SMOOTH",
"480 -41 OFFCURVE",
"514 -75 OFFCURVE",
"555 -75 CURVE SMOOTH",
"1005 -75 LINE SMOOTH",
"1046 -75 OFFCURVE",
"1080 -41 OFFCURVE",
"1080 0 CURVE SMOOTH",
"1080 41 OFFCURVE",
"1046 75 OFFCURVE",
"1005 75 CURVE SMOOTH",
"630 75 LINE",
"630 175 LINE",
"1005 175 LINE SMOOTH",
"1061 175 OFFCURVE",
"1080 214 OFFCURVE",
"1080 250 CURVE SMOOTH",
"1080 291 OFFCURVE",
"1046 325 OFFCURVE",
"1005 325 CURVE SMOOTH",
"630 325 LINE",
"630 425 LINE",
"1005 425 LINE SMOOTH",
"1046 425 OFFCURVE",
"1080 459 OFFCURVE",
"1080 500 CURVE SMOOTH",
"1080 541 OFFCURVE",
"1046 575 OFFCURVE",
"1005 575 CURVE SMOOTH",
"475 575 LINE SMOOTH",
"450 575 OFFCURVE",
"428 563 OFFCURVE",
"414 544 CURVE SMOOTH",
"45 45 LINE SMOOTH",
"36 33 OFFCURVE",
"30 17 OFFCURVE",
"30 0 CURVE SMOOTH"
);
},
{
closed = 1;
nodes = (
"480 380 LINE",
"480 379 LINE",
"480 175 LINE",
"328 175 LINE"
);
}
);
width = 1110;
}
);
unicode = 00E6;
},
{
color = 10;
glyphname = b;
lastChange = "2019-01-22 14:04:59 +0000";
layers = (
{
layerId = "ADA7F6FF-5955-4EF3-8FA7-BADC10F8EE4C";
paths = (
{
closed = 1;
nodes = (
"120 205 LINE",
"850 205 LINE SMOOTH",
"896.905 205 OFFCURVE",
"930 170.213 OFFCURVE",
"930 124 CURVE SMOOTH",
"930 45 LINE",
"120 45 LINE"
);
},
{
closed = 1;
nodes = (
"120 455 LINE",
"725 455 LINE SMOOTH",
"776.962 455 OFFCURVE",
"805 426.962 OFFCURVE",
"805 375 CURVE SMOOTH",
"805 295 LINE",
"120 295 LINE"
);
},
{
closed = 1;
nodes = (
"50 545 OFFCURVE",
"30 525 OFFCURVE",
"30 500 CURVE SMOOTH",
"30 0 LINE SMOOTH",
"30 -25 OFFCURVE",
"50 -45 OFFCURVE",
"75 -45 CURVE SMOOTH",
"975 -45 LINE SMOOTH",
"1000 -45 OFFCURVE",
"1020 -25 OFFCURVE",
"1020 0 CURVE SMOOTH",
"1020 124 LINE SMOOTH",
"1020 204 OFFCURVE",
"968 270 OFFCURVE",
"895 289 CURVE",
"895 375 LINE SMOOTH",
"895 477 OFFCURVE",
"827 545 OFFCURVE",
"725 545 CURVE SMOOTH",
"75 545 LINE SMOOTH"
);
}
);
width = 1050;
},
{
associatedMasterId = "ADA7F6FF-5955-4EF3-8FA7-BADC10F8EE4C";
layerId = "43C3E764-EA7B-4310-8AF7-A4EAB00B1317";
name = path;
paths = (
{
closed = 1;
nodes = (
"940 250 OFFCURVE",
"975 174 OFFCURVE",
"975 124 CURVE",
"975 0 LINE",
"75 0 LINE",
"75 500 LINE",
"725 500 LINE",
"805 500 OFFCURVE",
"850 449 OFFCURVE",
"850 375 CURVE SMOOTH",
"850 250 LINE"
);
},
{
closed = 0;
nodes = (
"75 250 LINE",
"850 250 LINE"
);
}
);
visible = 1;
width = 1050;
},
{
layerId = "89EE149F-7564-47C9-BE54-DE0A35C75344";
paths = (
{
closed = 1;
nodes = (
"60 235 LINE",
"820 235 LINE SMOOTH",
"883 235 OFFCURVE",
"930 187 OFFCURVE",
"930 124 CURVE SMOOTH",
"930 15 LINE",
"60 15 LINE"
);
},
{
closed = 1;
nodes = (
"60 485 LINE",
"695 485 LINE SMOOTH",
"764 485 OFFCURVE",
"805 444 OFFCURVE",
"805 375 CURVE SMOOTH",
"805 265 LINE",
"60 265 LINE"
);
},
{
closed = 1;
nodes = (
"37 515 OFFCURVE",
"30 508 OFFCURVE",
"30 500 CURVE SMOOTH",
"30 0 LINE SMOOTH",
"30 -8 OFFCURVE",
"37 -15 OFFCURVE",
"45 -15 CURVE SMOOTH",
"945 -15 LINE SMOOTH",
"953 -15 OFFCURVE",
"960 -8 OFFCURVE",
"960 0 CURVE SMOOTH",
"960 124 LINE SMOOTH",
"960 198 OFFCURVE",
"907 257 OFFCURVE",
"835 264 CURVE",
"835 375 LINE SMOOTH",
"835 460 OFFCURVE",
"780 515 OFFCURVE",
"695 515 CURVE SMOOTH",
"45 515 LINE SMOOTH"
);
}
);
width = 990;
},
{
layerId = "BA964981-AC0A-4481-A535-297F9E9B05B4";
paths = (
{
closed = 1;
nodes = (
"180 175 LINE",
"880 175 LINE SMOOTH",
"910 175 OFFCURVE",
"930 153 OFFCURVE",
"930 124 CURVE SMOOTH",
"930 75 LINE",
"180 75 LINE"
);
},
{
closed = 1;
nodes = (
"180 425 LINE",
"755 425 LINE SMOOTH",
"790 425 OFFCURVE",
"805 410 OFFCURVE",
"805 375 CURVE SMOOTH",
"805 325 LINE",
"180 325 LINE"
);
},
{
closed = 1;
nodes = (
"64 575 OFFCURVE",
"30 541 OFFCURVE",
"30 500 CURVE SMOOTH",
"30 0 LINE SMOOTH",
"30 -41 OFFCURVE",
"64 -75 OFFCURVE",
"105 -75 CURVE SMOOTH",
"1005 -75 LINE SMOOTH",
"1046 -75 OFFCURVE",
"1080 -41 OFFCURVE",
"1080 0 CURVE SMOOTH",
"1080 124 LINE SMOOTH",
"1080 210 OFFCURVE",
"1029 282 OFFCURVE",
"955 311 CURVE",
"955 375 LINE SMOOTH",
"955 493 OFFCURVE",
"873 575 OFFCURVE",
"755 575 CURVE SMOOTH",
"105 575 LINE SMOOTH"
);
}
);
width = 1110;
}
);
unicode = 0062;
},
{
color = 10;
glyphname = c;
lastChange = "2019-01-22 14:04:59 +0000";
layers = (
{
layerId = "ADA7F6FF-5955-4EF3-8FA7-BADC10F8EE4C";
paths = (
{
closed = 1;
nodes = (
"50 545 OFFCURVE",
"30 525 OFFCURVE",
"30 500 CURVE SMOOTH",
"30 0 LINE SMOOTH",
"30 -25 OFFCURVE",
"50 -45 OFFCURVE",
"75 -45 CURVE SMOOTH",
"975 -45 LINE SMOOTH",
"1000 -45 OFFCURVE",
"1020 -25 OFFCURVE",
"1020 0 CURVE SMOOTH",
"1020 25 OFFCURVE",
"1000 45 OFFCURVE",
"975 45 CURVE SMOOTH",
"120 45 LINE",
"120 455 LINE",
"975 455 LINE SMOOTH",
"1000 455 OFFCURVE",
"1020 475 OFFCURVE",
"1020 500 CURVE SMOOTH",
"1020 525 OFFCURVE",
"1000 545 OFFCURVE",
"975 545 CURVE SMOOTH",
"75 545 LINE SMOOTH"
);
}
);
width = 1050;
},
{
associatedMasterId = "ADA7F6FF-5955-4EF3-8FA7-BADC10F8EE4C";
layerId = "C642A307-E05B-467A-8403-941B03C55565";
name = path;
paths = (
{
closed = 0;
nodes = (
"975 500 LINE",
"75 500 LINE",
"75 0 LINE",
"975 0 LINE"
);
}
);
visible = 1;
width = 1050;
},
{
layerId = "89EE149F-7564-47C9-BE54-DE0A35C75344";
paths = (
{
closed = 1;
nodes = (
"37 515 OFFCURVE",
"30 508 OFFCURVE",
"30 500 CURVE SMOOTH",
"30 0 LINE SMOOTH",
"30 -8 OFFCURVE",
"37 -15 OFFCURVE",
"45 -15 CURVE SMOOTH",
"945 -15 LINE SMOOTH",
"953 -15 OFFCURVE",
"960 -8 OFFCURVE",
"960 0 CURVE SMOOTH",
"960 8 OFFCURVE",
"953 15 OFFCURVE",
"945 15 CURVE SMOOTH",
"60 15 LINE",
"60 485 LINE",
"945 485 LINE SMOOTH",
"953 485 OFFCURVE",
"960 492 OFFCURVE",
"960 500 CURVE SMOOTH",
"960 508 OFFCURVE",
"953 515 OFFCURVE",
"945 515 CURVE SMOOTH",
"45 515 LINE SMOOTH"
);
}
);
width = 990;
},
{
layerId = "BA964981-AC0A-4481-A535-297F9E9B05B4";
paths = (
{
closed = 1;
nodes = (
"64 575 OFFCURVE",
"30 541 OFFCURVE",
"30 500 CURVE SMOOTH",
"30 0 LINE SMOOTH",
"30 -41 OFFCURVE",
"64 -75 OFFCURVE",
"105 -75 CURVE SMOOTH",
"1005 -75 LINE SMOOTH",
"1046 -75 OFFCURVE",
"1080 -41 OFFCURVE",
"1080 0 CURVE SMOOTH",
"1080 41 OFFCURVE",
"1046 75 OFFCURVE",
"1005 75 CURVE SMOOTH",
"180 75 LINE",
"180 425 LINE",
"1005 425 LINE SMOOTH",
"1046 425 OFFCURVE",
"1080 459 OFFCURVE",
"1080 500 CURVE SMOOTH",
"1080 541 OFFCURVE",
"1046 575 OFFCURVE",
"1005 575 CURVE SMOOTH",
"105 575 LINE SMOOTH"
);
}
);
width = 1110;
}
);
unicode = 0063;
},
{
color = 10;
glyphname = d;
lastChange = "2019-01-22 14:04:59 +0000";
layers = (
{
layerId = "ADA7F6FF-5955-4EF3-8FA7-BADC10F8EE4C";
paths = (
{
closed = 1;
nodes = (
"120 455 LINE",
"850 455 LINE SMOOTH",
"899 455 OFFCURVE",
"930 424 OFFCURVE",
"930 375 CURVE SMOOTH",
"930 125 LINE SMOOTH",
"930 76 OFFCURVE",
"899 45 OFFCURVE",
"849 45 CURVE SMOOTH",
"120 45 LINE"
);
},
{
closed = 1;
nodes = (
"30 -25 OFFCURVE",
"50 -45 OFFCURVE",
"75 -45 CURVE SMOOTH",
"849 -45 LINE SMOOTH",
"949 -45 OFFCURVE",
"1020 26 OFFCURVE",
"1020 125 CURVE SMOOTH",
"1020 375 LINE SMOOTH",
"1020 474 OFFCURVE",
"949 545 OFFCURVE",
"850 545 CURVE SMOOTH",
"75 545 LINE SMOOTH",
"50 545 OFFCURVE",
"30 525 OFFCURVE",
"30 500 CURVE SMOOTH",
"30 0 LINE SMOOTH"
);
}
);
width = 1050;
},
{
associatedMasterId = "ADA7F6FF-5955-4EF3-8FA7-BADC10F8EE4C";
layerId = "6A660B9B-ECF8-4BC3-9438-143DCF1C4E66";
name = path;
paths = (
{
closed = 1;
nodes = (
"75 0 LINE",
"849 0 LINE",
"919 0 OFFCURVE",
"975 46 OFFCURVE",
"975 125 CURVE",
"975 375 LINE",
"975 453 OFFCURVE",
"920 500 OFFCURVE",
"850 500 CURVE",
"75 500 LINE"
);
}
);
visible = 1;
width = 1050;
},
{
layerId = "89EE149F-7564-47C9-BE54-DE0A35C75344";
paths = (
{
closed = 1;
nodes = (
"60 485 LINE",
"820 485 LINE SMOOTH",
"886 485 OFFCURVE",
"930 441 OFFCURVE",
"930 375 CURVE SMOOTH",
"930 125 LINE SMOOTH",
"930 59 OFFCURVE",
"886 15 OFFCURVE",
"819 15 CURVE SMOOTH",
"60 15 LINE"
);
},
{
closed = 1;
nodes = (
"37 515 OFFCURVE",
"30 508 OFFCURVE",
"30 500 CURVE SMOOTH",
"30 0 LINE SMOOTH",
"30 -8 OFFCURVE",
"37 -15 OFFCURVE",
"45 -15 CURVE SMOOTH",
"819 -15 LINE SMOOTH",
"902 -15 OFFCURVE",
"960 42 OFFCURVE",
"960 125 CURVE SMOOTH",
"960 375 LINE SMOOTH",
"960 457 OFFCURVE",
"902 515 OFFCURVE",
"820 515 CURVE SMOOTH",
"45 515 LINE SMOOTH"
);
}
);
width = 990;
},
{
layerId = "BA964981-AC0A-4481-A535-297F9E9B05B4";
paths = (
{
closed = 1;
nodes = (
"180 425 LINE",
"880 425 LINE SMOOTH",
"912 425 OFFCURVE",
"930 407 OFFCURVE",
"930 375 CURVE SMOOTH",
"930 125 LINE SMOOTH",
"930 92 OFFCURVE",
"912 75 OFFCURVE",
"879 75 CURVE SMOOTH",
"180 75 LINE"
);
},
{
closed = 1;
nodes = (
"30 -41 OFFCURVE",
"64 -75 OFFCURVE",
"105 -75 CURVE SMOOTH",
"879 -75 LINE SMOOTH",
"995 -75 OFFCURVE",
"1080 9 OFFCURVE",
"1080 125 CURVE SMOOTH",
"1080 375 LINE SMOOTH",
"1080 491 OFFCURVE",
"996 575 OFFCURVE",
"880 575 CURVE SMOOTH",
"105 575 LINE SMOOTH",
"64 575 OFFCURVE",
"30 541 OFFCURVE",
"30 500 CURVE SMOOTH",
"30 0 LINE SMOOTH"
);
}
);
width = 1110;
}
);
unicode = 0064;
},
{
color = 10;
glyphname = eth;
lastChange = "2019-01-22 14:04:59 +0000";
layers = (
{
layerId = "ADA7F6FF-5955-4EF3-8FA7-BADC10F8EE4C";
paths = (
{
closed = 1;
nodes = (
"850 455 LINE SMOOTH",
"899 455 OFFCURVE",
"930 424 OFFCURVE",
"930 375 CURVE SMOOTH",
"930 125 LINE SMOOTH",
"930 76 OFFCURVE",
"899 45 OFFCURVE",
"849 45 CURVE SMOOTH",
"256 45 LINE",
"256 205 LINE",
"556 205 LINE SMOOTH",
"581 205 OFFCURVE",
"601 225 OFFCURVE",
"601 250 CURVE SMOOTH",
"601 275 OFFCURVE",
"581 295 OFFCURVE",
"556 295 CURVE SMOOTH",
"256 295 LINE",
"256 455 LINE"
);
},
{
closed = 1;
nodes = (
"186 545 OFFCURVE",
"166 525 OFFCURVE",
"166 500 CURVE SMOOTH",
"166 295 LINE",
"75 295 LINE SMOOTH",
"50 295 OFFCURVE",
"30 275 OFFCURVE",
"30 250 CURVE SMOOTH",
"30 225 OFFCURVE",
"50 205 OFFCURVE",
"75 205 CURVE SMOOTH",
"166 205 LINE",
"166 0 LINE SMOOTH",
"166 -25 OFFCURVE",
"186 -45 OFFCURVE",
"211 -45 CURVE SMOOTH",
"849 -45 LINE SMOOTH",
"949 -45 OFFCURVE",
"1020 26 OFFCURVE",
"1020 125 CURVE SMOOTH",
"1020 375 LINE SMOOTH",
"1020 474 OFFCURVE",
"949 545 OFFCURVE",
"850 545 CURVE SMOOTH",
"211 545 LINE SMOOTH"
);
}
);
width = 1050;
},
{
associatedMasterId = "ADA7F6FF-5955-4EF3-8FA7-BADC10F8EE4C";
layerId = "A2FD9BF8-4F41-493D-BCC5-BBBF2F9DDAA8";
name = path;
paths = (
{
closed = 1;
nodes = (
"211 0 LINE",
"849 0 LINE",
"919 0 OFFCURVE",
"975 46 OFFCURVE",
"975 125 CURVE",
"975 375 LINE",
"975 453 OFFCURVE",
"920 500 OFFCURVE",
"850 500 CURVE",
"211 500 LINE"
);
},
{
closed = 0;
nodes = (
"556 250 LINE",
"75 250 LINE"
);
}
);
visible = 1;
width = 1050;
},
{
layerId = "89EE149F-7564-47C9-BE54-DE0A35C75344";
paths = (
{
closed = 1;
nodes = (
"820 485 LINE SMOOTH",
"886 485 OFFCURVE",
"930 441 OFFCURVE",
"930 375 CURVE SMOOTH",
"930 125 LINE SMOOTH",
"930 59 OFFCURVE",
"886 15 OFFCURVE",
"819 15 CURVE SMOOTH",
"196 15 LINE",
"196 235 LINE",
"526 235 LINE SMOOTH",
"534 235 OFFCURVE",
"541 242 OFFCURVE",
"541 250 CURVE SMOOTH",
"541 258 OFFCURVE",
"534 265 OFFCURVE",
"526 265 CURVE SMOOTH",
"196 265 LINE",
"196 485 LINE"
);
},
{
closed = 1;
nodes = (
"173 515 OFFCURVE",
"166 508 OFFCURVE",
"166 500 CURVE SMOOTH",
"166 265 LINE",
"45 265 LINE SMOOTH",
"37 265 OFFCURVE",
"30 258 OFFCURVE",
"30 250 CURVE SMOOTH",
"30 242 OFFCURVE",
"37 235 OFFCURVE",
"45 235 CURVE SMOOTH",
"166 235 LINE",
"166 0 LINE SMOOTH",
"166 -8 OFFCURVE",
"173 -15 OFFCURVE",
"181 -15 CURVE SMOOTH",
"819 -15 LINE SMOOTH",
"902 -15 OFFCURVE",
"960 42 OFFCURVE",
"960 125 CURVE SMOOTH",
"960 375 LINE SMOOTH",
"960 457 OFFCURVE",
"902 515 OFFCURVE",
"820 515 CURVE SMOOTH",
"181 515 LINE SMOOTH"
);
}
);
width = 990;
},
{
layerId = "BA964981-AC0A-4481-A535-297F9E9B05B4";
paths = (
{
closed = 1;
nodes = (
"880 425 LINE SMOOTH",
"912 425 OFFCURVE",
"930 407 OFFCURVE",
"930 375 CURVE SMOOTH",
"930 125 LINE SMOOTH",
"930 92 OFFCURVE",
"912 75 OFFCURVE",
"879 75 CURVE SMOOTH",
"316 75 LINE",
"316 175 LINE",
"586 175 LINE SMOOTH",
"627 175 OFFCURVE",
"661 209 OFFCURVE",
"661 250 CURVE SMOOTH",
"661 291 OFFCURVE",
"627 325 OFFCURVE",
"586 325 CURVE SMOOTH",
"316 325 LINE",
"316 425 LINE"
);
},
{
closed = 1;
nodes = (
"200 575 OFFCURVE",
"166 541 OFFCURVE",
"166 500 CURVE SMOOTH",
"166 325 LINE",
"105 325 LINE SMOOTH",
"64 325 OFFCURVE",
"30 291 OFFCURVE",
"30 250 CURVE SMOOTH",
"30 209 OFFCURVE",
"64 175 OFFCURVE",
"105 175 CURVE SMOOTH",
"166 175 LINE",
"166 0 LINE SMOOTH",
"166 -41 OFFCURVE",
"200 -75 OFFCURVE",
"241 -75 CURVE SMOOTH",
"879 -75 LINE SMOOTH",
"995 -75 OFFCURVE",
"1080 9 OFFCURVE",
"1080 125 CURVE SMOOTH",
"1080 375 LINE SMOOTH",
"1080 491 OFFCURVE",
"996 575 OFFCURVE",
"880 575 CURVE SMOOTH",
"241 575 LINE SMOOTH"
);
}
);
width = 1110;
}
);
unicode = 00F0;
},
{
color = 10;
glyphname = e;
lastChange = "2019-01-22 14:04:59 +0000";
layers = (
{
layerId = "ADA7F6FF-5955-4EF3-8FA7-BADC10F8EE4C";
paths = (
{
closed = 1;
nodes = (
"50 545 OFFCURVE",
"30 525 OFFCURVE",
"30 500 CURVE SMOOTH",
"30 0 LINE SMOOTH",
"30 -25 OFFCURVE",
"50 -45 OFFCURVE",
"75 -45 CURVE SMOOTH",
"975 -45 LINE SMOOTH",
"1000 -45 OFFCURVE",
"1020 -25 OFFCURVE",
"1020 0 CURVE SMOOTH",
"1020 25 OFFCURVE",
"1000 45 OFFCURVE",
"975 45 CURVE SMOOTH",
"120 45 LINE",
"120 205 LINE",
"975 205 LINE SMOOTH",
"1000 205 OFFCURVE",
"1020 225 OFFCURVE",
"1020 250 CURVE SMOOTH",
"1020 275 OFFCURVE",
"1000 295 OFFCURVE",
"975 295 CURVE SMOOTH",
"120 295 LINE",
"120 455 LINE",
"975 455 LINE SMOOTH",
"1000 455 OFFCURVE",
"1020 475 OFFCURVE",
"1020 500 CURVE SMOOTH",
"1020 525 OFFCURVE",
"1000 545 OFFCURVE",
"975 545 CURVE SMOOTH",
"75 545 LINE SMOOTH"
);
}
);
width = 1050;
},
{
associatedMasterId = "ADA7F6FF-5955-4EF3-8FA7-BADC10F8EE4C";
layerId = "1E5F3C70-7FC3-4D48-B8F5-25B7FBF7962D";
name = path;
paths = (
{
closed = 0;
nodes = (
"975 500 LINE",
"75 500 LINE",
"75 0 LINE",
"975 0 LINE"
);
},
{
closed = 0;
nodes = (
"75 250 LINE",
"975 250 LINE"
);
}
);
visible = 1;
width = 1050;
},
{
layerId = "89EE149F-7564-47C9-BE54-DE0A35C75344";
paths = (
{
closed = 1;
nodes = (
"37 515 OFFCURVE",
"30 508 OFFCURVE",
"30 500 CURVE SMOOTH",
"30 0 LINE SMOOTH",
"30 -8 OFFCURVE",
"37 -15 OFFCURVE",
"45 -15 CURVE SMOOTH",
"945 -15 LINE SMOOTH",
"953 -15 OFFCURVE",
"960 -8 OFFCURVE",
"960 0 CURVE SMOOTH",
"960 8 OFFCURVE",
"953 15 OFFCURVE",
"945 15 CURVE SMOOTH",
"60 15 LINE",
"60 235 LINE",
"945 235 LINE SMOOTH",
"953 235 OFFCURVE",
"960 242 OFFCURVE",
"960 250 CURVE SMOOTH",
"960 258 OFFCURVE",
"953 265 OFFCURVE",
"945 265 CURVE SMOOTH",
"60 265 LINE",
"60 485 LINE",
"945 485 LINE SMOOTH",
"953 485 OFFCURVE",
"960 492 OFFCURVE",
"960 500 CURVE SMOOTH",
"960 508 OFFCURVE",
"953 515 OFFCURVE",
"945 515 CURVE SMOOTH",
"45 515 LINE SMOOTH"
);
}
);
width = 990;
},
{
layerId = "BA964981-AC0A-4481-A535-297F9E9B05B4";
paths = (
{
closed = 1;
nodes = (
"64 575 OFFCURVE",
"30 541 OFFCURVE",
"30 500 CURVE SMOOTH",
"30 0 LINE SMOOTH",
"30 -41 OFFCURVE",
"64 -75 OFFCURVE",
"105 -75 CURVE SMOOTH",
"1005 -75 LINE SMOOTH",
"1046 -75 OFFCURVE",
"1080 -41 OFFCURVE",
"1080 0 CURVE SMOOTH",
"1080 41 OFFCURVE",
"1046 75 OFFCURVE",
"1005 75 CURVE SMOOTH",
"180 75 LINE",
"180 175 LINE",
"1005 175 LINE SMOOTH",
"1046 175 OFFCURVE",
"1080 209 OFFCURVE",
"1080 250 CURVE SMOOTH",
"1080 291 OFFCURVE",
"1046 325 OFFCURVE",
"1005 325 CURVE SMOOTH",
"180 325 LINE",
"180 425 LINE",
"1005 425 LINE SMOOTH",
"1046 425 OFFCURVE",
"1080 459 OFFCURVE",
"1080 500 CURVE SMOOTH",
"1080 541 OFFCURVE",
"1046 575 OFFCURVE",
"1005 575 CURVE SMOOTH",
"105 575 LINE SMOOTH"
);
}
);
width = 1110;
}
);
unicode = 0065;
},
{
color = 10;
glyphname = f;
lastChange = "2019-01-22 14:04:59 +0000";
layers = (
{
layerId = "ADA7F6FF-5955-4EF3-8FA7-BADC10F8EE4C";
paths = (
{
closed = 1;
nodes = (
"50 545 OFFCURVE",
"30 525 OFFCURVE",
"30 500 CURVE SMOOTH",
"30 0 LINE SMOOTH",
"30 -25 OFFCURVE",
"50 -45 OFFCURVE",
"75 -45 CURVE SMOOTH",
"100 -45 OFFCURVE",
"120 -25 OFFCURVE",
"120 0 CURVE SMOOTH",
"120 205 LINE",
"975 205 LINE SMOOTH",
"1000 205 OFFCURVE",
"1020 225 OFFCURVE",
"1020 250 CURVE SMOOTH",
"1020 275 OFFCURVE",
"1000 295 OFFCURVE",
"975 295 CURVE SMOOTH",
"120 295 LINE",
"120 455 LINE",
"975 455 LINE SMOOTH",
"1000 455 OFFCURVE",
"1020 475 OFFCURVE",
"1020 500 CURVE SMOOTH",
"1020 525 OFFCURVE",
"1000 545 OFFCURVE",
"975 545 CURVE SMOOTH",
"75 545 LINE SMOOTH"
);
}
);
width = 1050;
},
{
associatedMasterId = "ADA7F6FF-5955-4EF3-8FA7-BADC10F8EE4C";
layerId = "BA1CBADF-8E27-401D-B82F-B84E06EDAD8D";
name = path;
paths = (
{
closed = 0;
nodes = (
"75 0 LINE",
"75 500 LINE",
"975 500 LINE"
);
},
{
closed = 0;
nodes = (
"75 250 LINE",
"975 250 LINE"
);
}
);
visible = 1;
width = 1050;
},
{
layerId = "89EE149F-7564-47C9-BE54-DE0A35C75344";
paths = (
{
closed = 1;
nodes = (
"37 515 OFFCURVE",
"30 508 OFFCURVE",
"30 500 CURVE SMOOTH",
"30 0 LINE SMOOTH",
"30 -8 OFFCURVE",
"37 -15 OFFCURVE",
"45 -15 CURVE SMOOTH",
"53 -15 OFFCURVE",
"60 -8 OFFCURVE",
"60 0 CURVE SMOOTH",
"60 235 LINE",
"945 235 LINE SMOOTH",
"953 235 OFFCURVE",
"960 242 OFFCURVE",
"960 250 CURVE SMOOTH",
"960 258 OFFCURVE",
"953 265 OFFCURVE",
"945 265 CURVE SMOOTH",
"60 265 LINE",
"60 485 LINE",
"945 485 LINE SMOOTH",
"953 485 OFFCURVE",
"960 492 OFFCURVE",
"960 500 CURVE SMOOTH",
"960 508 OFFCURVE",
"953 515 OFFCURVE",
"945 515 CURVE SMOOTH",
"45 515 LINE SMOOTH"
);
}
);
width = 990;
},
{
layerId = "BA964981-AC0A-4481-A535-297F9E9B05B4";
paths = (
{
closed = 1;
nodes = (
"64 575 OFFCURVE",
"30 541 OFFCURVE",
"30 500 CURVE SMOOTH",
"30 0 LINE SMOOTH",
"30 -41 OFFCURVE",
"64 -75 OFFCURVE",
"105 -75 CURVE SMOOTH",
"146 -75 OFFCURVE",
"180 -41 OFFCURVE",
"180 0 CURVE SMOOTH",
"180 175 LINE",
"1005 175 LINE SMOOTH",
"1046 175 OFFCURVE",
"1080 209 OFFCURVE",
"1080 250 CURVE SMOOTH",
"1080 291 OFFCURVE",
"1046 325 OFFCURVE",
"1005 325 CURVE SMOOTH",
"180 325 LINE",
"180 425 LINE",
"1005 425 LINE SMOOTH",
"1046 425 OFFCURVE",
"1080 459 OFFCURVE",
"1080 500 CURVE SMOOTH",
"1080 541 OFFCURVE",
"1046 575 OFFCURVE",
"1005 575 CURVE SMOOTH",
"105 575 LINE SMOOTH"
);
}
);
width = 1110;
}
);
unicode = 0066;
},
{
color = 10;
glyphname = g;
lastChange = "2019-01-22 14:04:59 +0000";
layers = (
{
layerId = "ADA7F6FF-5955-4EF3-8FA7-BADC10F8EE4C";
paths = (
{
closed = 1;
nodes = (
"50 545 OFFCURVE",
"30 525 OFFCURVE",
"30 500 CURVE SMOOTH",
"30 0 LINE SMOOTH",
"30 -25 OFFCURVE",
"50 -45 OFFCURVE",
"75 -45 CURVE SMOOTH",
"975 -45 LINE SMOOTH",
"1000 -45 OFFCURVE",
"1020 -25 OFFCURVE",
"1020 0 CURVE SMOOTH",
"1020 250 LINE SMOOTH",
"1020 275 OFFCURVE",
"1000 295 OFFCURVE",
"975 295 CURVE SMOOTH",
"300 295 LINE SMOOTH",
"275 295 OFFCURVE",
"255 275 OFFCURVE",
"255 250 CURVE SMOOTH",
"255 225 OFFCURVE",
"275 205 OFFCURVE",
"300 205 CURVE SMOOTH",
"930 205 LINE",
"930 45 LINE",
"120 45 LINE",
"120 455 LINE",
"975 455 LINE SMOOTH",
"1000 455 OFFCURVE",
"1020 475 OFFCURVE",
"1020 500 CURVE SMOOTH",
"1020 525 OFFCURVE",
"1000 545 OFFCURVE",
"975 545 CURVE SMOOTH",
"75 545 LINE SMOOTH"
);
}
);
width = 1050;
},
{
associatedMasterId = "ADA7F6FF-5955-4EF3-8FA7-BADC10F8EE4C";
layerId = "AF99504B-0B1E-485A-9723-4F08E399AE78";
name = path;
paths = (
{
closed = 0;
nodes = (
"975 500 LINE",
"75 500 LINE",
"75 0 LINE",
"975 0 LINE",
"975 250 LINE",
"296 250 LINE"
);
}
);
visible = 1;
width = 1050;
},
{
layerId = "89EE149F-7564-47C9-BE54-DE0A35C75344";
paths = (
{
closed = 1;
nodes = (
"37 515 OFFCURVE",
"30 508 OFFCURVE",
"30 500 CURVE SMOOTH",
"30 0 LINE SMOOTH",
"30 -8 OFFCURVE",
"37 -15 OFFCURVE",
"45 -15 CURVE SMOOTH",
"945 -15 LINE SMOOTH",
"953 -15 OFFCURVE",
"960 -8 OFFCURVE",
"960 0 CURVE SMOOTH",
"960 250 LINE SMOOTH",
"960 258 OFFCURVE",
"953 265 OFFCURVE",
"945 265 CURVE SMOOTH",
"266 265 LINE SMOOTH",
"258 265 OFFCURVE",
"251 258 OFFCURVE",
"251 250 CURVE SMOOTH",
"251 242 OFFCURVE",
"258 235 OFFCURVE",
"266 235 CURVE SMOOTH",
"930 235 LINE",
"930 15 LINE",
"60 15 LINE",
"60 485 LINE",
"945 485 LINE SMOOTH",
"953 485 OFFCURVE",
"960 492 OFFCURVE",
"960 500 CURVE SMOOTH",
"960 508 OFFCURVE",
"953 515 OFFCURVE",
"945 515 CURVE SMOOTH",
"45 515 LINE SMOOTH"
);
}
);
width = 990;
},
{
layerId = "BA964981-AC0A-4481-A535-297F9E9B05B4";
paths = (
{
closed = 1;
nodes = (
"64 575 OFFCURVE",
"30 541 OFFCURVE",
"30 500 CURVE SMOOTH",
"30 0 LINE SMOOTH",
"30 -41 OFFCURVE",
"64 -75 OFFCURVE",
"105 -75 CURVE SMOOTH",
"1005 -75 LINE SMOOTH",
"1046 -75 OFFCURVE",
"1080 -41 OFFCURVE",
"1080 0 CURVE SMOOTH",
"1080 250 LINE SMOOTH",
"1080 291 OFFCURVE",
"1046 325 OFFCURVE",
"1005 325 CURVE SMOOTH",
"326 325 LINE SMOOTH",
"285 325 OFFCURVE",
"251 291 OFFCURVE",
"251 250 CURVE SMOOTH",
"251 209 OFFCURVE",
"285 175 OFFCURVE",
"326 175 CURVE SMOOTH",
"930 175 LINE",
"930 75 LINE",
"180 75 LINE",
"180 425 LINE",
"1005 425 LINE SMOOTH",
"1046 425 OFFCURVE",
"1080 459 OFFCURVE",
"1080 500 CURVE SMOOTH",
"1080 541 OFFCURVE",
"1046 575 OFFCURVE",
"1005 575 CURVE SMOOTH",
"105 575 LINE SMOOTH"
);
}
);
width = 1110;
}
);
unicode = 0067;
},
{
color = 10;
glyphname = h;
lastChange = "2019-01-22 14:04:59 +0000";
layers = (
{
layerId = "ADA7F6FF-5955-4EF3-8FA7-BADC10F8EE4C";
paths = (
{
closed = 1;
nodes = (
"100 -45 OFFCURVE",
"120 -25 OFFCURVE",
"120 0 CURVE SMOOTH",
"120 205 LINE",
"930 205 LINE",
"930 0 LINE SMOOTH",
"930 -25 OFFCURVE",
"950 -45 OFFCURVE",
"975 -45 CURVE SMOOTH",
"1000 -45 OFFCURVE",
"1020 -25 OFFCURVE",
"1020 0 CURVE SMOOTH",
"1020 500 LINE SMOOTH",
"1020 525 OFFCURVE",
"1000 545 OFFCURVE",
"975 545 CURVE SMOOTH",
"950 545 OFFCURVE",
"930 525 OFFCURVE",
"930 500 CURVE SMOOTH",
"930 295 LINE",
"120 295 LINE",
"120 500 LINE SMOOTH",
"120 525 OFFCURVE",
"100 545 OFFCURVE",
"75 545 CURVE SMOOTH",
"50 545 OFFCURVE",
"30 525 OFFCURVE",
"30 500 CURVE SMOOTH",
"30 0 LINE SMOOTH",
"30 -25 OFFCURVE",
"50 -45 OFFCURVE",
"75 -45 CURVE SMOOTH"
);
}
);
width = 1050;
},
{
associatedMasterId = "ADA7F6FF-5955-4EF3-8FA7-BADC10F8EE4C";
layerId = "3CC7B8B1-C97A-459E-B2D0-D2FE64EC3E0B";
name = path;
paths = (
{
closed = 0;
nodes = (
"75 500 LINE",
"75 0 LINE"
);
},
{
closed = 0;
nodes = (
"974 500 LINE",
"974 0 LINE"
);
},
{
closed = 0;
nodes = (
"76 249 LINE",
"975 250 LINE"
);
}
);
visible = 1;
width = 1050;
},
{
layerId = "89EE149F-7564-47C9-BE54-DE0A35C75344";
paths = (
{
closed = 1;
nodes = (
"53 -15 OFFCURVE",
"60 -8 OFFCURVE",
"60 0 CURVE SMOOTH",
"60 234 LINE",
"929 235 LINE",
"929 0 LINE SMOOTH",
"929 -8 OFFCURVE",
"936 -15 OFFCURVE",
"944 -15 CURVE SMOOTH",
"952 -15 OFFCURVE",
"959 -8 OFFCURVE",
"959 0 CURVE SMOOTH",
"959 500 LINE SMOOTH",
"959 508 OFFCURVE",
"952 515 OFFCURVE",
"944 515 CURVE SMOOTH",
"936 515 OFFCURVE",
"929 508 OFFCURVE",
"929 500 CURVE SMOOTH",
"929 265 LINE",
"60 264 LINE",
"60 500 LINE SMOOTH",
"60 508 OFFCURVE",
"53 515 OFFCURVE",
"45 515 CURVE SMOOTH",
"37 515 OFFCURVE",
"30 508 OFFCURVE",
"30 500 CURVE SMOOTH",
"30 0 LINE SMOOTH",
"30 -8 OFFCURVE",
"37 -15 OFFCURVE",
"45 -15 CURVE SMOOTH"
);
}
);
width = 989;
},
{
layerId = "BA964981-AC0A-4481-A535-297F9E9B05B4";
paths = (
{
closed = 1;
nodes = (
"146 -75 OFFCURVE",
"180 -41 OFFCURVE",
"180 0 CURVE SMOOTH",
"180 174 LINE",
"929 175 LINE",
"929 0 LINE SMOOTH",
"929 -41 OFFCURVE",
"963 -75 OFFCURVE",
"1004 -75 CURVE SMOOTH",
"1045 -75 OFFCURVE",
"1079 -41 OFFCURVE",
"1079 0 CURVE SMOOTH",
"1079 500 LINE SMOOTH",
"1079 541 OFFCURVE",
"1045 575 OFFCURVE",
"1004 575 CURVE SMOOTH",
"963 575 OFFCURVE",
"929 541 OFFCURVE",
"929 500 CURVE SMOOTH",
"929 325 LINE",
"180 324 LINE",
"180 500 LINE SMOOTH",
"180 541 OFFCURVE",
"146 575 OFFCURVE",
"105 575 CURVE SMOOTH",
"64 575 OFFCURVE",
"30 541 OFFCURVE",
"30 500 CURVE SMOOTH",
"30 0 LINE SMOOTH",
"30 -41 OFFCURVE",
"64 -75 OFFCURVE",
"105 -75 CURVE SMOOTH"
);
}
);
width = 1109;
}
);
unicode = 0068;
},
{
color = 10;
glyphname = i;
lastChange = "2019-01-22 14:04:59 +0000";
layers = (
{
layerId = "ADA7F6FF-5955-4EF3-8FA7-BADC10F8EE4C";
paths = (
{
closed = 1;
nodes = (
"50 545 OFFCURVE",
"30 525 OFFCURVE",
"30 500 CURVE SMOOTH",
"30 475 OFFCURVE",
"50 455 OFFCURVE",
"75 455 CURVE SMOOTH",
"480 455 LINE",
"480 45 LINE",
"75 45 LINE SMOOTH",
"50 45 OFFCURVE",
"30 25 OFFCURVE",
"30 0 CURVE SMOOTH",
"30 -25 OFFCURVE",
"50 -45 OFFCURVE",
"75 -45 CURVE SMOOTH",
"975 -45 LINE SMOOTH",
"1000 -45 OFFCURVE",
"1020 -25 OFFCURVE",
"1020 0 CURVE SMOOTH",
"1020 25 OFFCURVE",
"1000 45 OFFCURVE",
"975 45 CURVE SMOOTH",
"570 45 LINE",
"570 455 LINE",
"975 455 LINE SMOOTH",
"1000 455 OFFCURVE",
"1020 475 OFFCURVE",
"1020 500 CURVE SMOOTH",
"1020 525 OFFCURVE",
"1000 545 OFFCURVE",
"975 545 CURVE SMOOTH",
"75 545 LINE SMOOTH"
);
}
);
width = 1050;
},
{
associatedMasterId = "ADA7F6FF-5955-4EF3-8FA7-BADC10F8EE4C";
layerId = "6556CCB6-1655-4E74-BE05-FBA182DEF0FD";
name = path;
paths = (
{
closed = 0;
nodes = (
"75 500 LINE",
"975 500 LINE"
);
},
{
closed = 0;
nodes = (
"526 500 LINE",
"526 0 LINE"
);
},
{
closed = 0;
nodes = (
"75 0 LINE",
"975 0 LINE"
);
}
);
visible = 1;
width = 1050;
},
{
layerId = "89EE149F-7564-47C9-BE54-DE0A35C75344";
paths = (
{
closed = 1;
nodes = (
"37 515 OFFCURVE",
"30 508 OFFCURVE",
"30 500 CURVE SMOOTH",
"30 492 OFFCURVE",
"37 485 OFFCURVE",
"45 485 CURVE SMOOTH",
"481 485 LINE",
"481 15 LINE",
"45 15 LINE SMOOTH",
"37 15 OFFCURVE",
"30 8 OFFCURVE",
"30 0 CURVE SMOOTH",
"30 -8 OFFCURVE",
"37 -15 OFFCURVE",
"45 -15 CURVE SMOOTH",
"945 -15 LINE SMOOTH",
"953 -15 OFFCURVE",
"960 -8 OFFCURVE",
"960 0 CURVE SMOOTH",
"960 8 OFFCURVE",
"953 15 OFFCURVE",
"945 15 CURVE SMOOTH",
"511 15 LINE",
"511 485 LINE",
"945 485 LINE SMOOTH",
"953 485 OFFCURVE",
"960 492 OFFCURVE",
"960 500 CURVE SMOOTH",
"960 508 OFFCURVE",
"953 515 OFFCURVE",
"945 515 CURVE SMOOTH",
"45 515 LINE SMOOTH"
);
}
);
width = 990;
},
{
layerId = "BA964981-AC0A-4481-A535-297F9E9B05B4";
paths = (
{
closed = 1;
nodes = (
"64 575 OFFCURVE",
"30 541 OFFCURVE",
"30 500 CURVE SMOOTH",
"30 459 OFFCURVE",
"64 425 OFFCURVE",
"105 425 CURVE SMOOTH",
"481 425 LINE",
"481 75 LINE",
"105 75 LINE SMOOTH",
"64 75 OFFCURVE",
"30 41 OFFCURVE",
"30 0 CURVE SMOOTH",
"30 -41 OFFCURVE",
"64 -75 OFFCURVE",
"105 -75 CURVE SMOOTH",
"1005 -75 LINE SMOOTH",
"1046 -75 OFFCURVE",
"1080 -41 OFFCURVE",
"1080 0 CURVE SMOOTH",
"1080 41 OFFCURVE",
"1046 75 OFFCURVE",
"1005 75 CURVE SMOOTH",
"631 75 LINE",
"631 425 LINE",
"1005 425 LINE SMOOTH",
"1046 425 OFFCURVE",
"1080 459 OFFCURVE",
"1080 500 CURVE SMOOTH",
"1080 541 OFFCURVE",
"1046 575 OFFCURVE",
"1005 575 CURVE SMOOTH",
"105 575 LINE SMOOTH"
);
}
);
width = 1110;
}
);
unicode = 0069;
},
{
color = 10;
glyphname = idotless;
lastChange = "2019-01-22 14:04:59 +0000";
layers = (
{
layerId = "ADA7F6FF-5955-4EF3-8FA7-BADC10F8EE4C";
paths = (
{
closed = 1;
nodes = (
"50 545 OFFCURVE",
"30 525 OFFCURVE",
"30 500 CURVE SMOOTH",
"30 475 OFFCURVE",
"50 455 OFFCURVE",
"75 455 CURVE SMOOTH",
"480 455 LINE",
"480 45 LINE",
"75 45 LINE SMOOTH",
"50 45 OFFCURVE",
"30 25 OFFCURVE",
"30 0 CURVE SMOOTH",
"30 -25 OFFCURVE",
"50 -45 OFFCURVE",
"75 -45 CURVE SMOOTH",
"975 -45 LINE SMOOTH",
"1000 -45 OFFCURVE",
"1020 -25 OFFCURVE",
"1020 0 CURVE SMOOTH",
"1020 25 OFFCURVE",
"1000 45 OFFCURVE",
"975 45 CURVE SMOOTH",
"570 45 LINE",
"570 455 LINE",
"975 455 LINE SMOOTH",
"1000 455 OFFCURVE",
"1020 475 OFFCURVE",
"1020 500 CURVE SMOOTH",
"1020 525 OFFCURVE",
"1000 545 OFFCURVE",
"975 545 CURVE SMOOTH",
"75 545 LINE SMOOTH"
);
}
);
width = 1050;
},
{
associatedMasterId = "ADA7F6FF-5955-4EF3-8FA7-BADC10F8EE4C";
layerId = "9E4F5F67-466E-476D-B0F9-F315D3E5E72D";
name = path;
paths = (
{
closed = 0;
nodes = (
"75 500 LINE",
"975 500 LINE"
);
},
{
closed = 0;
nodes = (
"526 500 LINE",
"526 0 LINE"
);
},
{
closed = 0;
nodes = (
"75 0 LINE",
"975 0 LINE"
);
}
);
visible = 1;
width = 1050;
},
{
layerId = "89EE149F-7564-47C9-BE54-DE0A35C75344";
paths = (
{
closed = 1;
nodes = (
"37 515 OFFCURVE",
"30 508 OFFCURVE",
"30 500 CURVE SMOOTH",
"30 492 OFFCURVE",
"37 485 OFFCURVE",
"45 485 CURVE SMOOTH",
"481 485 LINE",
"481 15 LINE",
"45 15 LINE SMOOTH",
"37 15 OFFCURVE",
"30 8 OFFCURVE",
"30 0 CURVE SMOOTH",
"30 -8 OFFCURVE",
"37 -15 OFFCURVE",
"45 -15 CURVE SMOOTH",
"945 -15 LINE SMOOTH",
"953 -15 OFFCURVE",
"960 -8 OFFCURVE",
"960 0 CURVE SMOOTH",
"960 8 OFFCURVE",
"953 15 OFFCURVE",
"945 15 CURVE SMOOTH",
"511 15 LINE",
"511 485 LINE",
"945 485 LINE SMOOTH",
"953 485 OFFCURVE",
"960 492 OFFCURVE",
"960 500 CURVE SMOOTH",
"960 508 OFFCURVE",
"953 515 OFFCURVE",
"945 515 CURVE SMOOTH",
"45 515 LINE SMOOTH"
);
}
);
width = 990;
},
{
layerId = "BA964981-AC0A-4481-A535-297F9E9B05B4";
paths = (
{
closed = 1;
nodes = (
"64 575 OFFCURVE",
"30 541 OFFCURVE",
"30 500 CURVE SMOOTH",
"30 459 OFFCURVE",
"64 425 OFFCURVE",
"105 425 CURVE SMOOTH",
"481 425 LINE",
"481 75 LINE",
"105 75 LINE SMOOTH",
"64 75 OFFCURVE",
"30 41 OFFCURVE",
"30 0 CURVE SMOOTH",
"30 -41 OFFCURVE",
"64 -75 OFFCURVE",
"105 -75 CURVE SMOOTH",
"1005 -75 LINE SMOOTH",
"1046 -75 OFFCURVE",
"1080 -41 OFFCURVE",
"1080 0 CURVE SMOOTH",
"1080 41 OFFCURVE",
"1046 75 OFFCURVE",
"1005 75 CURVE SMOOTH",
"631 75 LINE",
"631 425 LINE",
"1005 425 LINE SMOOTH",
"1046 425 OFFCURVE",
"1080 459 OFFCURVE",
"1080 500 CURVE SMOOTH",
"1080 541 OFFCURVE",
"1046 575 OFFCURVE",
"1005 575 CURVE SMOOTH",
"105 575 LINE SMOOTH"
);
}
);
width = 1110;
}
);
unicode = 0131;
},
{
color = 10;
glyphname = j;
lastChange = "2019-01-22 14:04:59 +0000";
layers = (
{
layerId = "ADA7F6FF-5955-4EF3-8FA7-BADC10F8EE4C";
paths = (
{
closed = 1;
nodes = (
"50 545 OFFCURVE",
"30 525 OFFCURVE",
"30 500 CURVE SMOOTH",
"30 475 OFFCURVE",
"50 455 OFFCURVE",
"75 455 CURVE SMOOTH",
"930 455 LINE",
"930 45 LINE",
"120 45 LINE",
"120 250 LINE SMOOTH",
"120 275 OFFCURVE",
"100 295 OFFCURVE",
"75 295 CURVE SMOOTH",
"50 295 OFFCURVE",
"30 275 OFFCURVE",
"30 250 CURVE SMOOTH",
"30 0 LINE SMOOTH",
"30 -25 OFFCURVE",
"50 -45 OFFCURVE",
"75 -45 CURVE SMOOTH",
"975 -45 LINE SMOOTH",
"1000 -45 OFFCURVE",
"1020 -25 OFFCURVE",
"1020 0 CURVE SMOOTH",
"1020 500 LINE SMOOTH",
"1020 525 OFFCURVE",
"1000 545 OFFCURVE",
"975 545 CURVE SMOOTH",
"75 545 LINE SMOOTH"
);
}
);
width = 1050;
},
{
associatedMasterId = "ADA7F6FF-5955-4EF3-8FA7-BADC10F8EE4C";
layerId = "0CD48069-EA97-431B-90EA-BA4C3F71CDAC";
name = path;
paths = (
{
closed = 0;
nodes = (
"75 500 LINE",
"975 500 LINE",
"975 0 LINE",
"75 0 LINE",
"74 250 LINE"
);
}
);
visible = 1;
width = 1050;
},
{
layerId = "89EE149F-7564-47C9-BE54-DE0A35C75344";
paths = (
{
closed = 1;
nodes = (
"37 515 OFFCURVE",
"30 508 OFFCURVE",
"30 500 CURVE SMOOTH",
"30 492 OFFCURVE",
"37 485 OFFCURVE",
"45 485 CURVE SMOOTH",
"930 485 LINE",
"930 15 LINE",
"61 15 LINE",
"60 250 LINE SMOOTH",
"60 258 OFFCURVE",
"53 265 OFFCURVE",
"45 265 CURVE SMOOTH",
"37 265 OFFCURVE",
"30 258 OFFCURVE",
"30 250 CURVE SMOOTH",
"31 0 LINE SMOOTH",
"31 -8 OFFCURVE",
"38 -15 OFFCURVE",
"46 -15 CURVE SMOOTH",
"945 -15 LINE SMOOTH",
"953 -15 OFFCURVE",
"960 -8 OFFCURVE",
"960 0 CURVE SMOOTH",
"960 500 LINE SMOOTH",
"960 508 OFFCURVE",
"953 515 OFFCURVE",
"945 515 CURVE SMOOTH",
"45 515 LINE SMOOTH"
);
}
);
width = 990;
},
{
layerId = "BA964981-AC0A-4481-A535-297F9E9B05B4";
paths = (
{
closed = 1;
nodes = (
"64 575 OFFCURVE",
"30 541 OFFCURVE",
"30 500 CURVE SMOOTH",
"30 459 OFFCURVE",
"64 425 OFFCURVE",
"105 425 CURVE SMOOTH",
"930 425 LINE",
"930 75 LINE",
"181 75 LINE",
"180 250 LINE SMOOTH",
"180 292 OFFCURVE",
"146 325 OFFCURVE",
"105 325 CURVE SMOOTH",
"64 325 OFFCURVE",
"30 291 OFFCURVE",
"30 250 CURVE SMOOTH",
"31 0 LINE SMOOTH",
"31 -41 OFFCURVE",
"65 -75 OFFCURVE",
"106 -75 CURVE SMOOTH",
"1005 -75 LINE SMOOTH",
"1046 -75 OFFCURVE",
"1080 -41 OFFCURVE",
"1080 0 CURVE SMOOTH",
"1080 500 LINE SMOOTH",
"1080 541 OFFCURVE",
"1046 575 OFFCURVE",
"1005 575 CURVE SMOOTH",
"105 575 LINE SMOOTH"
);
}
);
width = 1110;
}
);
unicode = 006A;
},
{
color = 10;
glyphname = jdotless;
lastChange = "2019-01-22 14:04:59 +0000";
layers = (
{
layerId = "ADA7F6FF-5955-4EF3-8FA7-BADC10F8EE4C";
paths = (
{
closed = 1;
nodes = (
"50 545 OFFCURVE",
"30 525 OFFCURVE",
"30 500 CURVE SMOOTH",
"30 475 OFFCURVE",
"50 455 OFFCURVE",
"75 455 CURVE SMOOTH",
"930 455 LINE",
"930 45 LINE",
"120 45 LINE",
"120 250 LINE SMOOTH",
"120 275 OFFCURVE",
"100 295 OFFCURVE",
"75 295 CURVE SMOOTH",
"50 295 OFFCURVE",
"30 275 OFFCURVE",
"30 250 CURVE SMOOTH",
"30 0 LINE SMOOTH",
"30 -25 OFFCURVE",
"50 -45 OFFCURVE",
"75 -45 CURVE SMOOTH",
"975 -45 LINE SMOOTH",
"1000 -45 OFFCURVE",
"1020 -25 OFFCURVE",
"1020 0 CURVE SMOOTH",
"1020 500 LINE SMOOTH",
"1020 525 OFFCURVE",
"1000 545 OFFCURVE",
"975 545 CURVE SMOOTH",
"75 545 LINE SMOOTH"
);
}
);
width = 1050;
},
{
associatedMasterId = "ADA7F6FF-5955-4EF3-8FA7-BADC10F8EE4C";
layerId = "F53351EB-5653-4C4E-8356-F609C56ED903";
name = path;
paths = (
{
closed = 1;
nodes = (
"30 -25 OFFCURVE",
"50 -45 OFFCURVE",
"75 -45 CURVE SMOOTH",
"975 -45 LINE SMOOTH",
"1000 -45 OFFCURVE",
"1020 -25 OFFCURVE",
"1020 0 CURVE SMOOTH",
"1020 500 LINE SMOOTH",
"1020 525 OFFCURVE",
"1000 545 OFFCURVE",
"975 545 CURVE SMOOTH",
"75 545 LINE SMOOTH",
"50 545 OFFCURVE",
"30 525 OFFCURVE",
"30 500 CURVE SMOOTH",
"30 475 OFFCURVE",
"50 455 OFFCURVE",
"75 455 CURVE SMOOTH",
"930 455 LINE",
"930 45 LINE",
"120 45 LINE",
"120 250 LINE SMOOTH",
"120 275 OFFCURVE",
"100 295 OFFCURVE",
"75 295 CURVE SMOOTH",
"50 295 OFFCURVE",
"30 275 OFFCURVE",
"30 250 CURVE SMOOTH",
"30 0 LINE SMOOTH"
);
},
{
closed = 0;
nodes = (
"75 500 LINE",
"975 500 LINE",
"975 0 LINE",
"75 0 LINE",
"74 250 LINE"
);
}
);
visible = 1;
width = 1050;
},
{
layerId = "89EE149F-7564-47C9-BE54-DE0A35C75344";
paths = (
{
closed = 1;
nodes = (
"37 515 OFFCURVE",
"30 508 OFFCURVE",
"30 500 CURVE SMOOTH",
"30 492 OFFCURVE",
"37 485 OFFCURVE",
"45 485 CURVE SMOOTH",
"930 485 LINE",
"930 15 LINE",
"61 15 LINE",
"60 250 LINE SMOOTH",
"60 258 OFFCURVE",
"53 265 OFFCURVE",
"45 265 CURVE SMOOTH",
"37 265 OFFCURVE",
"30 258 OFFCURVE",
"30 250 CURVE SMOOTH",
"31 0 LINE SMOOTH",
"31 -8 OFFCURVE",
"38 -15 OFFCURVE",
"46 -15 CURVE SMOOTH",
"945 -15 LINE SMOOTH",
"953 -15 OFFCURVE",
"960 -8 OFFCURVE",
"960 0 CURVE SMOOTH",
"960 500 LINE SMOOTH",
"960 508 OFFCURVE",
"953 515 OFFCURVE",
"945 515 CURVE SMOOTH",
"45 515 LINE SMOOTH"
);
}
);
width = 990;
},
{
layerId = "BA964981-AC0A-4481-A535-297F9E9B05B4";
paths = (
{
closed = 1;
nodes = (
"64 575 OFFCURVE",
"30 541 OFFCURVE",
"30 500 CURVE SMOOTH",
"30 459 OFFCURVE",
"64 425 OFFCURVE",
"105 425 CURVE SMOOTH",
"930 425 LINE",
"930 75 LINE",
"181 75 LINE",
"180 250 LINE SMOOTH",
"180 292 OFFCURVE",
"146 325 OFFCURVE",
"105 325 CURVE SMOOTH",
"64 325 OFFCURVE",
"30 291 OFFCURVE",
"30 250 CURVE SMOOTH",
"31 0 LINE SMOOTH",
"31 -41 OFFCURVE",
"65 -75 OFFCURVE",
"106 -75 CURVE SMOOTH",
"1005 -75 LINE SMOOTH",
"1046 -75 OFFCURVE",
"1080 -41 OFFCURVE",
"1080 0 CURVE SMOOTH",
"1080 500 LINE SMOOTH",
"1080 541 OFFCURVE",
"1046 575 OFFCURVE",
"1005 575 CURVE SMOOTH",
"105 575 LINE SMOOTH"
);
}
);
width = 1110;
}
);
unicode = 0237;
},
{
color = 10;
glyphname = k;
lastChange = "2019-01-22 14:04:59 +0000";
layers = (
{
layerId = "ADA7F6FF-5955-4EF3-8FA7-BADC10F8EE4C";
paths = (
{
closed = 1;
nodes = (
"120 525 OFFCURVE",
"100 545 OFFCURVE",
"75 545 CURVE SMOOTH",
"50 545 OFFCURVE",
"30 525 OFFCURVE",
"30 500 CURVE SMOOTH",
"30 0 LINE SMOOTH",
"30 -25 OFFCURVE",
"50 -45 OFFCURVE",
"75 -45 CURVE SMOOTH",
"100 -45 OFFCURVE",
"120 -25 OFFCURVE",
"120 0 CURVE SMOOTH",
"120 168 LINE",
"281 221 LINE",
"958 -42 LINE SMOOTH",
"963 -44 OFFCURVE",
"969 -45 OFFCURVE",
"975 -45 CURVE SMOOTH",
"1000 -45 OFFCURVE",
"1020 -25 OFFCURVE",
"1020 0 CURVE SMOOTH",
"1020 19 OFFCURVE",
"1008 36 OFFCURVE",
"990 42 CURVE SMOOTH",
"415 266 LINE",
"988 457 LINE SMOOTH",
"1007 463 OFFCURVE",
"1020 480 OFFCURVE",
"1020 500 CURVE SMOOTH",
"1020 525 OFFCURVE",
"1000 545 OFFCURVE",
"975 545 CURVE SMOOTH",
"970 545 OFFCURVE",
"965 544 OFFCURVE",
"960 542 CURVE SMOOTH",
"120 262 LINE",
"120 500 LINE SMOOTH"
);
}
);
width = 1050;
},
{
associatedMasterId = "ADA7F6FF-5955-4EF3-8FA7-BADC10F8EE4C";
layerId = "317B7D57-4450-4791-BE7A-757B299E23C8";
name = path;
paths = (
{
closed = 0;
nodes = (
"75 200 LINE",
"975 500 LINE"
);
},
{
closed = 0;
nodes = (
"75 0 LINE",
"75 500 LINE"
);
},
{
closed = 0;
nodes = (
"975 0 LINE",
"283 269 LINE"
);
}
);
visible = 1;
width = 1050;
},
{
layerId = "89EE149F-7564-47C9-BE54-DE0A35C75344";
paths = (
{
closed = 1;
nodes = (
"60 508 OFFCURVE",
"53 515 OFFCURVE",
"45 515 CURVE SMOOTH",
"37 515 OFFCURVE",
"30 508 OFFCURVE",
"30 500 CURVE SMOOTH",
"30 0 LINE SMOOTH",
"30 -8 OFFCURVE",
"37 -15 OFFCURVE",
"45 -15 CURVE SMOOTH",
"53 -15 OFFCURVE",
"60 -8 OFFCURVE",
"60 0 CURVE SMOOTH",
"60 189 LINE",
"252 253 LINE",
"939 -14 LINE SMOOTH",
"941 -15 OFFCURVE",
"943 -15 OFFCURVE",
"945 -15 CURVE SMOOTH",
"953 -15 OFFCURVE",
"960 -8 OFFCURVE",
"960 0 CURVE SMOOTH",
"960 6 OFFCURVE",
"956 12 OFFCURVE",
"950 14 CURVE SMOOTH",
"297 268 LINE",
"949 486 LINE SMOOTH",
"956 488 OFFCURVE",
"960 493 OFFCURVE",
"960 500 CURVE SMOOTH",
"960 508 OFFCURVE",
"953 515 OFFCURVE",
"945 515 CURVE SMOOTH",
"943 515 OFFCURVE",
"942 515 OFFCURVE",
"940 514 CURVE SMOOTH",
"60 221 LINE",
"60 500 LINE SMOOTH"
);
}
);
width = 990;
},
{
layerId = "BA964981-AC0A-4481-A535-297F9E9B05B4";
paths = (
{
closed = 1;
nodes = (
"180 541 OFFCURVE",
"146 575 OFFCURVE",
"105 575 CURVE SMOOTH",
"64 575 OFFCURVE",
"30 541 OFFCURVE",
"30 500 CURVE SMOOTH",
"30 0 LINE SMOOTH",
"30 -41 OFFCURVE",
"64 -75 OFFCURVE",
"105 -75 CURVE SMOOTH",
"146 -75 OFFCURVE",
"180 -41 OFFCURVE",
"180 0 CURVE SMOOTH",
"180 146 LINE",
"311 189 LINE",
"976 -69 LINE SMOOTH",
"985 -73 OFFCURVE",
"995 -75 OFFCURVE",
"1005 -75 CURVE SMOOTH",
"1046 -75 OFFCURVE",
"1080 -41 OFFCURVE",
"1080 0 CURVE SMOOTH",
"1080 32 OFFCURVE",
"1059 60 OFFCURVE",
"1031 71 CURVE SMOOTH",
"533 264 LINE",
"1027 428 LINE SMOOTH",
"1058 438 OFFCURVE",
"1080 466 OFFCURVE",
"1080 500 CURVE SMOOTH",
"1080 541 OFFCURVE",
"1046 575 OFFCURVE",
"1005 575 CURVE SMOOTH",
"996 575 OFFCURVE",
"988 573 OFFCURVE",
"980 571 CURVE SMOOTH",
"180 304 LINE",
"180 500 LINE SMOOTH"
);
}
);
width = 1110;
}
);
unicode = 006B;
},
{
color = 10;
glyphname = l;
lastChange = "2019-01-22 14:04:59 +0000";
layers = (
{
layerId = "ADA7F6FF-5955-4EF3-8FA7-BADC10F8EE4C";
paths = (
{
closed = 1;
nodes = (
"120 525 OFFCURVE",
"100 545 OFFCURVE",
"75 545 CURVE SMOOTH",
"50 545 OFFCURVE",
"30 525 OFFCURVE",
"30 500 CURVE SMOOTH",
"30 0 LINE SMOOTH",
"30 -25 OFFCURVE",
"50 -45 OFFCURVE",
"75 -45 CURVE SMOOTH",
"975 -45 LINE SMOOTH",
"1000 -45 OFFCURVE",
"1020 -25 OFFCURVE",
"1020 0 CURVE SMOOTH",
"1020 25 OFFCURVE",
"1000 45 OFFCURVE",
"975 45 CURVE SMOOTH",
"120 45 LINE",
"120 500 LINE SMOOTH"
);
}
);
width = 1050;
},
{
associatedMasterId = "ADA7F6FF-5955-4EF3-8FA7-BADC10F8EE4C";
layerId = "637A9D81-2C54-47A2-AE6D-C14DAF8440CF";
name = path;
paths = (
{
closed = 0;
nodes = (
"75 500 LINE",
"75 0 LINE",
"975 0 LINE"
);
}
);
visible = 1;
width = 1050;
},
{
layerId = "89EE149F-7564-47C9-BE54-DE0A35C75344";
paths = (
{
closed = 1;
nodes = (
"60 508 OFFCURVE",
"53 515 OFFCURVE",
"45 515 CURVE SMOOTH",
"37 515 OFFCURVE",
"30 508 OFFCURVE",
"30 500 CURVE SMOOTH",
"30 0 LINE SMOOTH",
"30 -8 OFFCURVE",
"37 -15 OFFCURVE",
"45 -15 CURVE SMOOTH",
"945 -15 LINE SMOOTH",
"953 -15 OFFCURVE",
"960 -8 OFFCURVE",
"960 0 CURVE SMOOTH",
"960 8 OFFCURVE",
"953 15 OFFCURVE",
"945 15 CURVE SMOOTH",
"60 15 LINE",
"60 500 LINE SMOOTH"
);
}
);
width = 990;
},
{
layerId = "BA964981-AC0A-4481-A535-297F9E9B05B4";
paths = (
{
closed = 1;
nodes = (
"180 541 OFFCURVE",
"146 575 OFFCURVE",
"105 575 CURVE SMOOTH",
"64 575 OFFCURVE",
"30 541 OFFCURVE",
"30 500 CURVE SMOOTH",
"30 0 LINE SMOOTH",
"30 -41 OFFCURVE",
"64 -75 OFFCURVE",
"105 -75 CURVE SMOOTH",
"1005 -75 LINE SMOOTH",
"1046 -75 OFFCURVE",
"1080 -41 OFFCURVE",
"1080 0 CURVE SMOOTH",
"1080 41 OFFCURVE",
"1046 75 OFFCURVE",
"1005 75 CURVE SMOOTH",
"180 75 LINE",
"180 500 LINE SMOOTH"
);
}
);
width = 1110;
}
);
unicode = 006C;
},
{
color = 10;
glyphname = m;
lastChange = "2019-01-22 14:04:59 +0000";
layers = (
{
layerId = "ADA7F6FF-5955-4EF3-8FA7-BADC10F8EE4C";
paths = (
{
closed = 1;
nodes = (
"101 539 OFFCURVE",
"88 545 OFFCURVE",
"75 545 CURVE SMOOTH",
"50 545 OFFCURVE",
"30 525 OFFCURVE",
"30 500 CURVE SMOOTH",
"30 0 LINE SMOOTH",
"30 -25 OFFCURVE",
"50 -45 OFFCURVE",
"75 -45 CURVE SMOOTH",
"100 -45 OFFCURVE",
"120 -25 OFFCURVE",
"120 0 CURVE SMOOTH",
"120 383 LINE",
"491 -30 LINE SMOOTH",
"499 -39 OFFCURVE",
"512 -45 OFFCURVE",
"525 -45 CURVE SMOOTH",
"538 -45 OFFCURVE",
"550 -39 OFFCURVE",
"559 -30 CURVE SMOOTH",
"930 383 LINE",
"930 0 LINE SMOOTH",
"930 -25 OFFCURVE",
"950 -45 OFFCURVE",
"975 -45 CURVE SMOOTH",
"1000 -45 OFFCURVE",
"1020 -25 OFFCURVE",
"1020 0 CURVE SMOOTH",
"1020 500 LINE SMOOTH",
"1020 525 OFFCURVE",
"1000 545 OFFCURVE",
"975 545 CURVE SMOOTH",
"962 545 OFFCURVE",
"949 539 OFFCURVE",
"941 530 CURVE SMOOTH",
"525 67 LINE",
"109 530 LINE SMOOTH"
);
}
);
width = 1050;
},
{
associatedMasterId = "ADA7F6FF-5955-4EF3-8FA7-BADC10F8EE4C";
layerId = "E9CD9745-830B-4D8F-8EEC-047829840350";
name = path;
paths = (
{
closed = 0;
nodes = (
"75 0 LINE",
"75 500 LINE",
"525 0 LINE",
"975 500 LINE",
"975 0 LINE"
);
}
);
visible = 1;
width = 1050;
},
{
layerId = "89EE149F-7564-47C9-BE54-DE0A35C75344";
paths = (
{
closed = 1;
nodes = (
"53 513 OFFCURVE",
"49 515 OFFCURVE",
"45 515 CURVE SMOOTH",
"37 515 OFFCURVE",
"30 508 OFFCURVE",
"30 500 CURVE SMOOTH",
"30 0 LINE SMOOTH",
"30 -8 OFFCURVE",
"37 -15 OFFCURVE",
"45 -15 CURVE SMOOTH",
"53 -15 OFFCURVE",
"60 -8 OFFCURVE",
"60 0 CURVE SMOOTH",
"60 461 LINE",
"484 -10 LINE",
"487 -13 OFFCURVE",
"491 -15 OFFCURVE",
"495 -15 CURVE SMOOTH",
"499 -15 OFFCURVE",
"503 -13 OFFCURVE",
"506 -10 CURVE",
"930 461 LINE",
"930 0 LINE SMOOTH",
"930 -8 OFFCURVE",
"937 -15 OFFCURVE",
"945 -15 CURVE SMOOTH",
"953 -15 OFFCURVE",
"960 -8 OFFCURVE",
"960 0 CURVE SMOOTH",
"960 500 LINE SMOOTH",
"960 508 OFFCURVE",
"953 515 OFFCURVE",
"945 515 CURVE SMOOTH",
"941 515 OFFCURVE",
"937 513 OFFCURVE",
"934 510 CURVE",
"495 22 LINE",
"56 510 LINE"
);
}
);
width = 990;
},
{
layerId = "BA964981-AC0A-4481-A535-297F9E9B05B4";
paths = (
{
closed = 1;
nodes = (
"147 565 OFFCURVE",
"127 575 OFFCURVE",
"105 575 CURVE SMOOTH",
"64 575 OFFCURVE",
"30 541 OFFCURVE",
"30 500 CURVE SMOOTH",
"30 0 LINE SMOOTH",
"30 -41 OFFCURVE",
"64 -75 OFFCURVE",
"105 -75 CURVE SMOOTH",
"146 -75 OFFCURVE",
"180 -41 OFFCURVE",
"180 0 CURVE SMOOTH",
"180 304 LINE",
"499 -50 LINE SMOOTH",
"513 -65 OFFCURVE",
"533 -75 OFFCURVE",
"555 -75 CURVE SMOOTH",
"577 -75 OFFCURVE",
"597 -65 OFFCURVE",
"611 -50 CURVE SMOOTH",
"930 304 LINE",
"930 0 LINE SMOOTH",
"930 -41 OFFCURVE",
"964 -75 OFFCURVE",
"1005 -75 CURVE SMOOTH",
"1046 -75 OFFCURVE",
"1080 -41 OFFCURVE",
"1080 0 CURVE SMOOTH",
"1080 500 LINE SMOOTH",
"1080 541 OFFCURVE",
"1046 575 OFFCURVE",
"1005 575 CURVE SMOOTH",
"983 575 OFFCURVE",
"963 565 OFFCURVE",
"949 550 CURVE SMOOTH",
"555 112 LINE",
"161 550 LINE SMOOTH"
);
}
);
width = 1110;
}
);
unicode = 006D;
},
{
color = 10;
glyphname = n;
lastChange = "2019-01-22 14:04:59 +0000";
layers = (
{
layerId = "ADA7F6FF-5955-4EF3-8FA7-BADC10F8EE4C";
paths = (
{
closed = 1;
nodes = (
"91 543 OFFCURVE",
"83 545 OFFCURVE",
"75 545 CURVE SMOOTH",
"50 545 OFFCURVE",
"30 525 OFFCURVE",
"30 500 CURVE SMOOTH",
"30 0 LINE SMOOTH",
"30 -25 OFFCURVE",
"50 -45 OFFCURVE",
"75 -45 CURVE SMOOTH",
"100 -45 OFFCURVE",
"120 -25 OFFCURVE",
"120 0 CURVE SMOOTH",
"120 423 LINE",
"952 -39 LINE SMOOTH",
"959 -43 OFFCURVE",
"967 -45 OFFCURVE",
"975 -45 CURVE SMOOTH",
"1000 -45 OFFCURVE",
"1020 -25 OFFCURVE",
"1020 0 CURVE SMOOTH",
"1020 500 LINE SMOOTH",
"1020 525 OFFCURVE",
"1000 545 OFFCURVE",
"975 545 CURVE SMOOTH",
"950 545 OFFCURVE",
"930 525 OFFCURVE",
"930 500 CURVE SMOOTH",
"930 77 LINE",
"98 539 LINE SMOOTH"
);
}
);
width = 1050;
},
{
associatedMasterId = "ADA7F6FF-5955-4EF3-8FA7-BADC10F8EE4C";
layerId = "5F73D92C-F725-4790-99E6-F9125000BA04";
name = path;
paths = (
{
closed = 0;
nodes = (
"75 0 LINE",
"75 500 LINE",
"975 0 LINE",
"975 500 LINE"
);
}
);
visible = 1;
width = 1050;
},
{
layerId = "89EE149F-7564-47C9-BE54-DE0A35C75344";
paths = (
{
closed = 1;
nodes = (
"51 514 OFFCURVE",
"48 515 OFFCURVE",
"45 515 CURVE SMOOTH",
"37 515 OFFCURVE",
"30 508 OFFCURVE",
"30 500 CURVE SMOOTH",
"30 0 LINE SMOOTH",
"30 -8 OFFCURVE",
"37 -15 OFFCURVE",
"45 -15 CURVE SMOOTH",
"53 -15 OFFCURVE",
"60 -8 OFFCURVE",
"60 0 CURVE SMOOTH",
"60 475 LINE",
"937 -13 LINE",
"939 -14 OFFCURVE",
"942 -15 OFFCURVE",
"945 -15 CURVE SMOOTH",
"953 -15 OFFCURVE",
"960 -8 OFFCURVE",
"960 0 CURVE SMOOTH",
"960 500 LINE SMOOTH",
"960 508 OFFCURVE",
"953 515 OFFCURVE",
"945 515 CURVE SMOOTH",
"937 515 OFFCURVE",
"930 508 OFFCURVE",
"930 500 CURVE SMOOTH",
"930 25 LINE",
"53 513 LINE"
);
}
);
width = 990;
},
{
layerId = "BA964981-AC0A-4481-A535-297F9E9B05B4";
paths = (
{
closed = 1;
nodes = (
"132 571 OFFCURVE",
"119 575 OFFCURVE",
"105 575 CURVE SMOOTH",
"64 575 OFFCURVE",
"30 541 OFFCURVE",
"30 500 CURVE SMOOTH",
"30 0 LINE SMOOTH",
"30 -41 OFFCURVE",
"64 -75 OFFCURVE",
"105 -75 CURVE SMOOTH",
"146 -75 OFFCURVE",
"180 -41 OFFCURVE",
"180 0 CURVE SMOOTH",
"180 373 LINE",
"967 -65 LINE SMOOTH",
"978 -71 OFFCURVE",
"991 -75 OFFCURVE",
"1005 -75 CURVE SMOOTH",
"1046 -75 OFFCURVE",
"1080 -41 OFFCURVE",
"1080 0 CURVE SMOOTH",
"1080 500 LINE SMOOTH",
"1080 541 OFFCURVE",
"1046 575 OFFCURVE",
"1005 575 CURVE SMOOTH",
"964 575 OFFCURVE",
"930 541 OFFCURVE",
"930 500 CURVE SMOOTH",
"930 127 LINE",
"143 565 LINE SMOOTH"
);
}
);
width = 1110;
}
);
unicode = 006E;
},
{
color = 10;
glyphname = o;
lastChange = "2019-01-22 14:04:59 +0000";
layers = (
{
layerId = "ADA7F6FF-5955-4EF3-8FA7-BADC10F8EE4C";
paths = (
{
closed = 1;
nodes = (
"120 455 LINE",
"930 455 LINE",
"930 45 LINE",
"120 45 LINE"
);
},
{
closed = 1;
nodes = (
"1000 -45 OFFCURVE",
"1020 -25 OFFCURVE",
"1020 0 CURVE SMOOTH",
"1020 500 LINE SMOOTH",
"1020 525 OFFCURVE",
"1000 545 OFFCURVE",
"975 545 CURVE SMOOTH",
"75 545 LINE SMOOTH",
"50 545 OFFCURVE",
"30 525 OFFCURVE",
"30 500 CURVE SMOOTH",
"30 0 LINE SMOOTH",
"30 -25 OFFCURVE",
"50 -45 OFFCURVE",
"75 -45 CURVE SMOOTH",
"975 -45 LINE SMOOTH"
);
}
);
width = 1050;
},
{
associatedMasterId = "ADA7F6FF-5955-4EF3-8FA7-BADC10F8EE4C";
layerId = "B4BC032E-6B95-43AF-A639-205330557AEB";
name = path;
paths = (
{
closed = 1;
nodes = (
"75 0 LINE",
"975 0 LINE",
"975 500 LINE",
"75 500 LINE"
);
}
);
visible = 1;
width = 1050;
},
{
layerId = "89EE149F-7564-47C9-BE54-DE0A35C75344";
paths = (
{
closed = 1;
nodes = (
"930 485 LINE",
"930 15 LINE",
"60 15 LINE",
"60 485 LINE"
);
},
{
closed = 1;
nodes = (
"37 515 OFFCURVE",
"30 508 OFFCURVE",
"30 500 CURVE SMOOTH",
"30 0 LINE SMOOTH",
"30 -8 OFFCURVE",
"37 -15 OFFCURVE",
"45 -15 CURVE SMOOTH",
"945 -15 LINE SMOOTH",
"953 -15 OFFCURVE",
"960 -8 OFFCURVE",
"960 0 CURVE SMOOTH",
"960 500 LINE SMOOTH",
"960 508 OFFCURVE",
"953 515 OFFCURVE",
"945 515 CURVE SMOOTH",
"45 515 LINE SMOOTH"
);
}
);
width = 990;
},
{
layerId = "BA964981-AC0A-4481-A535-297F9E9B05B4";
paths = (
{
closed = 1;
nodes = (
"930 425 LINE",
"930 75 LINE",
"180 75 LINE",
"180 425 LINE"
);
},
{
closed = 1;
nodes = (
"64 575 OFFCURVE",
"30 541 OFFCURVE",
"30 500 CURVE SMOOTH",
"30 0 LINE SMOOTH",
"30 -41 OFFCURVE",
"64 -75 OFFCURVE",
"105 -75 CURVE SMOOTH",
"1005 -75 LINE SMOOTH",
"1046 -75 OFFCURVE",
"1080 -41 OFFCURVE",
"1080 0 CURVE SMOOTH",
"1080 500 LINE SMOOTH",
"1080 541 OFFCURVE",
"1046 575 OFFCURVE",
"1005 575 CURVE SMOOTH",
"105 575 LINE SMOOTH"
);
}
);
width = 1110;
}
);
unicode = 006F;
},
{
color = 10;
glyphname = oslash;
lastChange = "2019-01-22 14:04:59 +0000";
layers = (
{
layerId = "ADA7F6FF-5955-4EF3-8FA7-BADC10F8EE4C";
paths = (
{
closed = 1;
nodes = (
"925.821 455 LINE",
"245 76.108 LINE",
"245 455 LINE"
);
},
{
closed = 1;
nodes = (
"1055 423.892 LINE",
"1055 45 LINE",
"374.178 45 LINE"
);
},
{
closed = 1;
nodes = (
"175 545 OFFCURVE",
"155 525 OFFCURVE",
"155 500 CURVE SMOOTH",
"155 26 LINE",
"54 -30 LINE SMOOTH",
"40 -38 OFFCURVE",
"30 -53 OFFCURVE",
"30 -70 CURVE SMOOTH",
"30 -95 OFFCURVE",
"50 -115 OFFCURVE",
"75 -115 CURVE SMOOTH",
"83 -115 OFFCURVE",
"91 -113 OFFCURVE",
"98 -109 CURVE SMOOTH",
"212 -45 LINE",
"1100 -45 LINE SMOOTH",
"1125 -45 OFFCURVE",
"1145 -25 OFFCURVE",
"1145 0 CURVE SMOOTH",
"1145 474 LINE",
"1246 530 LINE SMOOTH",
"1260 538 OFFCURVE",
"1270 553 OFFCURVE",
"1270 570 CURVE SMOOTH",
"1270 595 OFFCURVE",
"1250 615 OFFCURVE",
"1225 615 CURVE SMOOTH",
"1217 615 OFFCURVE",
"1209 613 OFFCURVE",
"1202 609 CURVE SMOOTH",
"1088 545 LINE",
"200 545 LINE SMOOTH"
);
}
);
width = 1300;
},
{
associatedMasterId = "ADA7F6FF-5955-4EF3-8FA7-BADC10F8EE4C";
layerId = "D76E5E82-DBA1-4202-ADF5-CBEDA07AAAFC";
name = path;
paths = (
{
closed = 0;
nodes = (
"75 -40 LINE",
"1215 540 LINE"
);
},
{
closed = 1;
nodes = (
"200 0 LINE",
"1100 0 LINE",
"1100 500 LINE",
"200 500 LINE"
);
}
);
visible = 1;
width = 1290;
},
{
layerId = "89EE149F-7564-47C9-BE54-DE0A35C75344";
paths = (
{
closed = 1;
nodes = (
"1011 485 LINE",
"185 25 LINE",
"185 485 LINE"
);
},
{
closed = 1;
nodes = (
"1055 475 LINE",
"1055 15 LINE",
"229 15 LINE"
);
},
{
closed = 1;
nodes = (
"162 515 OFFCURVE",
"155 508 OFFCURVE",
"155 500 CURVE SMOOTH",
"155 8 LINE",
"38 -57 LINE SMOOTH",
"33 -60 OFFCURVE",
"30 -64 OFFCURVE",
"30 -70 CURVE SMOOTH",
"30 -78 OFFCURVE",
"37 -85 OFFCURVE",
"45 -85 CURVE SMOOTH",
"48 -85 OFFCURVE",
"50 -85 OFFCURVE",
"53 -83 CURVE SMOOTH",
"175 -15 LINE",
"1070 -15 LINE SMOOTH",
"1078 -15 OFFCURVE",
"1085 -8 OFFCURVE",
"1085 0 CURVE SMOOTH",
"1085 492 LINE",
"1202 557 LINE SMOOTH",
"1207 560 OFFCURVE",
"1210 564 OFFCURVE",
"1210 570 CURVE SMOOTH",
"1210 578 OFFCURVE",
"1203 585 OFFCURVE",
"1195 585 CURVE SMOOTH",
"1192 585 OFFCURVE",
"1190 585 OFFCURVE",
"1187 583 CURVE SMOOTH",
"1065 515 LINE",
"170 515 LINE SMOOTH"
);
}
);
width = 1240;
},
{
layerId = "BA964981-AC0A-4481-A535-297F9E9B05B4";
paths = (
{
closed = 1;
nodes = (
"840 425 LINE",
"305 127 LINE",
"305 425 LINE"
);
},
{
closed = 1;
nodes = (
"1055 373 LINE",
"1055 75 LINE",
"520 75 LINE"
);
},
{
closed = 1;
nodes = (
"189 575 OFFCURVE",
"155 541 OFFCURVE",
"155 500 CURVE SMOOTH",
"155 44 LINE",
"70 -4 LINE SMOOTH",
"46 -16 OFFCURVE",
"30 -41 OFFCURVE",
"30 -70 CURVE SMOOTH",
"30 -111 OFFCURVE",
"64 -145 OFFCURVE",
"105 -145 CURVE SMOOTH",
"119 -145 OFFCURVE",
"132 -141 OFFCURVE",
"143 -135 CURVE SMOOTH",
"250 -75 LINE",
"1130 -75 LINE SMOOTH",
"1171 -75 OFFCURVE",
"1205 -41 OFFCURVE",
"1205 0 CURVE SMOOTH",
"1205 456 LINE",
"1290 504 LINE SMOOTH",
"1314 516 OFFCURVE",
"1330 541 OFFCURVE",
"1330 570 CURVE SMOOTH",
"1330 611 OFFCURVE",
"1296 645 OFFCURVE",
"1255 645 CURVE SMOOTH",
"1241 645 OFFCURVE",
"1228 641 OFFCURVE",
"1217 635 CURVE SMOOTH",
"1110 575 LINE",
"230 575 LINE SMOOTH"
);
}
);
width = 1360;
}
);
unicode = 00F8;
},
{
color = 10;
glyphname = oe;
lastChange = "2019-01-22 14:04:59 +0000";
layers = (
{
layerId = "ADA7F6FF-5955-4EF3-8FA7-BADC10F8EE4C";
paths = (
{
closed = 1;
nodes = (
"480 45 LINE",
"480 455 LINE",
"120 455 LINE",
"120 45 LINE"
);
},
{
closed = 1;
nodes = (
"50 -45 OFFCURVE",
"30 -25 OFFCURVE",
"30 0 CURVE SMOOTH",
"30 500 LINE SMOOTH",
"30 525 OFFCURVE",
"50 545 OFFCURVE",
"75 545 CURVE SMOOTH",
"975 545 LINE SMOOTH",
"1000 545 OFFCURVE",
"1020 525 OFFCURVE",
"1020 500 CURVE SMOOTH",
"1020 475 OFFCURVE",
"1000 455 OFFCURVE",
"975 455 CURVE SMOOTH",
"570 455 LINE",
"570 295 LINE",
"975 295 LINE SMOOTH",
"1000 295 OFFCURVE",
"1020 275 OFFCURVE",
"1020 250 CURVE SMOOTH",
"1020 225 OFFCURVE",
"1000 205 OFFCURVE",
"975 205 CURVE SMOOTH",
"570 205 LINE",
"570 45 LINE",
"975 45 LINE SMOOTH",
"1000 45 OFFCURVE",
"1020 25 OFFCURVE",
"1020 0 CURVE SMOOTH",
"1020 -25 OFFCURVE",
"1000 -45 OFFCURVE",
"975 -45 CURVE SMOOTH",
"75 -45 LINE SMOOTH"
);
}
);
width = 1050;
},
{
associatedMasterId = "ADA7F6FF-5955-4EF3-8FA7-BADC10F8EE4C";
layerId = "B4C0546C-C644-4BFA-AB77-1E59C7B244D9";
name = path;
paths = (
{
closed = 0;
nodes = (
"975 0 LINE",
"525 0 LINE",
"525 500 LINE",
"975 500 LINE"
);
},
{
closed = 0;
nodes = (
"525 250 LINE",
"975 250 LINE"
);
},
{
closed = 0;
nodes = (
"525 500 LINE",
"75 500 LINE",
"75 0 LINE",
"525 0 LINE"
);
}
);
visible = 1;
width = 1050;
},
{
layerId = "89EE149F-7564-47C9-BE54-DE0A35C75344";
paths = (
{
closed = 1;
nodes = (
"480 485 LINE",
"480 15 LINE",
"60 15 LINE",
"60 485 LINE"
);
},
{
closed = 1;
nodes = (
"37 515 OFFCURVE",
"30 508 OFFCURVE",
"30 500 CURVE SMOOTH",
"30 0 LINE SMOOTH",
"30 -8 OFFCURVE",
"37 -15 OFFCURVE",
"45 -15 CURVE SMOOTH",
"945 -15 LINE SMOOTH",
"953 -15 OFFCURVE",
"960 -8 OFFCURVE",
"960 0 CURVE SMOOTH",
"960 8 OFFCURVE",
"953 15 OFFCURVE",
"945 15 CURVE SMOOTH",
"510 15 LINE",
"510 235 LINE",
"945 235 LINE SMOOTH",
"953 235 OFFCURVE",
"960 242 OFFCURVE",
"960 250 CURVE SMOOTH",
"960 258 OFFCURVE",
"953 265 OFFCURVE",
"945 265 CURVE SMOOTH",
"510 265 LINE",
"510 485 LINE",
"945 485 LINE SMOOTH",
"953 485 OFFCURVE",
"960 492 OFFCURVE",
"960 500 CURVE SMOOTH",
"960 508 OFFCURVE",
"953 515 OFFCURVE",
"945 515 CURVE SMOOTH",
"45 515 LINE SMOOTH"
);
}
);
width = 990;
},
{
layerId = "BA964981-AC0A-4481-A535-297F9E9B05B4";
paths = (
{
closed = 1;
nodes = (
"480 425 LINE",
"480 75 LINE",
"180 75 LINE",
"180 425 LINE"
);
},
{
closed = 1;
nodes = (
"64 575 OFFCURVE",
"30 541 OFFCURVE",
"30 500 CURVE SMOOTH",
"30 0 LINE SMOOTH",
"30 -41 OFFCURVE",
"64 -75 OFFCURVE",
"105 -75 CURVE SMOOTH",
"1005 -75 LINE SMOOTH",
"1046 -75 OFFCURVE",
"1080 -41 OFFCURVE",
"1080 0 CURVE SMOOTH",
"1080 41 OFFCURVE",
"1046 75 OFFCURVE",
"1005 75 CURVE SMOOTH",
"630 75 LINE",
"630 175 LINE",
"1005 175 LINE SMOOTH",
"1046 175 OFFCURVE",
"1080 209 OFFCURVE",
"1080 250 CURVE SMOOTH",
"1080 291 OFFCURVE",
"1046 325 OFFCURVE",
"1005 325 CURVE SMOOTH",
"630 325 LINE",
"630 425 LINE",
"1005 425 LINE SMOOTH",
"1046 425 OFFCURVE",
"1080 459 OFFCURVE",
"1080 500 CURVE SMOOTH",
"1080 541 OFFCURVE",
"1046 575 OFFCURVE",
"1005 575 CURVE SMOOTH",
"105 575 LINE SMOOTH"
);
}
);
width = 1110;
}
);
unicode = 0153;
},
{
color = 10;
glyphname = p;
lastChange = "2019-01-22 14:04:59 +0000";
layers = (
{
layerId = "ADA7F6FF-5955-4EF3-8FA7-BADC10F8EE4C";
paths = (
{
closed = 1;
nodes = (
"930 455 LINE",
"930 295 LINE",
"120 295 LINE",
"120 455 LINE"
);
},
{
closed = 1;
nodes = (
"50 545 OFFCURVE",
"30 525 OFFCURVE",
"30 500 CURVE SMOOTH",
"30 0 LINE SMOOTH",
"30 -25 OFFCURVE",
"50 -45 OFFCURVE",
"75 -45 CURVE SMOOTH",
"100 -45 OFFCURVE",
"120 -25 OFFCURVE",
"120 0 CURVE SMOOTH",
"120 205 LINE",
"975 205 LINE SMOOTH",
"1000 205 OFFCURVE",
"1020 225 OFFCURVE",
"1020 250 CURVE SMOOTH",
"1020 500 LINE SMOOTH",
"1020 525 OFFCURVE",
"1000 545 OFFCURVE",
"975 545 CURVE SMOOTH",
"75 545 LINE SMOOTH"
);
}
);
width = 1050;
},
{
associatedMasterId = "ADA7F6FF-5955-4EF3-8FA7-BADC10F8EE4C";
layerId = "4BB6A6DD-9957-4E77-9CA6-F4C09DA3752E";
name = path;
paths = (
{
closed = 0;
nodes = (
"75 250 LINE",
"975 250 LINE",
"975 500 LINE",
"75 500 LINE",
"75 0 LINE"
);
}
);
visible = 1;
width = 1050;
},
{
layerId = "89EE149F-7564-47C9-BE54-DE0A35C75344";
paths = (
{
closed = 1;
nodes = (
"930 485 LINE",
"930 265 LINE",
"60 265 LINE",
"60 485 LINE"
);
},
{
closed = 1;
nodes = (
"37 515 OFFCURVE",
"30 508 OFFCURVE",
"30 500 CURVE SMOOTH",
"30 0 LINE SMOOTH",
"30 -8 OFFCURVE",
"37 -15 OFFCURVE",
"45 -15 CURVE SMOOTH",
"53 -15 OFFCURVE",
"60 -8 OFFCURVE",
"60 0 CURVE SMOOTH",
"60 235 LINE",
"945 235 LINE SMOOTH",
"953 235 OFFCURVE",
"960 242 OFFCURVE",
"960 250 CURVE SMOOTH",
"960 500 LINE SMOOTH",
"960 508 OFFCURVE",
"953 515 OFFCURVE",
"945 515 CURVE SMOOTH",
"45 515 LINE SMOOTH"
);
}
);
width = 990;
},
{
layerId = "BA964981-AC0A-4481-A535-297F9E9B05B4";
paths = (
{
closed = 1;
nodes = (
"930 425 LINE",
"930 325 LINE",
"180 325 LINE",
"180 425 LINE"
);
},
{
closed = 1;
nodes = (
"64 575 OFFCURVE",
"30 541 OFFCURVE",
"30 500 CURVE SMOOTH",
"30 0 LINE SMOOTH",
"30 -41 OFFCURVE",
"64 -75 OFFCURVE",
"105 -75 CURVE SMOOTH",
"146 -75 OFFCURVE",
"180 -41 OFFCURVE",
"180 0 CURVE SMOOTH",
"180 175 LINE",
"1005 175 LINE SMOOTH",
"1046 175 OFFCURVE",
"1080 209 OFFCURVE",
"1080 250 CURVE SMOOTH",
"1080 500 LINE SMOOTH",
"1080 541 OFFCURVE",
"1046 575 OFFCURVE",
"1005 575 CURVE SMOOTH",
"105 575 LINE SMOOTH"
);
}
);
width = 1110;
}
);
unicode = 0070;
},
{
color = 10;
glyphname = thorn;
lastChange = "2019-01-22 14:04:59 +0000";
layers = (
{
guideLines = (
{
angle = 90;
position = "{975, 250}";
}
);
layerId = "ADA7F6FF-5955-4EF3-8FA7-BADC10F8EE4C";
paths = (
{
closed = 1;
nodes = (
"120 525 OFFCURVE",
"100 545 OFFCURVE",
"75 545 CURVE SMOOTH",
"50 545 OFFCURVE",
"30 525 OFFCURVE",
"30 500 CURVE SMOOTH",
"30 0 LINE SMOOTH",
"30 -25 OFFCURVE",
"50 -45 OFFCURVE",
"75 -45 CURVE SMOOTH",
"100 -45 OFFCURVE",
"120 -25 OFFCURVE",
"120 0 CURVE SMOOTH",
"120 55 LINE",
"850 57 LINE SMOOTH",
"950 57 OFFCURVE",
"1020 127 OFFCURVE",
"1020 227 CURVE SMOOTH",
"1020 277 LINE SMOOTH",
"1020 377 OFFCURVE",
"950 447 OFFCURVE",
"850 447 CURVE SMOOTH",
"120 445 LINE",
"120 500 LINE SMOOTH"
);
},
{
closed = 1;
nodes = (
"850 357 LINE SMOOTH",
"900 357 OFFCURVE",
"930 327 OFFCURVE",
"930 277 CURVE SMOOTH",
"930 227 LINE SMOOTH",
"930 177 OFFCURVE",
"900 147 OFFCURVE",
"850 147 CURVE SMOOTH",
"120 145 LINE",
"120 355 LINE"
);
}
);
width = 1050;
},
{
associatedMasterId = "ADA7F6FF-5955-4EF3-8FA7-BADC10F8EE4C";
guideLines = (
{
position = "{864, 415}";
}
);
layerId = "596E879A-9F24-4541-9D09-189BA8F197F5";
name = path;
paths = (
{
closed = 0;
nodes = (
"75 500 LINE",
"75 0 LINE"
);
},
{
closed = 0;
nodes = (
"75 400 LINE",
"850 402 LINE",
"925 402 OFFCURVE",
"975 347 OFFCURVE",
"975 277 CURVE",
"975 227 LINE",
"975 157 OFFCURVE",
"923 100 OFFCURVE",
"848 100 CURVE SMOOTH",
"75 100 LINE"
);
}
);
visible = 1;
width = 1050;
},
{
guideLines = (
{
angle = 90;
position = "{975, 250}";
}
);
layerId = "89EE149F-7564-47C9-BE54-DE0A35C75344";
paths = (
{
closed = 1;
nodes = (
"60 508 OFFCURVE",
"53 515 OFFCURVE",
"45 515 CURVE SMOOTH",
"37 515 OFFCURVE",
"30 508 OFFCURVE",
"30 500 CURVE SMOOTH",
"30 0 LINE SMOOTH",
"30 -8 OFFCURVE",
"37 -15 OFFCURVE",
"45 -15 CURVE SMOOTH",
"53 -15 OFFCURVE",
"60 -8 OFFCURVE",
"60 0 CURVE SMOOTH",
"60 85 LINE",
"818 85 LINE SMOOTH",
"899 85 OFFCURVE",
"960 146 OFFCURVE",
"960 227 CURVE SMOOTH",
"960 277 LINE SMOOTH",
"960 358 OFFCURVE",
"901 417 OFFCURVE",
"820 417 CURVE SMOOTH",
"60 415 LINE",
"60 500 LINE SMOOTH"
);
},
{
closed = 1;
nodes = (
"820 387 LINE SMOOTH",
"884 387 OFFCURVE",
"930 341 OFFCURVE",
"930 277 CURVE SMOOTH",
"930 227 LINE SMOOTH",
"930 163 OFFCURVE",
"882 115 OFFCURVE",
"818 115 CURVE SMOOTH",
"60 115 LINE",
"60 385 LINE"
);
}
);
width = 990;
},
{
guideLines = (
{
angle = 90;
position = "{975, 250}";
}
);
layerId = "BA964981-AC0A-4481-A535-297F9E9B05B4";
paths = (
{
closed = 1;
nodes = (
"180 541 OFFCURVE",
"146 575 OFFCURVE",
"105 575 CURVE SMOOTH",
"64 575 OFFCURVE",
"30 541 OFFCURVE",
"30 500 CURVE SMOOTH",
"30 0 LINE SMOOTH",
"30 -41 OFFCURVE",
"64 -75 OFFCURVE",
"105 -75 CURVE SMOOTH",
"146 -75 OFFCURVE",
"180 -41 OFFCURVE",
"180 0 CURVE SMOOTH",
"180 25 LINE",
"878 25 LINE SMOOTH",
"992 25 OFFCURVE",
"1080 113 OFFCURVE",
"1080 227 CURVE SMOOTH",
"1080 277 LINE SMOOTH",
"1080 391 OFFCURVE",
"994 477 OFFCURVE",
"880 477 CURVE SMOOTH",
"180 475 LINE",
"180 500 LINE SMOOTH"
);
},
{
closed = 1;
nodes = (
"880 327 LINE SMOOTH",
"911 327 OFFCURVE",
"930 308 OFFCURVE",
"930 277 CURVE SMOOTH",
"930 227 LINE SMOOTH",
"930 196 OFFCURVE",
"909 175 OFFCURVE",
"878 175 CURVE SMOOTH",
"180 175 LINE",
"180 325 LINE"
);
}
);
width = 1110;
}
);
unicode = 00FE;
},
{
color = 10;
glyphname = q;
lastChange = "2019-01-22 14:04:59 +0000";
layers = (
{
layerId = "ADA7F6FF-5955-4EF3-8FA7-BADC10F8EE4C";
paths = (
{
closed = 1;
nodes = (
"930 455 LINE",
"930 76.478 LINE",
"547.542 288.955 LINE SMOOTH",
"540.914 292.799 OFFCURVE",
"533.214 295 OFFCURVE",
"525 295 CURVE SMOOTH",
"500.147 295 OFFCURVE",
"480 274.853 OFFCURVE",
"480 250 CURVE SMOOTH",
"480 232.769 OFFCURVE",
"489.685 217.801 OFFCURVE",
"503.907 210.24 CURVE SMOOTH",
"801.339 45 LINE",
"120 45 LINE",
"120 455 LINE"
);
},
{
closed = 1;
nodes = (
"50 545 OFFCURVE",
"30 525 OFFCURVE",
"30 500 CURVE SMOOTH",
"30 0 LINE SMOOTH",
"30 -25 OFFCURVE",
"50 -45 OFFCURVE",
"75 -45 CURVE SMOOTH",
"975 -45 LINE SMOOTH",
"1000 -45 OFFCURVE",
"1020 -25 OFFCURVE",
"1020 0 CURVE SMOOTH",
"1020 500 LINE SMOOTH",
"1020 525 OFFCURVE",
"1000 545 OFFCURVE",
"975 545 CURVE SMOOTH",
"75 545 LINE SMOOTH"
);
}
);
width = 1050;
},
{
associatedMasterId = "ADA7F6FF-5955-4EF3-8FA7-BADC10F8EE4C";
layerId = "9870B0FB-9ECF-40D3-9114-57BE9533717F";
name = path;
paths = (
{
closed = 1;
nodes = (
"75 0 LINE",
"975 0 LINE",
"975 500 LINE",
"75 500 LINE"
);
},
{
closed = 0;
nodes = (
"975 0 LINE",
"527 250 LINE"
);
}
);
visible = 1;
width = 1050;
},
{
layerId = "89EE149F-7564-47C9-BE54-DE0A35C75344";
paths = (
{
closed = 1;
nodes = (
"930 485 LINE",
"930 25 LINE",
"503 263 LINE SMOOTH",
"500 264 OFFCURVE",
"498 265 OFFCURVE",
"495 265 CURVE SMOOTH",
"487 265 OFFCURVE",
"480 258 OFFCURVE",
"480 250 CURVE SMOOTH",
"480 244 OFFCURVE",
"483 239 OFFCURVE",
"488 237 CURVE SMOOTH",
"887 15 LINE",
"60 15 LINE",
"60 485 LINE"
);
},
{
closed = 1;
nodes = (
"37 515 OFFCURVE",
"30 508 OFFCURVE",
"30 500 CURVE SMOOTH",
"30 0 LINE SMOOTH",
"30 -8 OFFCURVE",
"37 -15 OFFCURVE",
"45 -15 CURVE SMOOTH",
"945 -15 LINE SMOOTH",
"953 -15 OFFCURVE",
"960 -8 OFFCURVE",
"960 0 CURVE SMOOTH",
"960 500 LINE SMOOTH",
"960 508 OFFCURVE",
"953 515 OFFCURVE",
"945 515 CURVE SMOOTH",
"45 515 LINE SMOOTH"
);
}
);
width = 990;
},
{
layerId = "BA964981-AC0A-4481-A535-297F9E9B05B4";
paths = (
{
closed = 1;
nodes = (
"930 425 LINE",
"930 127 LINE",
"593 315 LINE SMOOTH",
"582 321 OFFCURVE",
"569 325 OFFCURVE",
"555 325 CURVE SMOOTH",
"514 325 OFFCURVE",
"480 291 OFFCURVE",
"480 250 CURVE SMOOTH",
"480 221 OFFCURVE",
"496 196 OFFCURVE",
"520 184 CURVE SMOOTH",
"716 75 LINE",
"180 75 LINE",
"180 425 LINE"
);
},
{
closed = 1;
nodes = (
"64 575 OFFCURVE",
"30 541 OFFCURVE",
"30 500 CURVE SMOOTH",
"30 0 LINE SMOOTH",
"30 -41 OFFCURVE",
"64 -75 OFFCURVE",
"105 -75 CURVE SMOOTH",
"1005 -75 LINE SMOOTH",
"1046 -75 OFFCURVE",
"1080 -41 OFFCURVE",
"1080 0 CURVE SMOOTH",
"1080 500 LINE SMOOTH",
"1080 541 OFFCURVE",
"1046 575 OFFCURVE",
"1005 575 CURVE SMOOTH",
"105 575 LINE SMOOTH"
);
}
);
width = 1110;
}
);
unicode = 0071;
},
{
color = 10;
glyphname = r;
lastChange = "2019-01-22 14:04:59 +0000";
layers = (
{
layerId = "ADA7F6FF-5955-4EF3-8FA7-BADC10F8EE4C";
paths = (
{
closed = 1;
nodes = (
"930 455 LINE",
"930 375 LINE SMOOTH",
"930 325 OFFCURVE",
"900 295 OFFCURVE",
"850 295 CURVE SMOOTH",
"120 295 LINE",
"120 455 LINE"
);
},
{
closed = 1;
nodes = (
"50 545 OFFCURVE",
"30 525 OFFCURVE",
"30 500 CURVE SMOOTH",
"30 0 LINE SMOOTH",
"30 -25 OFFCURVE",
"50 -45 OFFCURVE",
"75 -45 CURVE SMOOTH",
"100 -45 OFFCURVE",
"120 -25 OFFCURVE",
"120 0 CURVE SMOOTH",
"120 205 LINE",
"850 205 LINE SMOOTH",
"900 205 OFFCURVE",
"930 174 OFFCURVE",
"930 124 CURVE SMOOTH",
"930 -1 LINE SMOOTH",
"930 -26 OFFCURVE",
"950 -46 OFFCURVE",
"975 -46 CURVE SMOOTH",
"1000 -46 OFFCURVE",
"1020 -26 OFFCURVE",
"1020 -1 CURVE SMOOTH",
"1020 124 LINE SMOOTH",
"1020 176 OFFCURVE",
"1001 219 OFFCURVE",
"970 250 CURVE",
"1001 280 OFFCURVE",
"1020 324 OFFCURVE",
"1020 375 CURVE SMOOTH",
"1020 500 LINE SMOOTH",
"1020 525 OFFCURVE",
"1000 545 OFFCURVE",
"975 545 CURVE SMOOTH",
"75 545 LINE SMOOTH"
);
}
);
width = 1050;
},
{
associatedMasterId = "ADA7F6FF-5955-4EF3-8FA7-BADC10F8EE4C";
layerId = "0E016109-FF42-43F5-B089-C4A8E53A39BB";
name = path;
paths = (
{
closed = 0;
nodes = (
"75 0 LINE",
"75 500 LINE",
"975 500 LINE",
"975 375 LINE SMOOTH",
"975 300 OFFCURVE",
"925 250 OFFCURVE",
"850 250 CURVE SMOOTH",
"75 250 LINE"
);
},
{
closed = 0;
nodes = (
"975 -1 LINE",
"975 124 LINE SMOOTH",
"975 199 OFFCURVE",
"925 250 OFFCURVE",
"850 250 CURVE SMOOTH",
"819 250 LINE"
);
}
);
visible = 1;
width = 1050;
},
{
layerId = "89EE149F-7564-47C9-BE54-DE0A35C75344";
paths = (
{
closed = 1;
nodes = (
"930 485 LINE",
"930 375 LINE SMOOTH",
"930 308 OFFCURVE",
"887 265 OFFCURVE",
"820 265 CURVE SMOOTH",
"60 265 LINE",
"60 485 LINE"
);
},
{
closed = 1;
nodes = (
"37 515 OFFCURVE",
"30 508 OFFCURVE",
"30 500 CURVE SMOOTH",
"30 0 LINE SMOOTH",
"30 -8 OFFCURVE",
"37 -15 OFFCURVE",
"45 -15 CURVE SMOOTH",
"53 -15 OFFCURVE",
"60 -8 OFFCURVE",
"60 0 CURVE SMOOTH",
"60 235 LINE",
"820 235 LINE SMOOTH",
"886 235 OFFCURVE",
"930 191 OFFCURVE",
"930 124 CURVE SMOOTH",
"930 -1 LINE SMOOTH",
"930 -9 OFFCURVE",
"937 -16 OFFCURVE",
"945 -16 CURVE SMOOTH",
"953 -16 OFFCURVE",
"960 -9 OFFCURVE",
"960 -1 CURVE SMOOTH",
"960 124 LINE SMOOTH",
"960 182 OFFCURVE",
"932 228 OFFCURVE",
"888 250 CURVE",
"932 272 OFFCURVE",
"960 317 OFFCURVE",
"960 375 CURVE SMOOTH",
"960 500 LINE SMOOTH",
"960 508 OFFCURVE",
"953 515 OFFCURVE",
"945 515 CURVE SMOOTH",
"45 515 LINE SMOOTH"
);
}
);
width = 990;
},
{
layerId = "BA964981-AC0A-4481-A535-297F9E9B05B4";
paths = (
{
closed = 1;
nodes = (
"930 425 LINE",
"930 375 LINE SMOOTH",
"930 341 OFFCURVE",
"914 325 OFFCURVE",
"880 325 CURVE SMOOTH",
"180 325 LINE",
"180 425 LINE"
);
},
{
closed = 1;
nodes = (
"64 575 OFFCURVE",
"30 541 OFFCURVE",
"30 500 CURVE SMOOTH",
"30 0 LINE SMOOTH",
"30 -41 OFFCURVE",
"64 -75 OFFCURVE",
"105 -75 CURVE SMOOTH",
"146 -75 OFFCURVE",
"180 -41 OFFCURVE",
"180 0 CURVE SMOOTH",
"180 175 LINE",
"880 175 LINE SMOOTH",
"913 175 OFFCURVE",
"930 158 OFFCURVE",
"930 124 CURVE SMOOTH",
"930 -1 LINE SMOOTH",
"930 -42 OFFCURVE",
"964 -76 OFFCURVE",
"1005 -76 CURVE SMOOTH",
"1046 -76 OFFCURVE",
"1080 -42 OFFCURVE",
"1080 -1 CURVE SMOOTH",
"1080 124 LINE SMOOTH",
"1080 173 OFFCURVE",
"1065 216 OFFCURVE",
"1040 250 CURVE",
"1065 283 OFFCURVE",
"1080 326 OFFCURVE",
"1080 375 CURVE SMOOTH",
"1080 500 LINE SMOOTH",
"1080 541 OFFCURVE",
"1046 575 OFFCURVE",
"1005 575 CURVE SMOOTH",
"105 575 LINE SMOOTH"
);
}
);
width = 1110;
}
);
unicode = 0072;
},
{
color = 10;
glyphname = s;
lastChange = "2019-01-22 14:04:59 +0000";
layers = (
{
layerId = "ADA7F6FF-5955-4EF3-8FA7-BADC10F8EE4C";
paths = (
{
closed = 1;
nodes = (
"50 545 OFFCURVE",
"30 525 OFFCURVE",
"30 500 CURVE SMOOTH",
"30 250 LINE SMOOTH",
"30 225 OFFCURVE",
"50 205 OFFCURVE",
"75 205 CURVE SMOOTH",
"930 205 LINE",
"930 45 LINE",
"75 45 LINE SMOOTH",
"50 45 OFFCURVE",
"30 25 OFFCURVE",
"30 0 CURVE SMOOTH",
"30 -25 OFFCURVE",
"50 -45 OFFCURVE",
"75 -45 CURVE SMOOTH",
"975 -45 LINE SMOOTH",
"1000 -45 OFFCURVE",
"1020 -25 OFFCURVE",
"1020 0 CURVE SMOOTH",
"1020 250 LINE SMOOTH",
"1020 275 OFFCURVE",
"1000 295 OFFCURVE",
"975 295 CURVE SMOOTH",
"120 295 LINE",
"120 455 LINE",
"975 455 LINE SMOOTH",
"1000 455 OFFCURVE",
"1020 475 OFFCURVE",
"1020 500 CURVE SMOOTH",
"1020 525 OFFCURVE",
"1000 545 OFFCURVE",
"975 545 CURVE SMOOTH",
"75 545 LINE SMOOTH"
);
}
);
width = 1050;
},
{
associatedMasterId = "ADA7F6FF-5955-4EF3-8FA7-BADC10F8EE4C";
layerId = "8FA1B3EB-39A8-4F87-A70A-049BF7C1F4BC";
name = path;
paths = (
{
closed = 0;
nodes = (
"975 500 LINE",
"75 500 LINE",
"75 250 LINE",
"975 250 LINE",
"975 0 LINE",
"75 0 LINE"
);
}
);
visible = 1;
width = 1050;
},
{
layerId = "89EE149F-7564-47C9-BE54-DE0A35C75344";
paths = (
{
closed = 1;
nodes = (
"37 515 OFFCURVE",
"30 508 OFFCURVE",
"30 500 CURVE SMOOTH",
"30 250 LINE SMOOTH",
"30 242 OFFCURVE",
"37 235 OFFCURVE",
"45 235 CURVE SMOOTH",
"930 235 LINE",
"930 15 LINE",
"45 15 LINE SMOOTH",
"37 15 OFFCURVE",
"30 8 OFFCURVE",
"30 0 CURVE SMOOTH",
"30 -8 OFFCURVE",
"37 -15 OFFCURVE",
"45 -15 CURVE SMOOTH",
"945 -15 LINE SMOOTH",
"953 -15 OFFCURVE",
"960 -8 OFFCURVE",
"960 0 CURVE SMOOTH",
"960 250 LINE SMOOTH",
"960 258 OFFCURVE",
"953 265 OFFCURVE",
"945 265 CURVE SMOOTH",
"60 265 LINE",
"60 485 LINE",
"945 485 LINE SMOOTH",
"953 485 OFFCURVE",
"960 492 OFFCURVE",
"960 500 CURVE SMOOTH",
"960 508 OFFCURVE",
"953 515 OFFCURVE",
"945 515 CURVE SMOOTH",
"45 515 LINE SMOOTH"
);
}
);
width = 990;
},
{
layerId = "BA964981-AC0A-4481-A535-297F9E9B05B4";
paths = (
{
closed = 1;
nodes = (
"64 575 OFFCURVE",
"30 541 OFFCURVE",
"30 500 CURVE SMOOTH",
"30 250 LINE SMOOTH",
"30 209 OFFCURVE",
"64 175 OFFCURVE",
"105 175 CURVE SMOOTH",
"930 175 LINE",
"930 75 LINE",
"105 75 LINE SMOOTH",
"64 75 OFFCURVE",
"30 41 OFFCURVE",
"30 0 CURVE SMOOTH",
"30 -41 OFFCURVE",
"64 -75 OFFCURVE",
"105 -75 CURVE SMOOTH",
"1005 -75 LINE SMOOTH",
"1046 -75 OFFCURVE",
"1080 -41 OFFCURVE",
"1080 0 CURVE SMOOTH",
"1080 250 LINE SMOOTH",
"1080 291 OFFCURVE",
"1046 325 OFFCURVE",
"1005 325 CURVE SMOOTH",
"180 325 LINE",
"180 425 LINE",
"1005 425 LINE SMOOTH",
"1046 425 OFFCURVE",
"1080 459 OFFCURVE",
"1080 500 CURVE SMOOTH",
"1080 541 OFFCURVE",
"1046 575 OFFCURVE",
"1005 575 CURVE SMOOTH",
"105 575 LINE SMOOTH"
);
}
);
width = 1110;
}
);
unicode = 0073;
},
{
color = 10;
glyphname = germandbls;
lastChange = "2019-01-22 14:04:59 +0000";
layers = (
{
layerId = "ADA7F6FF-5955-4EF3-8FA7-BADC10F8EE4C";
paths = (
{
closed = 1;
nodes = (
"50 545 OFFCURVE",
"30 525 OFFCURVE",
"30 500 CURVE SMOOTH",
"30 0 LINE SMOOTH",
"30 -25 OFFCURVE",
"50 -45 OFFCURVE",
"75 -45 CURVE SMOOTH",
"100 -45 OFFCURVE",
"120 -25 OFFCURVE",
"120 0 CURVE SMOOTH",
"120 455 LINE",
"725 455 LINE SMOOTH",
"775 455 OFFCURVE",
"805 425 OFFCURVE",
"805 375 CURVE SMOOTH",
"805 295 LINE",
"325 295 LINE SMOOTH",
"300 295 OFFCURVE",
"280 275 OFFCURVE",
"280 250 CURVE SMOOTH",
"280 225 OFFCURVE",
"300 205 OFFCURVE",
"325 205 CURVE SMOOTH",
"850 205 LINE SMOOTH",
"900 205 OFFCURVE",
"930 174 OFFCURVE",
"930 124 CURVE SMOOTH",
"930 44 LINE",
"325 45 LINE SMOOTH",
"300 45 OFFCURVE",
"280 25 OFFCURVE",
"280 0 CURVE SMOOTH",
"280 -25 OFFCURVE",
"300 -45 OFFCURVE",
"325 -45 CURVE SMOOTH",
"975 -45 LINE SMOOTH",
"1000 -45 OFFCURVE",
"1020 -25 OFFCURVE",
"1020 0 CURVE SMOOTH",
"1020 124 LINE SMOOTH",
"1020 208 OFFCURVE",
"970 272 OFFCURVE",
"895 290 CURVE",
"895 375 LINE SMOOTH",
"895 475 OFFCURVE",
"825 545 OFFCURVE",
"725 545 CURVE SMOOTH",
"75 545 LINE SMOOTH"
);
}
);
width = 1050;
},
{
associatedMasterId = "ADA7F6FF-5955-4EF3-8FA7-BADC10F8EE4C";
layerId = "2CCA6678-4A53-4795-863A-C9C950C1C15F";
name = path;
paths = (
{
closed = 0;
nodes = (
"325 250 LINE",
"850 250 LINE",
"925 250 OFFCURVE",
"975 199 OFFCURVE",
"975 124 CURVE",
"975 -1 LINE",
"325 0 LINE"
);
},
{
closed = 0;
nodes = (
"75 0 LINE",
"75 500 LINE",
"725 500 LINE",
"800 500 OFFCURVE",
"850 450 OFFCURVE",
"850 375 CURVE",
"850 250 LINE"
);
}
);
visible = 1;
width = 1050;
},
{
layerId = "89EE149F-7564-47C9-BE54-DE0A35C75344";
paths = (
{
closed = 1;
nodes = (
"37 515 OFFCURVE",
"30 508 OFFCURVE",
"30 500 CURVE SMOOTH",
"30 0 LINE SMOOTH",
"30 -8 OFFCURVE",
"37 -15 OFFCURVE",
"45 -15 CURVE SMOOTH",
"53 -15 OFFCURVE",
"60 -8 OFFCURVE",
"60 0 CURVE SMOOTH",
"60 485 LINE",
"695 485 LINE SMOOTH",
"762 485 OFFCURVE",
"805 442 OFFCURVE",
"805 375 CURVE SMOOTH",
"805 265 LINE",
"295 265 LINE SMOOTH",
"287 265 OFFCURVE",
"280 258 OFFCURVE",
"280 250 CURVE SMOOTH",
"280 242 OFFCURVE",
"287 235 OFFCURVE",
"295 235 CURVE SMOOTH",
"820 235 LINE SMOOTH",
"886 235 OFFCURVE",
"930 191 OFFCURVE",
"930 124 CURVE SMOOTH",
"930 14 LINE",
"295 15 LINE SMOOTH",
"287 15 OFFCURVE",
"280 8 OFFCURVE",
"280 0 CURVE SMOOTH",
"280 -8 OFFCURVE",
"287 -15 OFFCURVE",
"295 -15 CURVE SMOOTH",
"945 -16 LINE SMOOTH",
"953 -16 OFFCURVE",
"960 -9 OFFCURVE",
"960 -1 CURVE SMOOTH",
"960 124 LINE SMOOTH",
"960 202 OFFCURVE",
"910 258 OFFCURVE",
"835 264 CURVE",
"835 375 LINE SMOOTH",
"835 458 OFFCURVE",
"778 515 OFFCURVE",
"695 515 CURVE SMOOTH",
"45 515 LINE SMOOTH"
);
}
);
width = 990;
},
{
layerId = "BA964981-AC0A-4481-A535-297F9E9B05B4";
paths = (
{
closed = 1;
nodes = (
"64 575 OFFCURVE",
"30 541 OFFCURVE",
"30 500 CURVE SMOOTH",
"30 0 LINE SMOOTH",
"30 -41 OFFCURVE",
"64 -75 OFFCURVE",
"105 -75 CURVE SMOOTH",
"146 -75 OFFCURVE",
"180 -41 OFFCURVE",
"180 0 CURVE SMOOTH",
"180 425 LINE",
"755 425 LINE SMOOTH",
"789 425 OFFCURVE",
"805 409 OFFCURVE",
"805 375 CURVE SMOOTH",
"805 325 LINE",
"355 325 LINE SMOOTH",
"314 325 OFFCURVE",
"280 291 OFFCURVE",
"280 250 CURVE SMOOTH",
"280 209 OFFCURVE",
"314 175 OFFCURVE",
"355 175 CURVE SMOOTH",
"880 175 LINE SMOOTH",
"913 175 OFFCURVE",
"930 158 OFFCURVE",
"930 124 CURVE SMOOTH",
"930 74 LINE",
"355 75 LINE SMOOTH",
"314 75 OFFCURVE",
"280 41 OFFCURVE",
"280 0 CURVE SMOOTH",
"280 -41 OFFCURVE",
"314 -75 OFFCURVE",
"355 -75 CURVE SMOOTH",
"1005 -76 LINE SMOOTH",
"1046 -76 OFFCURVE",
"1080 -42 OFFCURVE",
"1080 -1 CURVE SMOOTH",
"1080 124 LINE SMOOTH",
"1080 214 OFFCURVE",
"1031 284 OFFCURVE",
"955 312 CURVE",
"955 375 LINE SMOOTH",
"955 491 OFFCURVE",
"871 575 OFFCURVE",
"755 575 CURVE SMOOTH",
"105 575 LINE SMOOTH"
);
}
);
width = 1110;
}
);
unicode = 00DF;
},
{
color = 10;
glyphname = t;
lastChange = "2019-01-22 14:04:59 +0000";
layers = (
{
layerId = "ADA7F6FF-5955-4EF3-8FA7-BADC10F8EE4C";
paths = (
{
closed = 1;
nodes = (
"50 545 OFFCURVE",
"30 525 OFFCURVE",
"30 500 CURVE SMOOTH",
"30 475 OFFCURVE",
"50 455 OFFCURVE",
"75 455 CURVE SMOOTH",
"480 455 LINE",
"480 0 LINE SMOOTH",
"480 -25 OFFCURVE",
"500 -45 OFFCURVE",
"525 -45 CURVE SMOOTH",
"550 -45 OFFCURVE",
"570 -25 OFFCURVE",
"570 0 CURVE SMOOTH",
"570 455 LINE",
"975 455 LINE SMOOTH",
"1000 455 OFFCURVE",
"1020 475 OFFCURVE",
"1020 500 CURVE SMOOTH",
"1020 525 OFFCURVE",
"1000 545 OFFCURVE",
"975 545 CURVE SMOOTH",
"75 545 LINE SMOOTH"
);
}
);
width = 1050;
},
{
associatedMasterId = "ADA7F6FF-5955-4EF3-8FA7-BADC10F8EE4C";
layerId = "3535D4A7-2C2E-418E-A601-50F9DA832617";
name = path;
paths = (
{
closed = 0;
nodes = (
"75 500 LINE",
"975 500 LINE"
);
},
{
closed = 0;
nodes = (
"525 500 LINE",
"525 0 LINE"
);
}
);
visible = 1;
width = 1050;
},
{
layerId = "89EE149F-7564-47C9-BE54-DE0A35C75344";
paths = (
{
closed = 1;
nodes = (
"37 515 OFFCURVE",
"30 508 OFFCURVE",
"30 500 CURVE SMOOTH",
"30 492 OFFCURVE",
"37 485 OFFCURVE",
"45 485 CURVE SMOOTH",
"480 485 LINE",
"480 0 LINE SMOOTH",
"480 -8 OFFCURVE",
"487 -15 OFFCURVE",
"495 -15 CURVE SMOOTH",
"503 -15 OFFCURVE",
"510 -8 OFFCURVE",
"510 0 CURVE SMOOTH",
"510 485 LINE",
"945 485 LINE SMOOTH",
"953 485 OFFCURVE",
"960 492 OFFCURVE",
"960 500 CURVE SMOOTH",
"960 508 OFFCURVE",
"953 515 OFFCURVE",
"945 515 CURVE SMOOTH",
"45 515 LINE SMOOTH"
);
}
);
width = 990;
},
{
layerId = "BA964981-AC0A-4481-A535-297F9E9B05B4";
paths = (
{
closed = 1;
nodes = (
"64 575 OFFCURVE",
"30 541 OFFCURVE",
"30 500 CURVE SMOOTH",
"30 459 OFFCURVE",
"64 425 OFFCURVE",
"105 425 CURVE SMOOTH",
"480 425 LINE",
"480 0 LINE SMOOTH",
"480 -41 OFFCURVE",
"514 -75 OFFCURVE",
"555 -75 CURVE SMOOTH",
"596 -75 OFFCURVE",
"630 -41 OFFCURVE",
"630 0 CURVE SMOOTH",
"630 425 LINE",
"1005 425 LINE SMOOTH",
"1046 425 OFFCURVE",
"1080 459 OFFCURVE",
"1080 500 CURVE SMOOTH",
"1080 541 OFFCURVE",
"1046 575 OFFCURVE",
"1005 575 CURVE SMOOTH",
"105 575 LINE SMOOTH"
);
}
);
width = 1110;
}
);
unicode = 0074;
},
{
color = 10;
glyphname = u;
lastChange = "2019-01-22 14:04:59 +0000";
layers = (
{
layerId = "ADA7F6FF-5955-4EF3-8FA7-BADC10F8EE4C";
paths = (
{
closed = 1;
nodes = (
"120 525 OFFCURVE",
"100 545 OFFCURVE",
"75 545 CURVE SMOOTH",
"50 545 OFFCURVE",
"30 525 OFFCURVE",
"30 500 CURVE SMOOTH",
"30 0 LINE SMOOTH",
"30 -25 OFFCURVE",
"50 -45 OFFCURVE",
"75 -45 CURVE SMOOTH",
"975 -45 LINE SMOOTH",
"1000 -45 OFFCURVE",
"1020 -25 OFFCURVE",
"1020 0 CURVE SMOOTH",
"1020 500 LINE SMOOTH",
"1020 525 OFFCURVE",
"1000 545 OFFCURVE",
"975 545 CURVE SMOOTH",
"950 545 OFFCURVE",
"930 525 OFFCURVE",
"930 500 CURVE SMOOTH",
"930 45 LINE",
"120 45 LINE",
"120 500 LINE SMOOTH"
);
}
);
width = 1050;
},
{
associatedMasterId = "ADA7F6FF-5955-4EF3-8FA7-BADC10F8EE4C";
layerId = "AEDD40DA-DE5D-4FA6-9478-4FBAC0128739";
name = path;
paths = (
{
closed = 0;
nodes = (
"975 500 LINE",
"975 0 LINE",
"75 0 LINE",
"75 500 LINE"
);
}
);
visible = 1;
width = 1050;
},
{
layerId = "89EE149F-7564-47C9-BE54-DE0A35C75344";
paths = (
{
closed = 1;
nodes = (
"60 508 OFFCURVE",
"53 515 OFFCURVE",
"45 515 CURVE SMOOTH",
"37 515 OFFCURVE",
"30 508 OFFCURVE",
"30 500 CURVE SMOOTH",
"30 0 LINE SMOOTH",
"30 -8 OFFCURVE",
"37 -15 OFFCURVE",
"45 -15 CURVE SMOOTH",
"945 -15 LINE SMOOTH",
"953 -15 OFFCURVE",
"960 -8 OFFCURVE",
"960 0 CURVE SMOOTH",
"960 500 LINE SMOOTH",
"960 508 OFFCURVE",
"953 515 OFFCURVE",
"945 515 CURVE SMOOTH",
"937 515 OFFCURVE",
"930 508 OFFCURVE",
"930 500 CURVE SMOOTH",
"930 15 LINE",
"60 15 LINE",
"60 500 LINE SMOOTH"
);
}
);
width = 990;
},
{
layerId = "BA964981-AC0A-4481-A535-297F9E9B05B4";
paths = (
{
closed = 1;
nodes = (
"180 541 OFFCURVE",
"146 575 OFFCURVE",
"105 575 CURVE SMOOTH",
"64 575 OFFCURVE",
"30 541 OFFCURVE",
"30 500 CURVE SMOOTH",
"30 0 LINE SMOOTH",
"30 -41 OFFCURVE",
"64 -75 OFFCURVE",
"105 -75 CURVE SMOOTH",
"1005 -75 LINE SMOOTH",
"1046 -75 OFFCURVE",
"1080 -41 OFFCURVE",
"1080 0 CURVE SMOOTH",
"1080 500 LINE SMOOTH",
"1080 541 OFFCURVE",
"1046 575 OFFCURVE",
"1005 575 CURVE SMOOTH",
"964 575 OFFCURVE",
"930 541 OFFCURVE",
"930 500 CURVE SMOOTH",
"930 75 LINE",
"180 75 LINE",
"180 500 LINE SMOOTH"
);
}
);
width = 1110;
}
);
unicode = 0075;
},
{
color = 10;
glyphname = v;
lastChange = "2019-01-22 14:04:59 +0000";
layers = (
{
layerId = "ADA7F6FF-5955-4EF3-8FA7-BADC10F8EE4C";
paths = (
{
closed = 1;
nodes = (
"100 539 OFFCURVE",
"88 545 OFFCURVE",
"75 545 CURVE SMOOTH",
"50 545 OFFCURVE",
"30 525 OFFCURVE",
"30 500 CURVE SMOOTH",
"30 488 OFFCURVE",
"34 478 OFFCURVE",
"42 470 CURVE",
"491 -30 LINE SMOOTH",
"500 -39 OFFCURVE",
"512 -45 OFFCURVE",
"525 -45 CURVE SMOOTH",
"538.521 -45 OFFCURVE",
"550.579 -39.15 OFFCURVE",
"558.802 -29.823 CURVE SMOOTH",
"1008 470 LINE",
"1016 478 OFFCURVE",
"1020 488 OFFCURVE",
"1020 500 CURVE SMOOTH",
"1020 525 OFFCURVE",
"1000 545 OFFCURVE",
"975 545 CURVE SMOOTH",
"962 545 OFFCURVE",
"950 539 OFFCURVE",
"941 530 CURVE",
"525 66.748 LINE",
"109 530 LINE"
);
}
);
width = 1050;
},
{
associatedMasterId = "ADA7F6FF-5955-4EF3-8FA7-BADC10F8EE4C";
layerId = "6270949F-F8D9-4DDC-8584-86501F8C3D88";
name = path;
paths = (
{
closed = 0;
nodes = (
"75 500 LINE",
"525 0 LINE",
"975 500 LINE"
);
}
);
visible = 1;
width = 1050;
},
{
layerId = "89EE149F-7564-47C9-BE54-DE0A35C75344";
paths = (
{
closed = 1;
nodes = (
"53 513 OFFCURVE",
"49 515 OFFCURVE",
"45 515 CURVE SMOOTH",
"37 515 OFFCURVE",
"30 508 OFFCURVE",
"30 500 CURVE SMOOTH",
"30 496 OFFCURVE",
"31 493 OFFCURVE",
"34 490 CURVE",
"484 -10 LINE SMOOTH",
"487 -13 OFFCURVE",
"491 -15 OFFCURVE",
"495 -15 CURVE SMOOTH",
"499 -15 OFFCURVE",
"503 -13 OFFCURVE",
"506 -10 CURVE SMOOTH",
"956 490 LINE",
"959 493 OFFCURVE",
"960 496 OFFCURVE",
"960 500 CURVE SMOOTH",
"960 508 OFFCURVE",
"953 515 OFFCURVE",
"945 515 CURVE SMOOTH",
"941 515 OFFCURVE",
"937 513 OFFCURVE",
"934 510 CURVE",
"495 22 LINE",
"56 510 LINE"
);
}
);
width = 990;
},
{
layerId = "BA964981-AC0A-4481-A535-297F9E9B05B4";
paths = (
{
closed = 1;
nodes = (
"147 565 OFFCURVE",
"127 575 OFFCURVE",
"105 575 CURVE SMOOTH",
"64 575 OFFCURVE",
"30 541 OFFCURVE",
"30 500 CURVE SMOOTH",
"30 481 OFFCURVE",
"37 463 OFFCURVE",
"49 450 CURVE SMOOTH",
"499 -50 LINE SMOOTH",
"513 -65 OFFCURVE",
"533 -75 OFFCURVE",
"555 -75 CURVE SMOOTH",
"577 -75 OFFCURVE",
"597 -65 OFFCURVE",
"611 -50 CURVE SMOOTH",
"1061 450 LINE SMOOTH",
"1073 463 OFFCURVE",
"1080 481 OFFCURVE",
"1080 500 CURVE SMOOTH",
"1080 541 OFFCURVE",
"1046 575 OFFCURVE",
"1005 575 CURVE SMOOTH",
"983 575 OFFCURVE",
"963 565 OFFCURVE",
"949 550 CURVE SMOOTH",
"555 112 LINE",
"161 550 LINE SMOOTH"
);
}
);
width = 1110;
}
);
unicode = 0076;
},
{
color = 10;
glyphname = w;
lastChange = "2019-01-22 14:04:59 +0000";
layers = (
{
layerId = "ADA7F6FF-5955-4EF3-8FA7-BADC10F8EE4C";
paths = (
{
closed = 1;
nodes = (
"111 533 OFFCURVE",
"94 545 OFFCURVE",
"75 545 CURVE SMOOTH",
"50 545 OFFCURVE",
"30 525 OFFCURVE",
"30 500 CURVE SMOOTH",
"30 494 OFFCURVE",
"31 488 OFFCURVE",
"34 482 CURVE",
"233 -16 LINE",
"239 -33 OFFCURVE",
"256 -45 OFFCURVE",
"275 -45 CURVE SMOOTH",
"293.218 -45 OFFCURVE",
"308.781 -34.379 OFFCURVE",
"315.884 -18.943 CURVE SMOOTH",
"525 399 LINE",
"734 -19 LINE SMOOTH",
"742 -34 OFFCURVE",
"757 -45 OFFCURVE",
"775 -45 CURVE SMOOTH",
"795 -45 OFFCURVE",
"812 -32 OFFCURVE",
"818 -14 CURVE",
"1016 482 LINE",
"1019 488 OFFCURVE",
"1020 494 OFFCURVE",
"1020 500 CURVE SMOOTH",
"1020 525 OFFCURVE",
"1000 545 OFFCURVE",
"975 545 CURVE SMOOTH",
"956 545 OFFCURVE",
"939 533 OFFCURVE",
"933 516 CURVE",
"771 110 LINE",
"566 519 LINE SMOOTH",
"558 534 OFFCURVE",
"543 545 OFFCURVE",
"525 545 CURVE SMOOTH",
"506.782 545 OFFCURVE",
"491.219 534.379 OFFCURVE",
"484.116 518.943 CURVE SMOOTH",
"279.354 109.708 LINE",
"117 516 LINE"
);
}
);
width = 1050;
},
{
associatedMasterId = "ADA7F6FF-5955-4EF3-8FA7-BADC10F8EE4C";
layerId = "CA329C05-ACA3-43F5-B2F7-2808A7947A38";
name = path;
paths = (
{
closed = 0;
nodes = (
"975 500 LINE",
"775 0 LINE",
"525 500 LINE",
"275 0 LINE",
"75 500 LINE"
);
}
);
visible = 1;
width = 1050;
},
{
layerId = "89EE149F-7564-47C9-BE54-DE0A35C75344";
paths = (
{
closed = 1;
nodes = (
"57 511 OFFCURVE",
"51 515 OFFCURVE",
"45 515 CURVE SMOOTH",
"37 515 OFFCURVE",
"30 508 OFFCURVE",
"30 500 CURVE SMOOTH",
"30 498 OFFCURVE",
"30 496 OFFCURVE",
"31 494 CURVE",
"231 -5 LINE",
"233 -11 OFFCURVE",
"239 -15 OFFCURVE",
"245 -15 CURVE SMOOTH",
"251 -15 OFFCURVE",
"256 -11 OFFCURVE",
"259 -6 CURVE",
"495 467 LINE",
"731 -6 LINE",
"734 -11 OFFCURVE",
"739 -15 OFFCURVE",
"745 -15 CURVE SMOOTH",
"752 -15 OFFCURVE",
"758 -10 OFFCURVE",
"759 -4 CURVE",
"959 494 LINE",
"960 496 OFFCURVE",
"960 498 OFFCURVE",
"960 500 CURVE SMOOTH",
"960 508 OFFCURVE",
"953 515 OFFCURVE",
"945 515 CURVE SMOOTH",
"939 515 OFFCURVE",
"933 511 OFFCURVE",
"931 505 CURVE",
"743 37 LINE",
"509 506 LINE",
"506 511 OFFCURVE",
"501 515 OFFCURVE",
"495 515 CURVE SMOOTH",
"489 515 OFFCURVE",
"484 511 OFFCURVE",
"481 506 CURVE",
"247 37 LINE",
"59 505 LINE"
);
}
);
width = 990;
},
{
layerId = "BA964981-AC0A-4481-A535-297F9E9B05B4";
paths = (
{
closed = 1;
nodes = (
"165 555 OFFCURVE",
"137 575 OFFCURVE",
"105 575 CURVE SMOOTH",
"64 575 OFFCURVE",
"30 541 OFFCURVE",
"30 500 CURVE SMOOTH",
"30 490 OFFCURVE",
"32 480 OFFCURVE",
"36 471 CURVE",
"235 -26 LINE",
"245 -55 OFFCURVE",
"273 -75 OFFCURVE",
"305 -75 CURVE SMOOTH",
"335 -75 OFFCURVE",
"361 -57 OFFCURVE",
"373 -32 CURVE",
"555 333 LINE",
"737 -32 LINE",
"749 -57 OFFCURVE",
"775 -75 OFFCURVE",
"805 -75 CURVE SMOOTH",
"839 -75 OFFCURVE",
"867 -52 OFFCURVE",
"877 -22 CURVE",
"1074 471 LINE",
"1078 480 OFFCURVE",
"1080 490 OFFCURVE",
"1080 500 CURVE SMOOTH",
"1080 541 OFFCURVE",
"1046 575 OFFCURVE",
"1005 575 CURVE SMOOTH",
"973 575 OFFCURVE",
"945 555 OFFCURVE",
"935 526 CURVE",
"797 182 LINE",
"623 532 LINE SMOOTH",
"611 557 OFFCURVE",
"585 575 OFFCURVE",
"555 575 CURVE SMOOTH",
"525 575 OFFCURVE",
"499 557 OFFCURVE",
"487 532 CURVE SMOOTH",
"313 182 LINE",
"175 526 LINE"
);
}
);
width = 1110;
}
);
unicode = 0077;
},
{
color = 10;
glyphname = x;
lastChange = "2019-01-22 14:04:59 +0000";
layers = (
{
layerId = "ADA7F6FF-5955-4EF3-8FA7-BADC10F8EE4C";
paths = (
{
closed = 1;
nodes = (
"91 543 OFFCURVE",
"83 545 OFFCURVE",
"75 545 CURVE SMOOTH",
"50 545 OFFCURVE",
"30 525 OFFCURVE",
"30 500 CURVE SMOOTH",
"30 483 OFFCURVE",
"40 468 OFFCURVE",
"54 460 CURVE SMOOTH",
"432 250 LINE",
"54 40 LINE SMOOTH",
"40 32 OFFCURVE",
"30 17 OFFCURVE",
"30 0 CURVE SMOOTH",
"30 -25 OFFCURVE",
"50 -45 OFFCURVE",
"75 -45 CURVE SMOOTH",
"83 -45 OFFCURVE",
"91 -43 OFFCURVE",
"98 -39 CURVE SMOOTH",
"525 199 LINE",
"952 -39 LINE SMOOTH",
"959 -43 OFFCURVE",
"967 -45 OFFCURVE",
"975 -45 CURVE SMOOTH",
"1000 -45 OFFCURVE",
"1020 -25 OFFCURVE",
"1020 0 CURVE SMOOTH",
"1020 17 OFFCURVE",
"1010 32 OFFCURVE",
"996 40 CURVE SMOOTH",
"618 250 LINE",
"996 460 LINE SMOOTH",
"1010 468 OFFCURVE",
"1020 483 OFFCURVE",
"1020 500 CURVE SMOOTH",
"1020 525 OFFCURVE",
"1000 545 OFFCURVE",
"975 545 CURVE SMOOTH",
"967 545 OFFCURVE",
"959 543 OFFCURVE",
"952 539 CURVE SMOOTH",
"525 301 LINE",
"98 539 LINE SMOOTH"
);
}
);
width = 1050;
},
{
associatedMasterId = "ADA7F6FF-5955-4EF3-8FA7-BADC10F8EE4C";
layerId = "DA68D4D1-1276-4F92-9EC1-0D365B12073F";
name = path;
paths = (
{
closed = 0;
nodes = (
"75 500 LINE",
"975 0 LINE"
);
},
{
closed = 0;
nodes = (
"975 500 LINE",
"75 0 LINE"
);
}
);
visible = 1;
width = 1050;
},
{
layerId = "89EE149F-7564-47C9-BE54-DE0A35C75344";
paths = (
{
closed = 1;
nodes = (
"50 514 OFFCURVE",
"48 515 OFFCURVE",
"45 515 CURVE SMOOTH",
"37 515 OFFCURVE",
"30 508 OFFCURVE",
"30 500 CURVE SMOOTH",
"30 494 OFFCURVE",
"33 489 OFFCURVE",
"38 487 CURVE SMOOTH",
"464 250 LINE",
"38 13 LINE SMOOTH",
"33 11 OFFCURVE",
"30 6 OFFCURVE",
"30 0 CURVE SMOOTH",
"30 -8 OFFCURVE",
"37 -15 OFFCURVE",
"45 -15 CURVE SMOOTH",
"48 -15 OFFCURVE",
"50 -14 OFFCURVE",
"53 -13 CURVE SMOOTH",
"495 233 LINE",
"937 -13 LINE SMOOTH",
"940 -14 OFFCURVE",
"942 -15 OFFCURVE",
"945 -15 CURVE SMOOTH",
"953 -15 OFFCURVE",
"960 -8 OFFCURVE",
"960 0 CURVE SMOOTH",
"960 6 OFFCURVE",
"957 11 OFFCURVE",
"952 13 CURVE SMOOTH",
"526 250 LINE",
"952 487 LINE SMOOTH",
"957 489 OFFCURVE",
"960 494 OFFCURVE",
"960 500 CURVE SMOOTH",
"960 508 OFFCURVE",
"953 515 OFFCURVE",
"945 515 CURVE SMOOTH",
"942 515 OFFCURVE",
"940 514 OFFCURVE",
"937 513 CURVE SMOOTH",
"495 267 LINE",
"53 513 LINE SMOOTH"
);
}
);
width = 990;
},
{
layerId = "BA964981-AC0A-4481-A535-297F9E9B05B4";
paths = (
{
closed = 1;
nodes = (
"132 571 OFFCURVE",
"119 575 OFFCURVE",
"105 575 CURVE SMOOTH",
"64 575 OFFCURVE",
"30 541 OFFCURVE",
"30 500 CURVE SMOOTH",
"30 471 OFFCURVE",
"46 446 OFFCURVE",
"70 434 CURVE SMOOTH",
"401 250 LINE",
"70 66 LINE SMOOTH",
"46 54 OFFCURVE",
"30 29 OFFCURVE",
"30 0 CURVE SMOOTH",
"30 -41 OFFCURVE",
"64 -75 OFFCURVE",
"105 -75 CURVE SMOOTH",
"119 -75 OFFCURVE",
"132 -71 OFFCURVE",
"143 -65 CURVE SMOOTH",
"555 164 LINE",
"967 -65 LINE SMOOTH",
"978 -71 OFFCURVE",
"991 -75 OFFCURVE",
"1005 -75 CURVE SMOOTH",
"1046 -75 OFFCURVE",
"1080 -41 OFFCURVE",
"1080 0 CURVE SMOOTH",
"1080 29 OFFCURVE",
"1064 54 OFFCURVE",
"1040 66 CURVE SMOOTH",
"709 250 LINE",
"1040 434 LINE SMOOTH",
"1064 446 OFFCURVE",
"1080 471 OFFCURVE",
"1080 500 CURVE SMOOTH",
"1080 541 OFFCURVE",
"1046 575 OFFCURVE",
"1005 575 CURVE SMOOTH",
"991 575 OFFCURVE",
"978 571 OFFCURVE",
"967 565 CURVE SMOOTH",
"555 336 LINE",
"143 565 LINE SMOOTH"
);
}
);
width = 1110;
}
);
unicode = 0078;
},
{
color = 10;
glyphname = y;
lastChange = "2019-01-22 14:04:59 +0000";
layers = (
{
layerId = "ADA7F6FF-5955-4EF3-8FA7-BADC10F8EE4C";
paths = (
{
closed = 1;
nodes = (
"97 541 OFFCURVE",
"87 545 OFFCURVE",
"75 545 CURVE SMOOTH",
"50 545 OFFCURVE",
"30 525 OFFCURVE",
"30 500 CURVE SMOOTH",
"30 487 OFFCURVE",
"36 474 OFFCURVE",
"45 466 CURVE SMOOTH",
"480 80 LINE",
"480 0 LINE SMOOTH",
"480 -25 OFFCURVE",
"500 -45 OFFCURVE",
"525 -45 CURVE SMOOTH",
"550 -45 OFFCURVE",
"570 -25 OFFCURVE",
"570 0 CURVE SMOOTH",
"570 80 LINE",
"1005 466 LINE SMOOTH",
"1014 474 OFFCURVE",
"1020 487 OFFCURVE",
"1020 500 CURVE SMOOTH",
"1020 525 OFFCURVE",
"1000 545 OFFCURVE",
"975 545 CURVE SMOOTH",
"963 545 OFFCURVE",
"953 541 OFFCURVE",
"945 534 CURVE SMOOTH",
"525 160 LINE",
"105 534 LINE SMOOTH"
);
}
);
width = 1050;
},
{
associatedMasterId = "ADA7F6FF-5955-4EF3-8FA7-BADC10F8EE4C";
layerId = "479A0975-5415-4FF7-B5A5-208B47166D52";
name = path;
paths = (
{
closed = 0;
nodes = (
"75 500 LINE",
"525 100 LINE",
"975 500 LINE"
);
},
{
closed = 0;
nodes = (
"525 100 LINE",
"525 0 LINE"
);
}
);
visible = 1;
width = 1050;
},
{
layerId = "89EE149F-7564-47C9-BE54-DE0A35C75344";
paths = (
{
closed = 1;
nodes = (
"52 514 OFFCURVE",
"49 515 OFFCURVE",
"45 515 CURVE SMOOTH",
"37 515 OFFCURVE",
"30 508 OFFCURVE",
"30 500 CURVE SMOOTH",
"30 496 OFFCURVE",
"32 491 OFFCURVE",
"35 489 CURVE SMOOTH",
"480 93 LINE",
"480 0 LINE SMOOTH",
"480 -8 OFFCURVE",
"487 -15 OFFCURVE",
"495 -15 CURVE SMOOTH",
"503 -15 OFFCURVE",
"510 -8 OFFCURVE",
"510 0 CURVE SMOOTH",
"510 93 LINE",
"955 489 LINE SMOOTH",
"958 491 OFFCURVE",
"960 496 OFFCURVE",
"960 500 CURVE SMOOTH",
"960 508 OFFCURVE",
"953 515 OFFCURVE",
"945 515 CURVE SMOOTH",
"941 515 OFFCURVE",
"938 514 OFFCURVE",
"935 511 CURVE SMOOTH",
"495 120 LINE",
"55 511 LINE SMOOTH"
);
}
);
width = 990;
},
{
layerId = "BA964981-AC0A-4481-A535-297F9E9B05B4";
paths = (
{
closed = 1;
nodes = (
"142 568 OFFCURVE",
"124 575 OFFCURVE",
"105 575 CURVE SMOOTH",
"64 575 OFFCURVE",
"30 541 OFFCURVE",
"30 500 CURVE SMOOTH",
"30 478 OFFCURVE",
"40 458 OFFCURVE",
"55 444 CURVE SMOOTH",
"480 66 LINE",
"480 0 LINE SMOOTH",
"480 -41 OFFCURVE",
"514 -75 OFFCURVE",
"555 -75 CURVE SMOOTH",
"596 -75 OFFCURVE",
"630 -41 OFFCURVE",
"630 0 CURVE SMOOTH",
"630 66 LINE",
"1055 444 LINE SMOOTH",
"1070 458 OFFCURVE",
"1080 478 OFFCURVE",
"1080 500 CURVE SMOOTH",
"1080 541 OFFCURVE",
"1046 575 OFFCURVE",
"1005 575 CURVE SMOOTH",
"986 575 OFFCURVE",
"968 568 OFFCURVE",
"955 556 CURVE SMOOTH",
"555 200 LINE",
"155 556 LINE SMOOTH"
);
}
);
width = 1110;
}
);
unicode = 0079;
},
{
color = 10;
glyphname = z;
lastChange = "2019-01-22 14:04:59 +0000";
layers = (
{
layerId = "ADA7F6FF-5955-4EF3-8FA7-BADC10F8EE4C";
paths = (
{
closed = 1;
nodes = (
"50 545 OFFCURVE",
"30 525 OFFCURVE",
"30 500 CURVE SMOOTH",
"30 475 OFFCURVE",
"50 455 OFFCURVE",
"75 455 CURVE SMOOTH",
"801 455 LINE",
"54 40 LINE SMOOTH",
"40 32 OFFCURVE",
"30 17 OFFCURVE",
"30 0 CURVE SMOOTH",
"30 -25 OFFCURVE",
"50 -45 OFFCURVE",
"75 -45 CURVE SMOOTH",
"975 -45 LINE SMOOTH",
"1000 -45 OFFCURVE",
"1020 -25 OFFCURVE",
"1020 0 CURVE SMOOTH",
"1020 25 OFFCURVE",
"1000 45 OFFCURVE",
"975 45 CURVE SMOOTH",
"249 45 LINE",
"996 460 LINE SMOOTH",
"1010 468 OFFCURVE",
"1020 483 OFFCURVE",
"1020 500 CURVE SMOOTH",
"1020 525 OFFCURVE",
"1000 545 OFFCURVE",
"975 545 CURVE SMOOTH",
"75 545 LINE SMOOTH"
);
}
);
width = 1050;
},
{
layerId = "89EE149F-7564-47C9-BE54-DE0A35C75344";
paths = (
{
closed = 1;
nodes = (
"37 515 OFFCURVE",
"30 508 OFFCURVE",
"30 500 CURVE SMOOTH",
"30 492 OFFCURVE",
"37 485 OFFCURVE",
"45 485 CURVE SMOOTH",
"887 485 LINE",
"40 14 LINE",
"34 12 OFFCURVE",
"30 6 OFFCURVE",
"30 0 CURVE SMOOTH",
"30 -8 OFFCURVE",
"37 -15 OFFCURVE",
"45 -15 CURVE SMOOTH",
"945 -15 LINE SMOOTH",
"953 -15 OFFCURVE",
"960 -8 OFFCURVE",
"960 0 CURVE SMOOTH",
"960 8 OFFCURVE",
"953 15 OFFCURVE",
"945 15 CURVE SMOOTH",
"103 15 LINE",
"950 486 LINE",
"956 488 OFFCURVE",
"960 494 OFFCURVE",
"960 500 CURVE SMOOTH",
"960 508 OFFCURVE",
"953 515 OFFCURVE",
"945 515 CURVE SMOOTH",
"45 515 LINE SMOOTH"
);
}
);
width = 990;
},
{
layerId = "BA964981-AC0A-4481-A535-297F9E9B05B4";
paths = (
{
closed = 1;
nodes = (
"64 575 OFFCURVE",
"30 541 OFFCURVE",
"30 500 CURVE SMOOTH",
"30 459 OFFCURVE",
"64 425 OFFCURVE",
"105 425 CURVE SMOOTH",
"715 425 LINE",
"73 68 LINE",
"48 56 OFFCURVE",
"30 30 OFFCURVE",
"30 0 CURVE SMOOTH",
"30 -41 OFFCURVE",
"64 -75 OFFCURVE",
"105 -75 CURVE SMOOTH",
"1005 -75 LINE SMOOTH",
"1046 -75 OFFCURVE",
"1080 -41 OFFCURVE",
"1080 0 CURVE SMOOTH",
"1080 41 OFFCURVE",
"1046 75 OFFCURVE",
"1005 75 CURVE SMOOTH",
"395 75 LINE",
"1037 432 LINE",
"1062 444 OFFCURVE",
"1080 470 OFFCURVE",
"1080 500 CURVE SMOOTH",
"1080 541 OFFCURVE",
"1046 575 OFFCURVE",
"1005 575 CURVE SMOOTH",
"105 575 LINE SMOOTH"
);
}
);
width = 1110;
},
{
associatedMasterId = "ADA7F6FF-5955-4EF3-8FA7-BADC10F8EE4C";
layerId = "B37C4D40-93E4-4FAE-8AB1-0C13AA4D182D";
name = path;
paths = (
{
closed = 0;
nodes = (
"975 0 LINE",
"75 0 LINE",
"975 500 LINE",
"75 500 LINE"
);
}
);
visible = 1;
width = 1050;
}
);
unicode = 007A;
},
{
color = 10;
glyphname = a.alt1;
lastChange = "2019-01-22 14:04:59 +0000";
layers = (
{
layerId = "ADA7F6FF-5955-4EF3-8FA7-BADC10F8EE4C";
paths = (
{
closed = 1;
nodes = (
"930 455 LINE",
"930 295 LINE",
"120 295 LINE",
"120 455 LINE"
);
},
{
closed = 1;
nodes = (
"50 545 OFFCURVE",
"30 525 OFFCURVE",
"30 500 CURVE SMOOTH",
"30 0 LINE SMOOTH",
"30 -25 OFFCURVE",
"50 -45 OFFCURVE",
"75 -45 CURVE SMOOTH",
"100 -45 OFFCURVE",
"120 -25 OFFCURVE",
"120 0 CURVE SMOOTH",
"120 205 LINE",
"930 205 LINE",
"930 0 LINE SMOOTH",
"930 -25 OFFCURVE",
"950 -45 OFFCURVE",
"975 -45 CURVE SMOOTH",
"1000 -45 OFFCURVE",
"1020 -25 OFFCURVE",
"1020 0 CURVE SMOOTH",
"1020 500 LINE SMOOTH",
"1020 525 OFFCURVE",
"1000 545 OFFCURVE",
"975 545 CURVE SMOOTH",
"75 545 LINE SMOOTH"
);
}
);
width = 1050;
},
{
associatedMasterId = "ADA7F6FF-5955-4EF3-8FA7-BADC10F8EE4C";
layerId = "2326A2AD-EEA1-4569-A6C1-49A3B95F8D99";
name = path;
paths = (
{
closed = 0;
nodes = (
"75 0 LINE",
"75 500 LINE",
"975 500 LINE",
"975 0 LINE"
);
},
{
closed = 0;
nodes = (
"75 250 LINE",
"975 250 LINE"
);
}
);
visible = 1;
width = 1050;
},
{
layerId = "89EE149F-7564-47C9-BE54-DE0A35C75344";
paths = (
{
closed = 1;
nodes = (
"930 485 LINE",
"930 265 LINE",
"60 265 LINE",
"60 485 LINE"
);
},
{
closed = 1;
nodes = (
"37 515 OFFCURVE",
"30 508 OFFCURVE",
"30 500 CURVE SMOOTH",
"30 0 LINE SMOOTH",
"30 -8 OFFCURVE",
"37 -15 OFFCURVE",
"45 -15 CURVE SMOOTH",
"53 -15 OFFCURVE",
"60 -8 OFFCURVE",
"60 0 CURVE SMOOTH",
"60 235 LINE",
"930 235 LINE",
"930 0 LINE SMOOTH",
"930 -8 OFFCURVE",
"937 -15 OFFCURVE",
"945 -15 CURVE SMOOTH",
"953 -15 OFFCURVE",
"960 -8 OFFCURVE",
"960 0 CURVE SMOOTH",
"960 500 LINE SMOOTH",
"960 508 OFFCURVE",
"953 515 OFFCURVE",
"945 515 CURVE SMOOTH",
"45 515 LINE SMOOTH"
);
}
);
width = 990;
},
{
layerId = "BA964981-AC0A-4481-A535-297F9E9B05B4";
paths = (
{
closed = 1;
nodes = (
"930 425 LINE",
"930 325 LINE",
"180 325 LINE",
"180 425 LINE"
);
},
{
closed = 1;
nodes = (
"64 575 OFFCURVE",
"30 541 OFFCURVE",
"30 500 CURVE SMOOTH",
"30 0 LINE SMOOTH",
"30 -41 OFFCURVE",
"64 -75 OFFCURVE",
"105 -75 CURVE SMOOTH",
"146 -75 OFFCURVE",
"180 -41 OFFCURVE",
"180 0 CURVE SMOOTH",
"180 175 LINE",
"930 175 LINE",
"930 0 LINE SMOOTH",
"930 -41 OFFCURVE",
"964 -75 OFFCURVE",
"1005 -75 CURVE SMOOTH",
"1046 -75 OFFCURVE",
"1080 -41 OFFCURVE",
"1080 0 CURVE SMOOTH",
"1080 500 LINE SMOOTH",
"1080 541 OFFCURVE",
"1046 575 OFFCURVE",
"1005 575 CURVE SMOOTH",
"105 575 LINE SMOOTH"
);
}
);
width = 1110;
}
);
},
{
color = 10;
glyphname = w.alt1;
lastChange = "2019-01-22 14:04:59 +0000";
layers = (
{
layerId = "ADA7F6FF-5955-4EF3-8FA7-BADC10F8EE4C";
paths = (
{
closed = 1;
nodes = (
"30 -25 OFFCURVE",
"50 -45 OFFCURVE",
"75 -45 CURVE SMOOTH",
"87.221 -45 OFFCURVE",
"98 -40 OFFCURVE",
"106 -33 CURVE",
"525 293.013 LINE",
"945 -33 LINE SMOOTH",
"954 -40 OFFCURVE",
"962.701 -44.966 OFFCURVE",
"974.869 -45 CURVE SMOOTH",
"1000 -45 OFFCURVE",
"1020 -25 OFFCURVE",
"1020 0 CURVE SMOOTH",
"1020 500 LINE SMOOTH",
"1020 525 OFFCURVE",
"1000 545 OFFCURVE",
"975 545 CURVE SMOOTH",
"950 545 OFFCURVE",
"930 525 OFFCURVE",
"930 500 CURVE SMOOTH",
"930 91.964 LINE",
"556.325 382.415 LINE",
"548.246 390.221 OFFCURVE",
"537.221 395 OFFCURVE",
"525 395 CURVE SMOOTH",
"512.701 394.966 OFFCURVE",
"501.725 390.193 OFFCURVE",
"493.675 382.415 CURVE",
"120 91.964 LINE",
"120 500 LINE SMOOTH",
"120 525 OFFCURVE",
"100 545 OFFCURVE",
"75 545 CURVE SMOOTH",
"50 545 OFFCURVE",
"30 525 OFFCURVE",
"30 500 CURVE SMOOTH",
"30 0 LINE SMOOTH"
);
}
);
width = 1050;
},
{
associatedMasterId = "ADA7F6FF-5955-4EF3-8FA7-BADC10F8EE4C";
layerId = "6E6ADFED-5FC1-4547-8EFC-59BF4F5710C1";
name = path;
paths = (
{
closed = 0;
nodes = (
"975 500 LINE",
"975 0 LINE",
"525 350 LINE",
"75 0 LINE",
"75 500 LINE"
);
}
);
visible = 1;
width = 1050;
},
{
layerId = "89EE149F-7564-47C9-BE54-DE0A35C75344";
paths = (
{
closed = 1;
nodes = (
"30 -8 OFFCURVE",
"37 -15 OFFCURVE",
"45 -15 CURVE SMOOTH",
"48 -15 OFFCURVE",
"51 -14 OFFCURVE",
"54 -12 CURVE SMOOTH",
"495 331 LINE",
"936 -12 LINE",
"939 -14 OFFCURVE",
"942 -15 OFFCURVE",
"945 -15 CURVE SMOOTH",
"953 -15 OFFCURVE",
"960 -8 OFFCURVE",
"960 0 CURVE SMOOTH",
"960 500 LINE SMOOTH",
"960 508 OFFCURVE",
"953 515 OFFCURVE",
"945 515 CURVE SMOOTH",
"937 515 OFFCURVE",
"930 508 OFFCURVE",
"930 500 CURVE SMOOTH",
"930 31 LINE",
"504 362 LINE",
"501 364 OFFCURVE",
"498 365 OFFCURVE",
"495 365 CURVE SMOOTH",
"491 365 OFFCURVE",
"488 364 OFFCURVE",
"486 362 CURVE",
"60 31 LINE",
"60 500 LINE SMOOTH",
"60 508 OFFCURVE",
"53 515 OFFCURVE",
"45 515 CURVE SMOOTH",
"37 515 OFFCURVE",
"30 508 OFFCURVE",
"30 500 CURVE SMOOTH",
"30 0 LINE SMOOTH"
);
}
);
width = 990;
},
{
layerId = "BA964981-AC0A-4481-A535-297F9E9B05B4";
paths = (
{
closed = 1;
nodes = (
"30 -41 OFFCURVE",
"64 -75 OFFCURVE",
"105 -75 CURVE SMOOTH",
"123 -75 OFFCURVE",
"139 -69 OFFCURVE",
"152 -58 CURVE",
"555 255 LINE",
"958 -59 LINE SMOOTH",
"971 -69 OFFCURVE",
"987 -75 OFFCURVE",
"1005 -75 CURVE SMOOTH",
"1046 -75 OFFCURVE",
"1080 -41 OFFCURVE",
"1080 0 CURVE SMOOTH",
"1080 500 LINE SMOOTH",
"1080 541 OFFCURVE",
"1046 575 OFFCURVE",
"1005 575 CURVE SMOOTH",
"964 575 OFFCURVE",
"930 541 OFFCURVE",
"930 500 CURVE SMOOTH",
"930 153 LINE",
"602 409 LINE SMOOTH",
"589 419 OFFCURVE",
"573 425 OFFCURVE",
"555 425 CURVE SMOOTH",
"537 425 OFFCURVE",
"521 419 OFFCURVE",
"508 409 CURVE SMOOTH",
"180 153 LINE",
"180 500 LINE SMOOTH",
"180 541 OFFCURVE",
"146 575 OFFCURVE",
"105 575 CURVE SMOOTH",
"64 575 OFFCURVE",
"30 541 OFFCURVE",
"30 500 CURVE SMOOTH",
"30 0 LINE SMOOTH"
);
}
);
width = 1110;
}
);
},
